{
.appVersion = "1271";
DisplayStrings = (
"God bless us "
);
copyright = "Copyright (c) 2019, Fredrick R. Brennan <copypaste@kittens.ph>. This font is licensed under the SIL Open Font License version 1.1.";
customParameters = (
{
name = glyphOrder;
value = (
.notdef,
space,
exclam,
quotedbl,
numbersign,
dollar,
percent,
ampersand,
quotesingle,
parenleft,
parenright,
asterisk,
plus,
comma,
hyphen,
period,
slash,
zero,
one,
two,
three,
four,
five,
six,
seven,
eight,
nine,
colon,
semicolon,
less,
equal,
greater,
question,
at,
A,
glyph85,
C,
D,
E,
F,
G,
H,
I,
J,
K,
L,
M,
N,
O,
P,
Q,
R,
S,
T,
U,
V,
W,
X,
Y,
Z,
bracketleft,
backslash,
bracketright,
asciicircum,
glyph237,
grave,
a,
b,
c,
d,
e,
f,
g,
h,
i,
j,
k,
l,
m,
n,
o,
p,
q,
r,
s,
t,
u,
v,
w,
x,
y,
z,
braceleft,
bar,
braceright,
asciitilde,
longs,
tilde,
et,
numero,
rrotunda,
rrumrotunda,
Dinsular,
dinsular,
unie8bf,
longs_longs,
longs_longs_i,
p_p,
b.ss02,
unif1a6,
f_f,
f_i,
f_l,
longs_t,
Qsplash,
M.alt,
i.alt,
p_e,
t_i,
t.alt,
v.alt,
z.alt,
S.alt,
P.alt,
h.final,
Z.ss02,
U.ss02,
U.alt,
M.ss02,
N.alt,
NameMe.65550,
NameMe.65551,
F.alt,
M.ss03,
Y.alt,
w.alt,
Z.alt,
yinit,
N.ss02,
N.ss03,
b.alt,
H.alt,
T.alt,
V.alt,
longs_t_o,
o.alt,
s.fina,
S.ss03,
Q.alt,
t_h,
l.alt,
g_g,
S.ss04,
B.alt,
R.alt,
S.ss02,
R.ss02,
W.alt,
Q.ss02,
Q.ss03,
P.ss02,
G.alt,
G.ss02,
C.alt,
K.ss03,
K.ss04,
N.ss04,
N.ss05,
m.fina,
E.alt,
A.alt,
P.ss03,
f_r,
O.alt,
E.ss02,
i.ss02,
K.ss02,
a.alt,
bar.alt,
t.ss02,
b_b,
W.ss03,
W.ss02,
s.alt,
s.ss02,
m.ss03,
u.ss03,
n.ss03,
W.ss04,
e.alt,
e.ss02,
e.ss03,
e.ss04,
c_e,
Q.ss04,
p.alt,
h.alt,
C.ss02,
Q.ss05,
u.alt,
m.alt,
c.alt,
c.ss02,
n.alt,
zero.alt,
one.alt,
two.alt,
three.alt,
four.alt,
five.alt,
six.alt,
seven.alt,
eight.alt,
nine.alt,
t_r,
d.alt,
b.ss03,
K.alt,
Y.ss02,
K.ss05,
k.alt,
g.alt,
q.alt,
r.alt,
x.alt,
v.ss02,
Y.ss04,
Y.ss03,
c_o,
g.ss02,
V.ss02,
f.alt,
A.ss02,
A.ss03,
V.ss03,
question.ss02,
S.ss05,
question.alt,
parenright.alt,
parenleft.alt
);
},
{
name = openTypeNameRecords;
value = (
{

glyphs = (
{
glyphname = .notdef;
layers = (
{
layerId = master01;
paths = (
{
closed = 1;
nodes = (
"495 0 LINE",
"495 533 LINE",
"55 533 LINE",
"55 0 LINE"
);
},
{
closed = 1;
nodes = (
"110 478 LINE",
"440 478 LINE",
"440 55 LINE",
"110 55 LINE"
);
}
);
width = 550;
}
);
},
{
glyphname = exclam;
layers = (
{
layerId = master01;
paths = (
{
closed = 1;
nodes = (
"101.395 -20.666 LINE",
"95.659 -12.475 LINE SMOOTH",
"94.714 -10.995 OFFCURVE",
"93.753 -9.525 OFFCURVE",
"92.776 -8.066 CURVE SMOOTH",
"86.295 0.795 OFFCURVE",
"79.081 9.379 OFFCURVE",
"71.395 17.333 CURVE SMOOTH",
"59.031 30.126 OFFCURVE",
"45.254 41.551 OFFCURVE",
"30.395 51.334 CURVE",
"24.659 59.525 LINE",
"122.957 128.354 LINE",
"137.816 118.571 OFFCURVE",
"151.594 107.146 OFFCURVE",
"163.957 94.353 CURVE SMOOTH",
"172.789 85.215 OFFCURVE",
"180.902 75.381 OFFCURVE",
"188.192 64.971 CURVE",
"188.192 64.971 LINE"
);
},
{
closed = 1;
nodes = (
"258.424 257.782 LINE",
"500 593 LINE",
"492.929 600.071 LINE",
"429.505 537.289 LINE",
"187.929 202.071 LINE",
"195 195 LINE"
);
}
);
width = 212;
}
);
leftKerningGroup = exclam;
unicode = 0021;
},
{
glyphname = quotedbl;
layers = (
{
layerId = master01;
paths = (
{
closed = 1;
nodes = (
"123 613 LINE",
"123 452.333 LINE",
"14 412 LINE",
"14 613 LINE"
);
},
{
closed = 1;
nodes = (
"303 613 LINE",
"303 452.333 LINE",
"194 412 LINE",
"194 613 LINE"
);
}
);
width = 316;
}
);
leftKerningGroup = quotedbl;
unicode = 0022;
},
{
glyphname = numbersign;
layers = (
{
layerId = master01;
paths = (
{
closed = 1;
nodes = (
"208.038 470 LINE",
"179.373 379.962 LINE",
"92 379.962 LINE",
"92 295.109 LINE",
"92 288.038 LINE",
"150.107 288.038 LINE",
"120.781 195.924 LINE",
"28 195.924 LINE",
"28 111.071 LINE",
"28 104 LINE",
"91.516 104 LINE",
"52.038 -20 LINE",
"59.109 -20 LINE",
"143.962 -20 LINE",
"183.439 104 LINE",
"271.516 104 LINE",
"232.038 -20 LINE",
"239.108 -20 LINE",
"323.962 -20 LINE",
"363.439 104 LINE",
"445 104 LINE",
"445 188.854 LINE",
"445 195.924 LINE",
"392.705 195.924 LINE",
"422.031 288.038 LINE",
"510 288.038 LINE",
"510 372.891 LINE",
"510 379.962 LINE",
"451.297 379.962 LINE",
"479.962 470 LINE",
"472.891 470 LINE",
"388.038 470 LINE",
"359.373 379.962 LINE",
"271.297 379.962 LINE",
"299.962 470 LINE",
"292.891 470 LINE"
);
},
{
closed = 1;
nodes = (
"300.781 195.924 LINE",
"212.705 195.924 LINE",
"242.031 288.038 LINE",
"330.107 288.038 LINE"
);
}
);
width = 527;
}
);
leftKerningGroup = a.alt;
unicode = 0023;
},
{
glyphname = dollar;
layers = (
{
layerId = master01;
paths = (
{
closed = 1;
nodes = (
"402.961 448.511 LINE",
"357.545 470.075 OFFCURVE",
"310.664 487.719 OFFCURVE",
"262.657 492.51 CURVE SMOOTH",
"259.227 492.852 OFFCURVE",
"255.782 493.115 OFFCURVE",
"252.33 493.286 CURVE",
"252.33 572.462 LINE",
"243.67 577.462 LINE",
"183.67 523.538 LINE",
"183.67 479.991 LINE",
"181.551 478.878 OFFCURVE",
"179.452 477.684 OFFCURVE",
"177.375 476.408 CURVE SMOOTH",
"175.602 475.318 OFFCURVE",
"173.848 474.167 OFFCURVE",
"172.116 472.954 CURVE SMOOTH",
"73.817 404.125 LINE SMOOTH",
"62.66 396.311 OFFCURVE",
"52.455 385.957 OFFCURVE",
"44.208 373.165 CURVE SMOOTH",
"34.681 358.39 OFFCURVE",
"27.852 340.335 OFFCURVE",
"25.126 321.087 CURVE SMOOTH",
"22.398 301.838 OFFCURVE",
"23.848 281.52 OFFCURVE",
"29.376 263.4 CURVE SMOOTH",
"32.939 251.724 OFFCURVE",
"38.171 241.035 OFFCURVE",
"44.595 231.854 CURVE SMOOTH",
"50.331 223.662 LINE",
"50.378 223.595 LINE",
"50.449 223.493 LINE SMOOTH",
"54.012 218.429 OFFCURVE",
"57.818 213.956 OFFCURVE",
"61.974 209.932 CURVE SMOOTH",
"73.762 198.514 OFFCURVE",
"87.653 191.438 OFFCURVE",
"101.898 187.756 CURVE SMOOTH",
"116.144 184.073 OFFCURVE",
"130.729 183.711 OFFCURVE",
"145.23 183.49 CURVE SMOOTH",
"183.67 182.905 LINE",
"183.67 58.297 LINE",
"164.213 69.128 OFFCURVE",
"145.457 82.448 OFFCURVE",
"127.682 97.511 CURVE",
"29.384 28.681 LINE",
"35.119 20.489 LINE",
"79.907 -17.466 OFFCURVE",
"130.928 -44.35 OFFCURVE",
"183.67 -48.25 CURVE",
"183.67 -160.462 LINE",
"192.33 -165.462 LINE",
"252.33 -111.539 LINE",
"252.33 -35.727 LINE",
"256.169 -33.758 OFFCURVE",
"259.941 -31.54 OFFCURVE",
"263.629 -29.057 CURVE SMOOTH",
"264.101 -28.739 OFFCURVE",
"264.387 -28.544 OFFCURVE",
"264.988 -28.126 CURVE",
"264.988 -28.126 OFFCURVE",
"265.121 -28.033 OFFCURVE",
"265.227 -27.959 CURVE SMOOTH",
"363.525 40.87 LINE SMOOTH",
"386.075 56.683 OFFCURVE",
"404.981 83.456 OFFCURVE",
"412.248 116.318 CURVE SMOOTH",
"416.336 134.799 OFFCURVE",
"416.649 154.847 OFFCURVE",
"412.763 173.406 CURVE SMOOTH",
"409.574 188.625 OFFCURVE",
"403.613 202.605 OFFCURVE",
"395.551 214.179 CURVE SMOOTH",
"395.48 214.279 LINE",
"395.434 214.346 LINE",
"389.697 222.537 LINE SMOOTH",
"387.963 225.014 OFFCURVE",
"386.135 227.369 OFFCURVE",
"384.222 229.592 CURVE SMOOTH",
"373.396 242.162 OFFCURVE",
"360.002 250.333 OFFCURVE",
"346.082 254.598 CURVE SMOOTH",
"332.163 258.862 OFFCURVE",
"317.777 259.294 OFFCURVE",
"303.505 259.511 CURVE SMOOTH",
"252.33 260.289 LINE",
"252.33 395.958 LINE",
"271.929 388.939 OFFCURVE",
"291.293 380.561 OFFCURVE",
"310.398 371.49 CURVE",
"408.697 440.319 LINE"
);
},
{
closed = 1;
nodes = (
"183.67 268.268 LINE",
"173.273 272.346 OFFCURVE",
"163.321 278.443 OFFCURVE",
"154.536 286.952 CURVE SMOOTH",
"151.481 289.91 OFFCURVE",
"148.594 293.141 OFFCURVE",
"145.862 296.656 CURVE",
"140.781 304.716 OFFCURVE",
"136.44 314.11 OFFCURVE",
"133.41 324.038 CURVE SMOOTH",
"127.882 342.157 OFFCURVE",
"126.433 362.476 OFFCURVE",
"129.16 381.725 CURVE SMOOTH",
"130.873 393.821 OFFCURVE",
"134.148 405.29 OFFCURVE",
"138.801 416.056 CURVE",
"148.925 416.809 OFFCURVE",
"159.728 416.524 OFFCURVE",
"170.095 415.489 CURVE SMOOTH",
"174.63 415.037 OFFCURVE",
"179.155 414.469 OFFCURVE",
"183.67 413.795 CURVE",
"183.67 413.795 LINE"
);
},
{
closed = 1;
nodes = (
"252.33 177.932 LINE",
"252.727 177.817 OFFCURVE",
"253.123 177.698 OFFCURVE",
"253.52 177.577 CURVE SMOOTH",
"267.439 173.311 OFFCURVE",
"280.833 165.142 OFFCURVE",
"291.659 152.571 CURVE SMOOTH",
"292.507 151.587 OFFCURVE",
"293.459 150.423 OFFCURVE",
"294.196 149.482 CURVE",
"300.915 138.727 OFFCURVE",
"305.906 126.242 OFFCURVE",
"308.729 112.769 CURVE SMOOTH",
"312.615 94.209 OFFCURVE",
"312.302 74.161 OFFCURVE",
"308.215 55.681 CURVE SMOOTH",
"306.11 46.166 OFFCURVE",
"302.874 36.824 OFFCURVE",
"299.143 28.729 CURVE",
"292.935 28.251 OFFCURVE",
"286.639 28.195 OFFCURVE",
"280.418 28.51 CURVE SMOOTH",
"270.996 28.987 OFFCURVE",
"261.625 30.206 OFFCURVE",
"252.33 32.098 CURVE",
"252.33 32.098 LINE"
);
}
);
width = 439;
}
);
unicode = 0024;
},
{
glyphname = percent;
layers = (
{
layerId = master01;
paths = (
{
closed = 1;
nodes = (
"16.85 0.775 OFFCURVE",
"36.359 -36.031 OFFCURVE",
"65.94 -57.55 CURVE SMOOTH",
"65.982 -57.58 LINE",
"66.027 -57.612 LINE SMOOTH",
"66.068 -57.642 OFFCURVE",
"66.028 -57.613 OFFCURVE",
"66.07 -57.644 CURVE SMOOTH",
"66.111 -57.674 OFFCURVE",
"66.071 -57.645 OFFCURVE",
"66.113 -57.675 CURVE SMOOTH",
"71.148 -61.324 LINE SMOOTH",
"88.485 -73.884 OFFCURVE",
"109.267 -81.2 OFFCURVE",
"131.6 -81.2 CURVE SMOOTH",
"155.183 -81.2 OFFCURVE",
"177.015 -73.059 OFFCURVE",
"195.03 -59.088 CURVE SMOOTH",
"253.382 -13.744 LINE SMOOTH",
"281.385 8.022 OFFCURVE",
"299.666 43.806 OFFCURVE",
"299.666 84.233 CURVE SMOOTH",
"299.666 125.997 OFFCURVE",
"280.156 162.803 OFFCURVE",
"250.575 184.322 CURVE SMOOTH",
"250.533 184.352 LINE",
"250.489 184.385 LINE SMOOTH",
"250.447 184.415 OFFCURVE",
"250.488 184.385 OFFCURVE",
"250.446 184.416 CURVE SMOOTH",
"250.404 184.446 OFFCURVE",
"250.444 184.417 OFFCURVE",
"250.403 184.446 CURVE SMOOTH",
"245.368 188.097 LINE SMOOTH",
"228.03 200.656 OFFCURVE",
"207.249 207.973 OFFCURVE",
"184.916 207.973 CURVE SMOOTH",
"161.333 207.973 OFFCURVE",
"139.502 199.831 OFFCURVE",
"121.485 185.86 CURVE SMOOTH",
"63.135 140.517 LINE SMOOTH",
"35.132 118.75 OFFCURVE",
"16.85 82.967 OFFCURVE",
"16.85 42.539 CURVE",
"16.85 42.539 LINE"
);
},
{
closed = 1;
nodes = (
"80.236 110.324 OFFCURVE",
"87.927 134.584 OFFCURVE",
"100.768 154.166 CURVE",
"110.596 157.311 OFFCURVE",
"120.896 158.98 OFFCURVE",
"131.6 158.98 CURVE SMOOTH",
"152.823 158.98 OFFCURVE",
"172.791 152.295 OFFCURVE",
"189.523 140.881 CURVE",
"217.821 119.119 OFFCURVE",
"236.279 83.202 OFFCURVE",
"236.279 42.539 CURVE SMOOTH",
"236.279 16.448 OFFCURVE",
"228.59 -7.812 OFFCURVE",
"215.749 -27.394 CURVE",
"205.921 -30.539 OFFCURVE",
"195.62 -32.207 OFFCURVE",
"184.916 -32.207 CURVE SMOOTH",
"163.692 -32.207 OFFCURVE",
"143.725 -25.522 OFFCURVE",
"126.993 -14.108 CURVE",
"98.694 7.652 OFFCURVE",
"80.236 43.569 OFFCURVE",
"80.236 84.233 CURVE",
"80.236 84.233 LINE"
);
},
{
closed = 1;
nodes = (
"19 340.376 OFFCURVE",
"38.51 303.57 OFFCURVE",
"68.091 282.052 CURVE SMOOTH",
"68.133 282.022 LINE",
"68.177 281.989 LINE SMOOTH",
"68.219 281.959 OFFCURVE",
"68.178 281.988 OFFCURVE",
"68.22 281.957 CURVE SMOOTH",
"68.262 281.928 OFFCURVE",
"68.222 281.956 OFFCURVE",
"68.263 281.927 CURVE SMOOTH",
"73.299 278.278 LINE SMOOTH",
"90.636 265.717 OFFCURVE",
"111.417 258.4 OFFCURVE",
"133.75 258.4 CURVE SMOOTH",
"157.332 258.4 OFFCURVE",
"179.164 266.542 OFFCURVE",
"197.181 280.513 CURVE SMOOTH",
"255.531 325.856 LINE SMOOTH",
"283.534 347.624 OFFCURVE",
"301.816 383.406 OFFCURVE",
"301.816 423.834 CURVE SMOOTH",
"301.816 465.599 OFFCURVE",
"282.307 502.404 OFFCURVE",
"252.726 523.923 CURVE SMOOTH",
"252.684 523.953 LINE",
"252.639 523.985 LINE SMOOTH",
"252.598 524.016 OFFCURVE",
"252.638 523.986 OFFCURVE",
"252.596 524.017 CURVE SMOOTH",
"252.555 524.048 OFFCURVE",
"252.595 524.018 OFFCURVE",
"252.553 524.049 CURVE SMOOTH",
"247.518 527.697 LINE SMOOTH",
"230.181 540.257 OFFCURVE",
"209.399 547.573 OFFCURVE",
"187.066 547.573 CURVE SMOOTH",
"163.482 547.573 OFFCURVE",
"141.651 539.432 OFFCURVE",
"123.636 525.461 CURVE SMOOTH",
"65.284 480.117 LINE SMOOTH",
"37.282 458.351 OFFCURVE",
"19 422.568 OFFCURVE",
"19 382.139 CURVE",
"19 382.139 LINE"
);
},
{
closed = 1;
nodes = (
"82.387 449.925 OFFCURVE",
"90.076 474.186 OFFCURVE",
"102.917 493.768 CURVE",
"112.745 496.912 OFFCURVE",
"123.046 498.58 OFFCURVE",
"133.75 498.58 CURVE SMOOTH",
"154.974 498.58 OFFCURVE",
"174.941 491.896 OFFCURVE",
"191.674 480.481 CURVE",
"219.971 458.722 OFFCURVE",
"238.43 422.804 OFFCURVE",
"238.43 382.139 CURVE SMOOTH",
"238.43 356.049 OFFCURVE",
"230.74 331.789 OFFCURVE",
"217.898 312.207 CURVE",
"208.071 309.062 OFFCURVE",
"197.769 307.394 OFFCURVE",
"187.065 307.394 CURVE SMOOTH",
"165.843 307.394 OFFCURVE",
"145.874 314.078 OFFCURVE",
"129.144 325.492 CURVE",
"100.845 347.254 OFFCURVE",
"82.387 383.171 OFFCURVE",
"82.387 423.834 CURVE",
"82.387 423.834 LINE"
);
},
{
closed = 1;
nodes = (
"12.707 203.297 OFFCURVE",
"16.393 200.703 OFFCURVE",
"20.149 201.355 CURVE SMOOTH",
"309.949 251.756 LINE SMOOTH",
"313.706 252.409 OFFCURVE",
"316.3 256.096 OFFCURVE",
"315.646 259.853 CURVE SMOOTH",
"314.993 263.608 OFFCURVE",
"311.308 266.202 OFFCURVE",
"307.55 265.55 CURVE SMOOTH",
"17.75 215.149 LINE SMOOTH",
"13.994 214.496 OFFCURVE",
"11.4 210.811 OFFCURVE",
"12.053 207.053 CURVE",
"12.053 207.053 LINE"
);
}
);
width = 328;
}
);
leftKerningGroup = M.ss02;
unicode = 0025;
},
{
glyphname = ampersand;
layers = (
{
layerId = master01;
paths = (
{
closed = 1;
nodes = (
"141.322 0 LINE",
"141.322 0 OFFCURVE",
"141.743 83.19 OFFCURVE",
"156.822 157.109 CURVE SMOOTH",
"179.035 266 OFFCURVE",
"209.33 327.048 OFFCURVE",
"209.33 327.048 CURVE",
"193.399 321.336 OFFCURVE",
"171.761 312.942 OFFCURVE",
"134.394 318.038 CURVE SMOOTH",
"123.726 319.492 OFFCURVE",
"112.529 320.884 OFFCURVE",
"101.075 320.998 CURVE",
"99.81 304.336 OFFCURVE",
"102.371 288.021 OFFCURVE",
"106.246 274.891 CURVE",
"21.393 190.038 LINE",
"14.322 197.108 LINE",
"5.369 227.45 OFFCURVE",
"3.344 273.131 OFFCURVE",
"39.747 309.538 CURVE SMOOTH",
"124.6 394.391 LINE SMOOTH",
"125.074 394.863 OFFCURVE",
"125.033 394.822 OFFCURVE",
"125.175 394.962 CURVE SMOOTH",
"148.092 417.569 OFFCURVE",
"182.941 413.948 OFFCURVE",
"212.175 409.962 CURVE SMOOTH",
"267.175 402.462 OFFCURVE",
"329.175 423.962 OFFCURVE",
"329.175 423.962 CURVE",
"336.246 416.891 LINE",
"325 374.5 OFFCURVE",
"289.151 267.563 OFFCURVE",
"273.035 154.5 CURVE SMOOTH",
"262.202 78.5 OFFCURVE",
"263.246 0 OFFCURVE",
"263.246 0 CURVE",
"263.246 0 LINE"
);
}
);
width = 325;
}
);
leftKerningGroup = a.alt;
unicode = 0026;
},
{
glyphname = quotesingle;
layers = (
{
layerId = master01;
paths = (
{
closed = 1;
nodes = (
"123 613 LINE",
"123 452.333 LINE",
"14 412 LINE",
"14 613 LINE"
);
}
);
width = 146;
}
);
leftKerningGroup = quotedbl;
unicode = 0027;
},
{
glyphname = parenleft;
layers = (
{
layerId = master01;
paths = (
{
closed = 1;
nodes = (
"86.789 57.645 LINE SMOOTH",
"109.202 25.655 OFFCURVE",
"136.212 -3.071 OFFCURVE",
"167.102 -27.039 CURVE",
"232.634 18.848 LINE",
"226.898 27.039 LINE",
"197.302 50.002 OFFCURVE",
"171.229 77.4 OFFCURVE",
"149.408 107.744 CURVE SMOOTH",
"102.939 175.874 OFFCURVE",
"77.089 258.302 OFFCURVE",
"78.634 340.848 CURVE SMOOTH",
"80.722 452.339 OFFCURVE",
"132.199 562.009 OFFCURVE",
"216.634 634.848 CURVE",
"210.898 643.039 LINE",
"145.366 597.153 LINE",
"60.932 524.314 OFFCURVE",
"9.454 414.644 OFFCURVE",
"7.366 303.152 CURVE SMOOTH",
"5.793 219.111 OFFCURVE",
"32.603 135.224 OFFCURVE",
"80.678 66.373 CURVE SMOOTH",
"80.749 66.27 OFFCURVE",
"80.679 66.37 OFFCURVE",
"80.751 66.268 CURVE SMOOTH",
"86.717 57.746 LINE"
);
}
);
width = 248;
}
);
leftKerningGroup = E.ss02;
unicode = 0028;
},
{
glyphname = parenright;
layers = (
{
layerId = master01;
paths = (
{
closed = 1;
nodes = (
"153.145 558.355 LINE SMOOTH",
"130.732 590.345 OFFCURVE",
"103.723 619.071 OFFCURVE",
"72.833 643.039 CURVE",
"7.301 597.152 LINE",
"13.036 588.961 LINE",
"42.633 565.998 OFFCURVE",
"68.706 538.6 OFFCURVE",
"90.526 508.256 CURVE SMOOTH",
"136.996 440.126 OFFCURVE",
"162.846 357.698 OFFCURVE",
"161.301 275.152 CURVE SMOOTH",
"159.213 163.661 OFFCURVE",
"107.735 53.991 OFFCURVE",
"23.301 -18.848 CURVE",
"29.036 -27.039 LINE",
"94.568 18.847 LINE",
"179.003 91.686 OFFCURVE",
"230.48 201.356 OFFCURVE",
"232.568 312.848 CURVE SMOOTH",
"234.142 396.889 OFFCURVE",
"207.332 480.776 OFFCURVE",
"159.257 549.627 CURVE SMOOTH",
"159.186 549.73 OFFCURVE",
"159.256 549.63 OFFCURVE",
"159.184 549.732 CURVE SMOOTH",
"153.218 558.254 LINE"
);
}
);
width = 248;
}
);
leftKerningGroup = D;
unicode = 0029;
},
{
glyphname = asterisk;
layers = (
{
layerId = master01;
paths = (
{
closed = 1;
nodes = (
"62.905 755.689 OFFCURVE",
"62.905 742.811 OFFCURVE",
"70.607 735.107 CURVE SMOOTH",
"164.715 641 LINE",
"42 641 LINE SMOOTH",
"31.106 641 OFFCURVE",
"22 631.894 OFFCURVE",
"22 621 CURVE SMOOTH",
"22 610.106 OFFCURVE",
"31.106 601 OFFCURVE",
"42 601 CURVE SMOOTH",
"164.715 601 LINE",
"70.607 506.893 LINE SMOOTH",
"62.905 499.189 OFFCURVE",
"62.905 486.311 OFFCURVE",
"70.607 478.607 CURVE SMOOTH",
"78.311 470.905 OFFCURVE",
"91.189 470.905 OFFCURVE",
"98.893 478.607 CURVE SMOOTH",
"193 572.715 LINE",
"193 450 LINE SMOOTH",
"193 439.106 OFFCURVE",
"202.106 430 OFFCURVE",
"213 430 CURVE SMOOTH",
"223.894 430 OFFCURVE",
"233 439.106 OFFCURVE",
"233 450 CURVE SMOOTH",
"233 572.715 LINE",
"327.107 478.607 LINE SMOOTH",
"334.811 470.905 OFFCURVE",
"347.689 470.905 OFFCURVE",
"355.393 478.607 CURVE SMOOTH",
"363.095 486.311 OFFCURVE",
"363.095 499.189 OFFCURVE",
"355.393 506.893 CURVE SMOOTH",
"261.285 601 LINE",
"384 601 LINE SMOOTH",
"394.894 601 OFFCURVE",
"404 610.106 OFFCURVE",
"404 621 CURVE SMOOTH",
"404 631.894 OFFCURVE",
"394.894 641 OFFCURVE",
"384 641 CURVE SMOOTH",
"261.285 641 LINE",
"355.393 735.107 LINE SMOOTH",
"363.095 742.811 OFFCURVE",
"363.095 755.689 OFFCURVE",
"355.393 763.393 CURVE SMOOTH",
"347.689 771.095 OFFCURVE",
"334.811 771.095 OFFCURVE",
"327.107 763.393 CURVE SMOOTH",
"233 669.285 LINE",
"233 792 LINE SMOOTH",
"233 802.894 OFFCURVE",
"223.894 812 OFFCURVE",
"213 812 CURVE SMOOTH",
"202.106 812 OFFCURVE",
"193 802.894 OFFCURVE",
"193 792 CURVE SMOOTH",
"193 669.285 LINE",
"98.893 763.393 LINE SMOOTH",
"91.189 771.095 OFFCURVE",
"78.311 771.095 OFFCURVE",
"70.607 763.393 CURVE",
"70.607 763.393 LINE"
);
}
);
width = 428;
}
);
unicode = 002A;
},
{
glyphname = plus;
layers = (
{
layerId = master01;
paths = (
{
closed = 1;
nodes = (
"25.102 196.961 LINE",
"212.366 196.961 LINE",
"212.366 135.358 OFFCURVE",
"212.366 73.755 OFFCURVE",
"212.366 12.152 CURVE",
"218.102 3.961 LINE",
"283.634 49.847 LINE",
"283.634 196.961 LINE",
"411.102 196.961 LINE",
"476.634 242.848 LINE",
"470.898 251.039 LINE",
"283.634 251.039 LINE",
"283.634 435.847 LINE",
"277.897 444.039 LINE",
"212.365 398.152 LINE",
"212.365 349.115 OFFCURVE",
"212.366 300.077 OFFCURVE",
"212.366 251.039 CURVE",
"84.898 251.039 LINE",
"19.366 205.153 LINE"
);
}
);
width = 492;
}
);
leftKerningGroup = exclam;
unicode = 002B;
},
{
glyphname = comma;
layers = (
{
layerId = master01;
paths = (
{
closed = 1;
nodes = (
"196.195 79.21 LINE",
"55.233 -68.681 LINE",
"48.162 -61.609 LINE",
"103 0 LINE",
"19.271 58.929 LINE",
"104.124 143.781 LINE"
);
}
);
width = 214;
}
);
leftKerningGroup = c;
unicode = 002C;
},
{
glyphname = hyphen;
layers = (
{
layerId = master01;
paths = (
{
closed = 1;
nodes = (
"25.102 196.961 LINE",
"221.102 196.961 LINE",
"286.634 242.848 LINE",
"280.898 251.039 LINE",
"84.898 251.039 LINE",
"19.366 205.153 LINE"
);
}
);
width = 302;
}
);
leftKerningGroup = c_e;
unicode = 002D;
},
{
glyphname = period;
layers = (
{
layerId = master01;
paths = (
{
closed = 1;
nodes = (
"86 141.421 LINE",
"15.29 70.711 LINE",
"86 0 LINE",
"156.711 70.711 LINE"
);
}
);
width = 172;
}
);
leftKerningGroup = c;
unicode = 002E;
},
{
glyphname = slash;
layers = (
{
layerId = master01;
paths = (
{
closed = 1;
nodes = (
"223.181 588.252 LINE",
"7.181 -24.748 LINE",
"14.252 -31.819 LINE",
"70.82 24.749 LINE",
"286.82 637.749 LINE",
"279.749 644.82 LINE"
);
}
);
width = 296;
}
);
leftKerningGroup = M;
unicode = 002F;
},
{
glyphname = zero;
layers = (
{
layerId = master01;
paths = (
{
closed = 1;
nodes = (
"18 109.422 OFFCURVE",
"45.871 39.355 OFFCURVE",
"88.13 -1.61 CURVE SMOOTH",
"88.189 -1.668 LINE",
"88.253 -1.729 LINE SMOOTH",
"88.313 -1.787 OFFCURVE",
"88.255 -1.731 OFFCURVE",
"88.314 -1.789 CURVE SMOOTH",
"88.374 -1.847 OFFCURVE",
"88.316 -1.791 OFFCURVE",
"88.376 -1.849 CURVE SMOOTH",
"95.569 -8.795 LINE SMOOTH",
"120.337 -32.706 OFFCURVE",
"150.024 -46.634 OFFCURVE",
"181.929 -46.634 CURVE SMOOTH",
"215.618 -46.634 OFFCURVE",
"246.807 -31.135 OFFCURVE",
"272.544 -4.539 CURVE SMOOTH",
"355.902 81.782 LINE SMOOTH",
"395.906 123.219 OFFCURVE",
"422.023 191.338 OFFCURVE",
"422.023 268.302 CURVE SMOOTH",
"422.023 347.807 OFFCURVE",
"394.152 417.874 OFFCURVE",
"351.894 458.839 CURVE SMOOTH",
"351.834 458.896 LINE",
"351.771 458.958 LINE SMOOTH",
"351.711 459.017 OFFCURVE",
"351.769 458.96 OFFCURVE",
"351.709 459.018 CURVE SMOOTH",
"351.649 459.076 OFFCURVE",
"351.707 459.02 OFFCURVE",
"351.647 459.077 CURVE SMOOTH",
"344.454 466.024 LINE SMOOTH",
"319.687 489.935 OFFCURVE",
"290 503.862 OFFCURVE",
"258.095 503.862 CURVE SMOOTH",
"224.404 503.862 OFFCURVE",
"193.217 488.363 OFFCURVE",
"167.479 461.768 CURVE SMOOTH",
"84.121 375.447 LINE SMOOTH",
"44.117 334.01 OFFCURVE",
"18 265.891 OFFCURVE",
"18 188.927 CURVE SMOOTH",
"18 188.927 LINE SMOOTH"
);
},
{
closed = 1;
nodes = (
"108.553 317.97 OFFCURVE",
"119.538 364.154 OFFCURVE",
"137.882 401.432 CURVE",
"151.922 407.419 OFFCURVE",
"166.638 410.595 OFFCURVE",
"181.929 410.595 CURVE SMOOTH",
"212.248 410.595 OFFCURVE",
"240.773 397.869 OFFCURVE",
"264.677 376.141 CURVE",
"305.102 334.715 OFFCURVE",
"331.471 266.339 OFFCURVE",
"331.471 188.927 CURVE SMOOTH",
"331.471 139.259 OFFCURVE",
"320.486 93.075 OFFCURVE",
"302.142 55.797 CURVE",
"288.102 49.81 OFFCURVE",
"273.386 46.634 OFFCURVE",
"258.094 46.634 CURVE SMOOTH",
"227.775 46.634 OFFCURVE",
"199.249 59.359 OFFCURVE",
"175.348 81.087 CURVE",
"134.921 122.515 OFFCURVE",
"108.553 190.89 OFFCURVE",
"108.553 268.302 CURVE",
"108.553 268.302 LINE"
);
}
);
width = 440;
}
);
leftKerningGroup = c_e;
unicode = 0030;
},
{
glyphname = one;
layers = (
{
layerId = master01;
paths = (
{
closed = 1;
nodes = (
"19 420.859 LINE",
"19 -38.891 LINE",
"26.071 -45.962 LINE",
"110.924 38.891 LINE",
"110.924 498.641 LINE",
"103.853 505.712 LINE"
);
}
);
width = 130;
}
);
leftKerningGroup = i;
unicode = 0031;
},
{
glyphname = two;
layers = (
{
layerId = master01;
paths = (
{
closed = 1;
nodes = (
"141.062 269.891 LINE",
"124.897 290.074 OFFCURVE",
"114.399 314.749 OFFCURVE",
"111.062 340.391 CURVE SMOOTH",
"108.124 362.963 OFFCURVE",
"111.126 386.695 OFFCURVE",
"118.729 407.547 CURVE",
"137.227 414.306 OFFCURVE",
"156.719 417.296 OFFCURVE",
"176.209 416.038 CURVE SMOOTH",
"207.768 414 OFFCURVE",
"238.679 400.686 OFFCURVE",
"261.78 379.27 CURVE",
"284.465 354.799 OFFCURVE",
"297.673 321.854 OFFCURVE",
"298.89 288.482 CURVE SMOOTH",
"300.134 254.308 OFFCURVE",
"289.048 220.337 OFFCURVE",
"270.749 191.448 CURVE SMOOTH",
"267.12 185.718 OFFCURVE",
"262.857 179.726 OFFCURVE",
"259.093 174.807 CURVE",
"118.99 45.962 LINE",
"34.138 -38.891 LINE",
"41.209 -45.962 LINE",
"320.208 -45.962 LINE",
"405.062 38.891 LINE",
"397.99 45.962 LINE",
"141.165 45.962 LINE",
"209.209 108.538 LINE SMOOTH",
"218.303 116.901 OFFCURVE",
"226.966 124.937 OFFCURVE",
"236.089 134.023 CURVE",
"236.089 134.023 OFFCURVE",
"236.427 134.361 OFFCURVE",
"236.698 134.632 CURVE SMOOTH",
"321.551 219.485 LINE SMOOTH",
"336.843 234.783 OFFCURVE",
"351.121 250.992 OFFCURVE",
"362.673 269.229 CURVE SMOOTH",
"380.972 298.118 OFFCURVE",
"392.058 332.09 OFFCURVE",
"390.813 366.264 CURVE SMOOTH",
"389.567 400.439 OFFCURVE",
"375.758 434.145 OFFCURVE",
"352.057 458.797 CURVE SMOOTH",
"351.532 459.342 OFFCURVE",
"351.004 459.883 OFFCURVE",
"350.47 460.419 CURVE SMOOTH",
"350.411 460.478 OFFCURVE",
"350.468 460.421 OFFCURVE",
"350.408 460.48 CURVE SMOOTH",
"350.342 460.547 LINE SMOOTH",
"350.283 460.606 OFFCURVE",
"350.337 460.553 OFFCURVE",
"350.277 460.611 CURVE SMOOTH",
"350.219 460.671 OFFCURVE",
"350.272 460.617 OFFCURVE",
"350.214 460.676 CURVE SMOOTH",
"343.143 467.747 LINE SMOOTH",
"319.582 491.293 OFFCURVE",
"287.241 505.815 OFFCURVE",
"253.99 507.962 CURVE SMOOTH",
"213.801 510.557 OFFCURVE",
"172.862 494.871 OFFCURVE",
"144.397 466.41 CURVE SMOOTH",
"59.545 381.558 LINE SMOOTH",
"58.451 380.465 OFFCURVE",
"57.377 379.353 OFFCURVE",
"56.321 378.223 CURVE SMOOTH",
"27.777 347.658 OFFCURVE",
"13.74 304.08 OFFCURVE",
"19.138 262.609 CURVE SMOOTH",
"22.476 236.967 OFFCURVE",
"32.974 212.293 OFFCURVE",
"49.138 192.109 CURVE",
"56.209 185.038 LINE"
);
}
);
width = 423;
}
);
leftKerningGroup = G.alt;
unicode = 0032;
},
{
glyphname = three;
layers = (
{
layerId = master01;
paths = (
{
closed = 1;
nodes = (
"42.783 -0.554 LINE",
"42.843 -0.612 LINE SMOOTH",
"59.578 -17.335 OFFCURVE",
"80.246 -30.357 OFFCURVE",
"102.868 -38.182 CURVE SMOOTH",
"134.372 -49.077 OFFCURVE",
"169.497 -49.833 OFFCURVE",
"201.46 -40.285 CURVE SMOOTH",
"226.508 -32.804 OFFCURVE",
"249.507 -19.022 OFFCURVE",
"267.767 -0.775 CURVE SMOOTH",
"352.62 84.078 LINE SMOOTH",
"357.662 89.116 OFFCURVE",
"362.342 94.495 OFFCURVE",
"366.604 100.176 CURVE SMOOTH",
"386.304 126.429 OFFCURVE",
"396.956 158.997 OFFCURVE",
"396.364 191.482 CURVE SMOOTH",
"395.685 228.633 OFFCURVE",
"380.107 265.371 OFFCURVE",
"353.526 292.078 CURVE SMOOTH",
"346.192 299.412 LINE SMOOTH",
"346.04 299.565 OFFCURVE",
"345.887 299.718 OFFCURVE",
"345.732 299.87 CURVE SMOOTH",
"321.372 324 OFFCURVE",
"288.203 339.579 OFFCURVE",
"253.601 343.068 CURVE SMOOTH",
"240.964 344.343 OFFCURVE",
"228.084 343.992 OFFCURVE",
"215.596 342.133 CURVE",
"302.271 413.788 LINE",
"387.124 498.641 LINE",
"380.053 505.712 LINE",
"123.972 505.712 LINE",
"39.119 420.859 LINE",
"46.19 413.788 LINE",
"268.859 413.788 LINE",
"154.333 319.108 LINE",
"69.48 234.256 LINE",
"76.551 227.185 LINE",
"105.449 246.004 OFFCURVE",
"141.215 254.634 OFFCURVE",
"175.818 251.144 CURVE SMOOTH",
"208.91 247.808 OFFCURVE",
"240.97 233.214 OFFCURVE",
"264.834 210.942 CURVE",
"289.522 184.449 OFFCURVE",
"303.788 149.357 OFFCURVE",
"304.44 113.7 CURVE SMOOTH",
"304.793 94.322 OFFCURVE",
"300.944 74.38 OFFCURVE",
"293.971 56.855 CURVE",
"288.895 54.772 OFFCURVE",
"284.27 53.141 OFFCURVE",
"279.242 51.639 CURVE SMOOTH",
"247.278 42.091 OFFCURVE",
"212.154 42.847 OFFCURVE",
"180.65 53.742 CURVE SMOOTH",
"159.638 61.009 OFFCURVE",
"140.119 72.921 OFFCURVE",
"124.18 87.87 CURVE",
"118.91 93.495 OFFCURVE",
"114.223 99.306 OFFCURVE",
"109.924 105.555 CURVE",
"102.853 112.626 LINE",
"18 27.773 LINE",
"23.174 20.252 OFFCURVE",
"29.056 13.198 OFFCURVE",
"35.53 6.7 CURVE SMOOTH",
"35.59 6.641 LINE",
"35.651 6.579 LINE",
"35.711 6.52 LINE"
);
}
);
width = 414;
}
);
leftKerningGroup = m.fina;
unicode = 0033;
},
{
glyphname = four;
layers = (
{
layerId = master01;
paths = (
{
closed = 1;
nodes = (
"165 420.859 LINE",
"167.787 369.033 OFFCURVE",
"154.311 316.309 OFFCURVE",
"127.331 272.255 CURVE",
"119.369 267.353 OFFCURVE",
"111.253 262.942 OFFCURVE",
"102.854 258.962 CURVE",
"18 174.109 LINE",
"25.071 167.038 LINE",
"267 167.038 LINE",
"267 -38.891 LINE",
"274.07 -45.962 LINE",
"358.924 38.891 LINE",
"358.924 190.391 LINE",
"420.424 251.892 LINE",
"413.354 258.962 LINE",
"358.924 258.962 LINE",
"358.924 424.391 LINE",
"351.853 431.462 LINE",
"267 346.609 LINE",
"267 258.962 LINE",
"138.123 258.962 LINE",
"181.821 302.66 LINE SMOOTH",
"195.498 316.325 OFFCURVE",
"207.653 331.509 OFFCURVE",
"217.924 347.891 CURVE SMOOTH",
"245.934 392.564 OFFCURVE",
"259.755 445.989 OFFCURVE",
"256.924 498.641 CURVE",
"249.853 505.712 LINE"
);
}
);
width = 438;
}
);
leftKerningGroup = four;
unicode = 0034;
},
{
glyphname = five;
layers = (
{
layerId = master01;
paths = (
{
closed = 1;
nodes = (
"331.922 315.562 LINE",
"331.855 315.628 LINE",
"331.797 315.687 LINE SMOOTH",
"305.529 341.836 OFFCURVE",
"270.371 359.043 OFFCURVE",
"233.53 363.484 CURVE SMOOTH",
"193.031 368.368 OFFCURVE",
"150.753 357.638 OFFCURVE",
"117.401 334.71 CURVE",
"123.982 413.788 LINE",
"257.271 413.788 LINE",
"342.123 498.641 LINE",
"335.052 505.712 LINE",
"123.973 505.712 LINE",
"39.12 420.858 LINE",
"24.39 243.859 LINE",
"31.461 236.788 LINE",
"66.194 264.035 OFFCURVE",
"111.921 276.846 OFFCURVE",
"155.749 271.561 CURVE SMOOTH",
"191.037 267.306 OFFCURVE",
"224.861 251.288 OFFCURVE",
"250.682 226.988 CURVE",
"254.209 223.236 OFFCURVE",
"257.688 219.165 OFFCURVE",
"260.88 215.019 CURVE SMOOTH",
"289.54 177.789 OFFCURVE",
"301.08 127.667 OFFCURVE",
"290.64 81.859 CURVE SMOOTH",
"288.804 73.806 OFFCURVE",
"286.214 65.636 OFFCURVE",
"283.189 58.193 CURVE",
"274.911 54.874 OFFCURVE",
"265.757 52.089 OFFCURVE",
"256.729 50.276 CURVE SMOOTH",
"227.994 44.509 OFFCURVE",
"197.587 47.339 OFFCURVE",
"170.423 58.34 CURVE SMOOTH",
"153.281 65.282 OFFCURVE",
"137.432 75.494 OFFCURVE",
"123.957 88.112 CURVE",
"118.902 93.516 OFFCURVE",
"114.147 99.405 OFFCURVE",
"109.924 105.554 CURVE",
"102.853 112.625 LINE",
"18 27.771 LINE",
"23.168 20.25 OFFCURVE",
"29.035 13.215 OFFCURVE",
"35.486 6.762 CURVE SMOOTH",
"42.558 -0.31 LINE SMOOTH",
"42.616 -0.368 OFFCURVE",
"42.559 -0.311 OFFCURVE",
"42.617 -0.37 CURVE SMOOTH",
"42.677 -0.429 OFFCURVE",
"42.618 -0.371 OFFCURVE",
"42.678 -0.43 CURVE SMOOTH",
"42.739 -0.491 LINE",
"42.798 -0.55 LINE SMOOTH",
"57.014 -14.708 OFFCURVE",
"74.042 -26.051 OFFCURVE",
"92.642 -33.584 CURVE SMOOTH",
"119.805 -44.585 OFFCURVE",
"150.213 -47.415 OFFCURVE",
"178.946 -41.647 CURVE SMOOTH",
"207.68 -35.88 OFFCURVE",
"234.625 -21.542 OFFCURVE",
"255.521 -0.996 CURVE SMOOTH",
"255.852 -0.672 OFFCURVE",
"256.18 -0.347 OFFCURVE",
"256.506 -0.02 CURVE SMOOTH",
"341.359 84.833 LINE SMOOTH",
"361.737 105.245 OFFCURVE",
"376.153 131.518 OFFCURVE",
"382.563 159.641 CURVE SMOOTH",
"393.004 205.449 OFFCURVE",
"381.464 255.57 OFFCURVE",
"352.804 292.8 CURVE SMOOTH",
"348.602 298.259 OFFCURVE",
"344.045 303.435 OFFCURVE",
"339.182 308.303 CURVE SMOOTH",
"332.048 315.437 LINE"
);
}
);
width = 404;
}
);
leftKerningGroup = at;
unicode = 0035;
},
{
glyphname = six;
layers = (
{
layerId = master01;
paths = (
{
closed = 1;
nodes = (
"114.895 257.434 OFFCURVE",
"115.492 259.447 OFFCURVE",
"116.297 261.938 CURVE",
"138.867 269.154 OFFCURVE",
"163.818 270.648 OFFCURVE",
"187.245 265.663 CURVE SMOOTH",
"214.029 259.963 OFFCURVE",
"238.852 246.28 OFFCURVE",
"258.813 227.519 CURVE",
"263.22 222.827 OFFCURVE",
"267.491 217.697 OFFCURVE",
"271.34 212.438 CURVE SMOOTH",
"293.336 182.368 OFFCURVE",
"305 144.987 OFFCURVE",
"304.675 107.734 CURVE SMOOTH",
"304.499 87.652 OFFCURVE",
"300.769 67.416 OFFCURVE",
"293.626 48.788 CURVE",
"290.818 47.804 OFFCURVE",
"287.575 46.784 OFFCURVE",
"284.527 45.962 CURVE SMOOTH",
"260.755 39.551 OFFCURVE",
"235.177 40.118 OFFCURVE",
"211.652 47.382 CURVE SMOOTH",
"191.234 53.687 OFFCURVE",
"172.547 64.874 OFFCURVE",
"156.878 79.515 CURVE",
"123.422 115.3 OFFCURVE",
"108.723 166.413 OFFCURVE",
"110.099 215.516 CURVE SMOOTH",
"110.287 222.263 OFFCURVE",
"110.748 228.987 OFFCURVE",
"111.466 235.68 CURVE SMOOTH",
"112.19 242.434 OFFCURVE",
"113.014 248.274 OFFCURVE",
"114.247 254.952 CURVE",
"114.247 254.952 LINE"
);
},
{
closed = 1;
nodes = (
"68.448 -1.88 OFFCURVE",
"75.463 -8.894 OFFCURVE",
"75.522 -8.953 CURVE SMOOTH",
"75.581 -9.012 OFFCURVE",
"75.523 -8.955 OFFCURVE",
"75.583 -9.014 CURVE SMOOTH",
"75.647 -9.077 LINE",
"75.705 -9.136 LINE SMOOTH",
"91.951 -25.318 OFFCURVE",
"111.968 -37.778 OFFCURVE",
"133.87 -44.542 CURVE SMOOTH",
"157.396 -51.806 OFFCURVE",
"182.974 -52.373 OFFCURVE",
"206.746 -45.962 CURVE SMOOTH",
"229.565 -39.808 OFFCURVE",
"250.433 -27.235 OFFCURVE",
"267.164 -10.511 CURVE SMOOTH",
"352.017 74.342 LINE SMOOTH",
"352.144 74.469 OFFCURVE",
"352.301 74.627 OFFCURVE",
"352.301 74.627 CURVE",
"358.454 80.824 OFFCURVE",
"363.808 87.282 OFFCURVE",
"368.62 94.267 CURVE SMOOTH",
"386.94 120.851 OFFCURVE",
"396.316 153.23 OFFCURVE",
"396.599 185.516 CURVE SMOOTH",
"396.924 222.769 OFFCURVE",
"385.26 260.15 OFFCURVE",
"363.264 290.219 CURVE SMOOTH",
"358.437 296.817 OFFCURVE",
"353.092 303.05 OFFCURVE",
"347.305 308.842 CURVE SMOOTH",
"340.049 316.098 LINE",
"339.984 316.162 LINE",
"339.926 316.221 LINE SMOOTH",
"319.391 336.662 OFFCURVE",
"293.328 351.564 OFFCURVE",
"265.027 357.587 CURVE SMOOTH",
"225.266 366.049 OFFCURVE",
"181.733 356.077 OFFCURVE",
"150.382 330.198 CURVE SMOOTH",
"147.3 327.654 OFFCURVE",
"144.346 324.963 OFFCURVE",
"141.525 322.139 CURVE SMOOTH",
"130.341 310.954 LINE",
"139.873 335.121 OFFCURVE",
"152.344 358.247 OFFCURVE",
"166.874 379.642 CURVE SMOOTH",
"169.404 383.367 OFFCURVE",
"171.813 386.785 OFFCURVE",
"174.608 390.608 CURVE",
"185.514 398.641 OFFCURVE",
"197.617 406.661 OFFCURVE",
"209.746 413.788 CURVE",
"294.599 498.641 LINE",
"287.527 505.712 LINE",
"258.007 488.365 OFFCURVE",
"230.662 467.262 OFFCURVE",
"206.457 443.046 CURVE SMOOTH",
"121.605 358.193 LINE SMOOTH",
"104.34 340.921 OFFCURVE",
"88.672 322.065 OFFCURVE",
"74.95 301.86 CURVE SMOOTH",
"55.033 272.533 OFFCURVE",
"39.055 240.13 OFFCURVE",
"29.165 206.138 CURVE SMOOTH",
"26.35 196.46 OFFCURVE",
"24.109 187.108 OFFCURVE",
"22.331 177.207 CURVE",
"20.549 170.631 OFFCURVE",
"19.485 164.704 OFFCURVE",
"18.748 157.935 CURVE SMOOTH",
"18.018 151.234 OFFCURVE",
"17.814 144.507 OFFCURVE",
"18.173 137.764 CURVE SMOOTH",
"18.175 137.733 LINE",
"16.796 88.511 OFFCURVE",
"31.409 37.522 OFFCURVE",
"65.085 1.594 CURVE SMOOTH",
"66.168 0.438 OFFCURVE",
"67.27 -0.7 OFFCURVE",
"68.39 -1.82 CURVE SMOOTH",
"68.448 -1.88 LINE"
);
}
);
width = 415;
}
);
leftKerningGroup = a.alt;
unicode = 0036;
},
{
glyphname = seven;
layers = (
{
layerId = master01;
paths = (
{
closed = 1;
nodes = (
"25.071 413.788 LINE",
"321.197 413.788 LINE",
"272.828 333.892 OFFCURVE",
"230.666 250.545 OFFCURVE",
"195 164.359 CURVE SMOOTH",
"167.564 98.062 OFFCURVE",
"144.011 30.155 OFFCURVE",
"124.5 -38.891 CURVE",
"131.571 -45.962 LINE",
"216.424 38.891 LINE",
"235.935 107.938 OFFCURVE",
"259.488 175.843 OFFCURVE",
"286.924 242.141 CURVE SMOOTH",
"323.643 330.871 OFFCURVE",
"367.32 416.721 OFFCURVE",
"417.424 498.641 CURVE",
"410.353 505.712 LINE",
"102.853 505.712 LINE",
"18 420.859 LINE"
);
}
);
width = 435;
}
);
unicode = 0037;
},
{
glyphname = eight;
layers = (
{
layerId = master01;
paths = (
{
closed = 1;
nodes = (
"229.196 412.481 OFFCURVE",
"262.151 404.089 OFFCURVE",
"288.535 385.063 CURVE SMOOTH",
"292.228 382.4 OFFCURVE",
"295.767 379.53 OFFCURVE",
"299.135 376.449 CURVE",
"304.709 370.346 OFFCURVE",
"309.728 363.418 OFFCURVE",
"313.687 356.055 CURVE SMOOTH",
"321.388 341.73 OFFCURVE",
"325.336 325.357 OFFCURVE",
"324.624 309.109 CURVE SMOOTH",
"324.481 305.852 OFFCURVE",
"324.187 302.883 OFFCURVE",
"323.657 299.472 CURVE",
"307.261 294.835 OFFCURVE",
"289.533 292.69 OFFCURVE",
"272.076 292.605 CURVE SMOOTH",
"269.373 292.686 OFFCURVE",
"266.672 292.722 OFFCURVE",
"263.977 292.712 CURVE SMOOTH",
"232.895 293.686 OFFCURVE",
"201.397 300.923 OFFCURVE",
"175.287 317.812 CURVE SMOOTH",
"169.727 321.408 OFFCURVE",
"164.561 325.359 OFFCURVE",
"159.6 329.889 CURVE",
"155.902 333.943 OFFCURVE",
"152.358 338.482 OFFCURVE",
"149.319 343.176 CURVE SMOOTH",
"140.867 356.226 OFFCURVE",
"135.6 371.379 OFFCURVE",
"134.548 386.891 CURVE SMOOTH",
"134.091 393.632 OFFCURVE",
"134.414 400.189 OFFCURVE",
"135.523 407.024 CURVE",
"154.97 412.584 OFFCURVE",
"176.186 414.612 OFFCURVE",
"196.694 413.788 CURVE",
"196.694 413.788 LINE"
);
},
{
closed = 1;
nodes = (
"78.272 241.351 LINE",
"78.332 241.291 LINE",
"78.392 241.232 LINE SMOOTH",
"84.189 235.464 OFFCURVE",
"90.637 230.33 OFFCURVE",
"97.506 225.888 CURVE SMOOTH",
"101.426 223.352 OFFCURVE",
"105.468 221.034 OFFCURVE",
"109.612 218.922 CURVE",
"52.066 161.377 LINE SMOOTH",
"51.901 161.212 OFFCURVE",
"51.695 161.005 OFFCURVE",
"51.695 161.004 CURVE",
"40.53 149.724 OFFCURVE",
"31.695 136.815 OFFCURVE",
"25.837 122.432 CURVE SMOOTH",
"18.043 103.292 OFFCURVE",
"15.91 81.841 OFFCURVE",
"20.124 61.609 CURVE SMOOTH",
"23.592 44.961 OFFCURVE",
"31.257 29.265 OFFCURVE",
"41.882 15.988 CURVE SMOOTH",
"44.621 12.565 OFFCURVE",
"47.553 9.303 OFFCURVE",
"50.648 6.204 CURVE SMOOTH",
"50.707 6.145 LINE",
"50.707 6.145 OFFCURVE",
"57.72 -0.868 OFFCURVE",
"57.778 -0.927 CURVE SMOOTH",
"57.838 -0.985 OFFCURVE",
"57.779 -0.928 OFFCURVE",
"57.838 -0.986 CURVE SMOOTH",
"57.898 -1.046 LINE",
"57.958 -1.106 LINE SMOOTH",
"66.812 -9.922 OFFCURVE",
"77.004 -17.407 OFFCURVE",
"87.931 -23.492 CURVE SMOOTH",
"117.644 -40.036 OFFCURVE",
"152.187 -46.597 OFFCURVE",
"186.195 -46.712 CURVE SMOOTH",
"220.458 -46.828 OFFCURVE",
"255.307 -40.416 OFFCURVE",
"285.321 -23.891 CURVE SMOOTH",
"296.547 -17.71 OFFCURVE",
"307.009 -10.059 OFFCURVE",
"316.064 -1.01 CURVE SMOOTH",
"400.917 83.843 LINE SMOOTH",
"401.114 84.04 OFFCURVE",
"401.359 84.286 OFFCURVE",
"401.359 84.287 CURVE",
"404.481 87.449 OFFCURVE",
"407.014 90.291 OFFCURVE",
"409.567 93.464 CURVE SMOOTH",
"420.31 106.809 OFFCURVE",
"428.058 122.619 OFFCURVE",
"431.548 139.391 CURVE SMOOTH",
"435.784 159.748 OFFCURVE",
"433.6 181.337 OFFCURVE",
"425.697 200.57 CURVE SMOOTH",
"419.754 215.035 OFFCURVE",
"410.693 228.105 OFFCURVE",
"399.623 239.178 CURVE SMOOTH",
"392.432 246.369 LINE",
"392.37 246.431 LINE",
"392.312 246.489 LINE SMOOTH",
"388.732 250.051 OFFCURVE",
"384.945 253.403 OFFCURVE",
"380.987 256.528 CURVE SMOOTH",
"369.207 265.829 OFFCURVE",
"356.105 273.149 OFFCURVE",
"342.215 278.7 CURVE",
"388.369 324.853 LINE SMOOTH",
"393.204 329.695 OFFCURVE",
"397.573 334.989 OFFCURVE",
"401.343 340.704 CURVE SMOOTH",
"410.376 354.402 OFFCURVE",
"415.829 370.499 OFFCURVE",
"416.548 386.891 CURVE SMOOTH",
"417.26 403.14 OFFCURVE",
"413.312 419.512 OFFCURVE",
"405.61 433.837 CURVE SMOOTH",
"400.861 442.669 OFFCURVE",
"394.733 450.71 OFFCURVE",
"387.641 457.808 CURVE SMOOTH",
"380.45 464.997 LINE",
"380.39 465.058 LINE",
"380.33 465.116 LINE SMOOTH",
"375.986 469.438 OFFCURVE",
"371.283 473.406 OFFCURVE",
"366.316 476.987 CURVE SMOOTH",
"339.933 496.013 OFFCURVE",
"306.978 504.405 OFFCURVE",
"274.477 505.712 CURVE SMOOTH",
"239.71 507.109 OFFCURVE",
"203.737 500.546 OFFCURVE",
"174.582 481.556 CURVE SMOOTH",
"167.889 477.196 OFFCURVE",
"161.612 472.156 OFFCURVE",
"155.96 466.509 CURVE SMOOTH",
"71.107 381.656 LINE SMOOTH",
"70.952 381.502 OFFCURVE",
"70.76 381.308 OFFCURVE",
"70.76 381.308 CURVE",
"64.08 374.553 OFFCURVE",
"58.555 367.321 OFFCURVE",
"54.078 359.287 CURVE SMOOTH",
"45.61 344.089 OFFCURVE",
"41.447 326.467 OFFCURVE",
"42.624 309.108 CURVE SMOOTH",
"43.676 293.597 OFFCURVE",
"48.943 278.443 OFFCURVE",
"57.396 265.394 CURVE SMOOTH",
"61.34 259.303 OFFCURVE",
"65.954 253.673 OFFCURVE",
"71.082 248.541 CURVE SMOOTH",
"78.213 241.41 LINE"
);
},
{
closed = 1;
nodes = (
"233.371 199.481 OFFCURVE",
"272.714 188.679 OFFCURVE",
"303.206 164.604 CURVE SMOOTH",
"305.936 162.449 OFFCURVE",
"308.603 160.169 OFFCURVE",
"311.146 157.812 CURVE",
"320.598 147.592 OFFCURVE",
"328.465 135.708 OFFCURVE",
"333.773 122.789 CURVE SMOOTH",
"341.676 103.556 OFFCURVE",
"343.86 81.967 OFFCURVE",
"339.624 61.609 CURVE SMOOTH",
"339.301 60.058 OFFCURVE",
"338.99 58.715 OFFCURVE",
"338.563 57.045 CURVE",
"315.072 48.684 OFFCURVE",
"289.239 45.126 OFFCURVE",
"263.977 45.212 CURVE SMOOTH",
"229.969 45.327 OFFCURVE",
"195.427 51.888 OFFCURVE",
"165.713 68.432 CURVE SMOOTH",
"156.157 73.753 OFFCURVE",
"147.263 80.065 OFFCURVE",
"139.172 87.528 CURVE",
"137.452 89.394 OFFCURVE",
"135.504 91.648 OFFCURVE",
"133.806 93.77 CURVE SMOOTH",
"123.181 107.047 OFFCURVE",
"115.516 122.743 OFFCURVE",
"112.048 139.392 CURVE SMOOTH",
"108.684 155.544 OFFCURVE",
"109.354 172.418 OFFCURVE",
"113.741 188.379 CURVE",
"136.388 196.747 OFFCURVE",
"161.657 200.7 OFFCURVE",
"186.195 200.788 CURVE SMOOTH",
"188.932 200.702 OFFCURVE",
"191.674 200.665 OFFCURVE",
"194.42 200.677 CURVE SMOOTH",
"194.42 200.677 LINE SMOOTH"
);
}
);
width = 452;
}
);
leftKerningGroup = C;
unicode = 0038;
},
{
glyphname = nine;
layers = (
{
layerId = master01;
paths = (
{
closed = 1;
nodes = (
"299.712 202.322 OFFCURVE",
"299.112 200.303 OFFCURVE",
"298.308 197.811 CURVE",
"275.739 190.596 OFFCURVE",
"250.787 189.101 OFFCURVE",
"227.359 194.087 CURVE SMOOTH",
"200.577 199.787 OFFCURVE",
"175.752 213.472 OFFCURVE",
"155.794 232.23 CURVE",
"151.386 236.924 OFFCURVE",
"147.115 242.053 OFFCURVE",
"143.267 247.313 CURVE SMOOTH",
"121.27 277.382 OFFCURVE",
"109.604 314.763 OFFCURVE",
"109.931 352.016 CURVE SMOOTH",
"110.106 372.098 OFFCURVE",
"113.836 392.333 OFFCURVE",
"120.98 410.962 CURVE",
"123.787 411.946 OFFCURVE",
"127.03 412.966 OFFCURVE",
"130.078 413.788 CURVE SMOOTH",
"153.851 420.199 OFFCURVE",
"179.429 419.632 OFFCURVE",
"202.954 412.368 CURVE SMOOTH",
"223.367 406.064 OFFCURVE",
"242.064 394.871 OFFCURVE",
"257.722 380.238 CURVE",
"291.189 344.443 OFFCURVE",
"305.883 293.342 OFFCURVE",
"304.507 244.234 CURVE SMOOTH",
"304.317 237.487 OFFCURVE",
"303.857 230.763 OFFCURVE",
"303.14 224.07 CURVE SMOOTH",
"302.415 217.316 OFFCURVE",
"301.593 211.482 OFFCURVE",
"300.359 204.805 CURVE",
"300.359 204.805 LINE"
);
},
{
closed = 1;
nodes = (
"339.021 468.764 LINE",
"338.958 468.826 LINE",
"338.899 468.886 LINE SMOOTH",
"322.654 485.068 OFFCURVE",
"302.638 497.529 OFFCURVE",
"280.736 504.292 CURVE SMOOTH",
"257.21 511.556 OFFCURVE",
"231.632 512.123 OFFCURVE",
"207.859 505.712 CURVE SMOOTH",
"185.04 499.559 OFFCURVE",
"164.173 486.986 OFFCURVE",
"147.442 470.261 CURVE SMOOTH",
"62.589 385.408 LINE SMOOTH",
"62.463 385.282 OFFCURVE",
"62.306 385.124 OFFCURVE",
"62.306 385.124 CURVE",
"56.152 378.926 OFFCURVE",
"50.799 372.468 OFFCURVE",
"45.986 365.483 CURVE SMOOTH",
"27.666 338.898 OFFCURVE",
"18.289 306.52 OFFCURVE",
"18.007 274.234 CURVE SMOOTH",
"17.681 236.981 OFFCURVE",
"29.347 199.6 OFFCURVE",
"51.343 169.531 CURVE SMOOTH",
"56.17 162.933 OFFCURVE",
"61.514 156.7 OFFCURVE",
"67.301 150.908 CURVE SMOOTH",
"74.434 143.775 LINE",
"74.557 143.652 LINE",
"74.621 143.588 LINE",
"74.68 143.529 LINE SMOOTH",
"95.215 123.088 OFFCURVE",
"121.278 108.187 OFFCURVE",
"149.578 102.163 CURVE SMOOTH",
"189.341 93.7 OFFCURVE",
"232.872 103.673 OFFCURVE",
"264.225 129.552 CURVE SMOOTH",
"267.306 132.096 OFFCURVE",
"270.261 134.787 OFFCURVE",
"273.081 137.611 CURVE SMOOTH",
"284.265 148.795 LINE",
"274.732 124.628 OFFCURVE",
"262.262 101.503 OFFCURVE",
"247.731 80.108 CURVE SMOOTH",
"245.201 76.383 OFFCURVE",
"242.793 72.964 OFFCURVE",
"239.997 69.143 CURVE",
"229.092 61.109 OFFCURVE",
"216.988 53.089 OFFCURVE",
"204.859 45.962 CURVE",
"120.007 -38.891 LINE",
"127.078 -45.962 LINE",
"156.599 -28.614 OFFCURVE",
"183.943 -7.511 OFFCURVE",
"208.148 16.704 CURVE SMOOTH",
"293 101.557 LINE SMOOTH",
"310.267 118.829 OFFCURVE",
"325.934 137.686 OFFCURVE",
"339.655 157.89 CURVE SMOOTH",
"359.572 187.217 OFFCURVE",
"375.551 219.62 OFFCURVE",
"385.44 253.612 CURVE SMOOTH",
"388.256 263.29 OFFCURVE",
"390.497 272.647 OFFCURVE",
"392.275 282.548 CURVE",
"394.057 289.125 OFFCURVE",
"395.119 295.046 OFFCURVE",
"395.857 301.814 CURVE SMOOTH",
"396.587 308.515 OFFCURVE",
"396.791 315.243 OFFCURVE",
"396.433 321.986 CURVE SMOOTH",
"396.431 322.016 LINE",
"397.81 371.239 OFFCURVE",
"383.196 422.228 OFFCURVE",
"349.52 458.155 CURVE SMOOTH",
"348.437 459.311 OFFCURVE",
"347.335 460.449 OFFCURVE",
"346.215 461.57 CURVE SMOOTH",
"339.083 468.702 LINE"
);
}
);
width = 415;
}
);
leftKerningGroup = G.alt;
unicode = 0039;
},
{
glyphname = colon;
layers = (
{
layerId = master01;
paths = (
{
closed = 1;
nodes = (
"119.248 0 LINE",
"203 85.94 LINE",
"117.06 169.691 LINE",
"33.309 83.751 LINE"
);
},
{
closed = 1;
nodes = (
"119.248 330 LINE",
"203 415.94 LINE",
"117.06 499.691 LINE",
"33.309 413.751 LINE"
);
}
);
width = 230;
}
);
leftKerningGroup = M.ss02;
unicode = 003A;
},
{
glyphname = semicolon;
layers = (
{
layerId = master01;
paths = (
{
closed = 1;
nodes = (
"96 486 LINE",
"25.29 415.29 LINE",
"96 344.579 LINE",
"166.711 415.29 LINE"
);
},
{
closed = 1;
nodes = (
"96 162 LINE",
"25.29 91.29 LINE",
"81.816 35.387 LINE",
"46.316 -1.613 LINE",
"58.316 -14.113 LINE",
"166.711 91.29 LINE"
);
}
);
width = 188;
}
);
unicode = 003B;
},
{
glyphname = less;
layers = (
{
layerId = master01;
paths = (
{
closed = 1;
nodes = (
"398.694 29.676 LINE",
"89.51 234.468 LINE",
"349.196 406.476 LINE",
"405.766 463.044 LINE",
"398.694 470.115 LINE",
"66.219 249.895 LINE",
"9.65 193.327 LINE",
"16.722 186.256 LINE",
"349.197 -33.964 LINE",
"405.766 22.604 LINE"
);
}
);
width = 434;
}
);
unicode = 003C;
},
{
glyphname = equal;
layers = (
{
layerId = master01;
paths = (
{
closed = 1;
nodes = (
"25.102 266.961 LINE",
"311.102 266.961 LINE",
"376.634 312.848 LINE",
"370.898 321.039 LINE",
"84.898 321.039 LINE",
"19.366 275.153 LINE"
);
},
{
closed = 1;
nodes = (
"25.102 166.961 LINE",
"311.102 166.961 LINE",
"376.634 212.848 LINE",
"370.898 221.039 LINE",
"84.898 221.039 LINE",
"19.366 175.153 LINE"
);
}
);
width = 396;
}
);
leftKerningGroup = c_e;
unicode = 003D;
},
{
glyphname = greater;
layers = (
{
layerId = master01;
paths = (
{
closed = 1;
nodes = (
"16.721 -33.965 LINE",
"349.197 186.256 LINE",
"405.766 242.824 LINE",
"398.694 249.896 LINE",
"66.219 470.115 LINE",
"9.65 413.546 LINE",
"16.722 406.476 LINE",
"325.906 201.683 LINE",
"66.218 29.675 LINE",
"9.649 -26.894 LINE"
);
}
);
width = 420;
}
);
unicode = 003E;
},
{
glyphname = question;
layers = (
{
layerId = master01;
paths = (
{
closed = 1;
nodes = (
"13.366 206.153 LINE",
"14.435 204.014 OFFCURVE",
"15.662 201.954 OFFCURVE",
"17.031 199.994 CURVE SMOOTH",
"22.768 191.803 LINE",
"22.768 191.803 OFFCURVE",
"22.791 191.769 OFFCURVE",
"22.843 191.695 CURVE SMOOTH",
"22.914 191.593 LINE SMOOTH",
"26.806 186.081 OFFCURVE",
"31.82 181.361 OFFCURVE",
"37.579 177.846 CURVE SMOOTH",
"45.452 173.038 OFFCURVE",
"54.69 170.496 OFFCURVE",
"63.915 170.601 CURVE SMOOTH",
"73.139 170.704 OFFCURVE",
"82.318 173.452 OFFCURVE",
"90.081 178.436 CURVE SMOOTH",
"90.661 178.807 OFFCURVE",
"91.232 179.191 OFFCURVE",
"91.795 179.587 CURVE SMOOTH",
"157.327 225.474 LINE SMOOTH",
"164.307 230.385 OFFCURVE",
"169.992 237.127 OFFCURVE",
"173.634 244.847 CURVE SMOOTH",
"178.71 255.606 OFFCURVE",
"179.74 268.053 OFFCURVE",
"177.479 279.731 CURVE SMOOTH",
"175.421 290.359 OFFCURVE",
"170.735 300.368 OFFCURVE",
"164.52 309.248 CURVE SMOOTH",
"158.784 317.439 LINE",
"158.708 317.548 LINE",
"158.637 317.65 LINE SMOOTH",
"158.069 318.456 OFFCURVE",
"157.489 319.252 OFFCURVE",
"156.897 320.039 CURVE SMOOTH",
"147.182 332.959 OFFCURVE",
"134.467 343.238 OFFCURVE",
"122.54 354.152 CURVE SMOOTH",
"115.938 360.194 OFFCURVE",
"109.204 366.892 OFFCURVE",
"103.853 373.738 CURVE",
"101.781 377.099 OFFCURVE",
"100.11 380.3 OFFCURVE",
"98.634 383.848 CURVE SMOOTH",
"94.346 394.151 OFFCURVE",
"92.928 405.824 OFFCURVE",
"94.469 416.711 CURVE",
"104.813 414.554 OFFCURVE",
"114.703 410.401 OFFCURVE",
"124.462 406.403 CURVE SMOOTH",
"132.056 403.291 OFFCURVE",
"139.716 400.252 OFFCURVE",
"147.69 398.316 CURVE SMOOTH",
"155.666 396.381 OFFCURVE",
"164.014 395.57 OFFCURVE",
"172.102 396.961 CURVE SMOOTH",
"179.198 398.181 OFFCURVE",
"185.946 401.104 OFFCURVE",
"191.843 405.251 CURVE SMOOTH",
"257.375 451.137 LINE SMOOTH",
"259.934 452.937 OFFCURVE",
"262.333 454.967 OFFCURVE",
"264.529 457.188 CURVE SMOOTH",
"271.79 464.53 OFFCURVE",
"276.884 473.896 OFFCURVE",
"279.634 483.847 CURVE SMOOTH",
"284.309 500.765 OFFCURVE",
"282.107 519.477 OFFCURVE",
"273.634 534.848 CURVE",
"267.898 543.039 LINE",
"202.366 497.152 LINE",
"209.895 483.497 OFFCURVE",
"212.477 467.324 OFFCURVE",
"209.678 451.894 CURVE",
"209.284 451.979 OFFCURVE",
"208.166 452.229 OFFCURVE",
"207.487 452.395 CURVE SMOOTH",
"199.512 454.33 OFFCURVE",
"191.853 457.368 OFFCURVE",
"184.259 460.48 CURVE SMOOTH",
"169.07 466.704 OFFCURVE",
"153.256 473.393 OFFCURVE",
"136.898 472.039 CURVE SMOOTH",
"128.066 471.308 OFFCURVE",
"119.462 468.18 OFFCURVE",
"112.147 463.178 CURVE SMOOTH",
"111.788 462.931 LINE",
"46.256 417.044 LINE SMOOTH",
"39.104 412.065 OFFCURVE",
"33.215 405.307 OFFCURVE",
"29.153 397.595 CURVE SMOOTH",
"20.893 381.913 OFFCURVE",
"20.556 362.516 OFFCURVE",
"27.366 346.152 CURVE SMOOTH",
"29.437 341.178 OFFCURVE",
"32.096 336.522 OFFCURVE",
"35.162 332.122 CURVE SMOOTH",
"35.233 332.02 LINE SMOOTH",
"35.293 331.935 OFFCURVE",
"35.306 331.916 OFFCURVE",
"35.306 331.916 CURVE",
"41.042 323.725 LINE SMOOTH",
"47.151 315.009 OFFCURVE",
"54.856 307.294 OFFCURVE",
"62.744 300.075 CURVE SMOOTH",
"74.229 289.565 OFFCURVE",
"86.34 279.751 OFFCURVE",
"95.975 267.431 CURVE",
"100.644 259.931 OFFCURVE",
"104.479 250.982 OFFCURVE",
"106.211 242.036 CURVE SMOOTH",
"107.154 237.166 OFFCURVE",
"107.522 232.503 OFFCURVE",
"107.273 227.306 CURVE",
"104.135 228.365 OFFCURVE",
"100.476 230.03 OFFCURVE",
"97.376 231.923 CURVE SMOOTH",
"92.971 234.612 OFFCURVE",
"89.097 237.912 OFFCURVE",
"85.68 241.869 CURVE",
"85.383 242.403 OFFCURVE",
"84.958 243.199 OFFCURVE",
"84.634 243.848 CURVE",
"78.898 252.039 LINE"
);
},
{
closed = 1;
nodes = (
"88.808 101.156 LINE",
"18.098 30.446 LINE",
"88.808 -40.265 LINE",
"159.519 30.446 LINE"
);
}
);
width = 180;
}
);
leftKerningGroup = at;
unicode = 003F;
},
{
glyphname = at;
layers = (
{
layerId = master01;
paths = (
{
closed = 1;
nodes = (
"265.141 79.368 OFFCURVE",
"264.322 78.795 OFFCURVE",
"263.502 78.222 CURVE",
"219.738 42.771 LINE",
"199.055 54.425 OFFCURVE",
"180.656 70.615 OFFCURVE",
"166.537 89.549 CURVE",
"150.666 113.738 OFFCURVE",
"141.088 142.12 OFFCURVE",
"139.736 171.019 CURVE SMOOTH",
"138.684 193.518 OFFCURVE",
"142.664 216.306 OFFCURVE",
"151.84 236.875 CURVE SMOOTH",
"153.461 240.511 OFFCURVE",
"155.359 244.266 OFFCURVE",
"157.215 247.599 CURVE",
"178.988 251.992 OFFCURVE",
"201.432 252.27 OFFCURVE",
"223.678 252.27 CURVE SMOOTH",
"266.182 252.27 LINE",
"266.184 80.212 LINE"
);
},
{
closed = 1;
nodes = (
"391.334 46.333 OFFCURVE",
"370.217 39.95 OFFCURVE",
"370.217 39.95 CURVE",
"370.217 321.099 LINE",
"364.48 329.29 LINE",
"316.24 329.29 LINE SMOOTH",
"293.717 329.29 OFFCURVE",
"271.029 329.011 OFFCURVE",
"248.973 324.455 CURVE SMOOTH",
"228.74 320.277 OFFCURVE",
"209.264 312.571 OFFCURVE",
"192.039 300.633 CURVE",
"192.039 300.633 OFFCURVE",
"191.799 300.466 OFFCURVE",
"191.607 300.332 CURVE SMOOTH",
"93.311 231.503 LINE SMOOTH",
"91.973 230.566 OFFCURVE",
"90.654 229.605 OFFCURVE",
"89.352 228.618 CURVE SMOOTH",
"71.398 215.016 OFFCURVE",
"56.982 196.807 OFFCURVE",
"47.807 176.237 CURVE SMOOTH",
"38.631 155.668 OFFCURVE",
"34.65 132.88 OFFCURVE",
"35.703 110.381 CURVE SMOOTH",
"37.084 80.868 OFFCURVE",
"47.043 51.894 OFFCURVE",
"63.525 27.372 CURVE SMOOTH",
"64.059 26.58 OFFCURVE",
"64.598 25.792 OFFCURVE",
"65.145 25.009 CURVE SMOOTH",
"65.191 24.94 OFFCURVE",
"65.145 25.008 OFFCURVE",
"65.193 24.939 CURVE SMOOTH",
"71.078 16.532 LINE SMOOTH",
"87.416 -6.786 OFFCURVE",
"109.711 -25.893 OFFCURVE",
"135.238 -38.511 CURVE",
"233.537 30.319 LINE",
"266.184 56.763 LINE",
"266.184 -30.318 LINE",
"271.918 -38.51 LINE",
"300.93 -31.625 OFFCURVE",
"328.529 -19.048 OFFCURVE",
"352.949 -1.947 CURVE SMOOTH",
"451.248 66.882 LINE SMOOTH",
"474.627 83.253 OFFCURVE",
"495.094 103.771 OFFCURVE",
"511.096 127.409 CURVE SMOOTH",
"543.811 175.738 OFFCURVE",
"557.615 237.022 OFFCURVE",
"546.516 294.318 CURVE SMOOTH",
"541.209 321.72 OFFCURVE",
"529.922 347.9 OFFCURVE",
"513.934 370.746 CURVE SMOOTH",
"508.148 379.008 LINE",
"508.051 379.148 LINE",
"507.998 379.221 LINE",
"507.951 379.289 LINE SMOOTH",
"492.113 401.819 OFFCURVE",
"471.695 421.088 OFFCURVE",
"447.928 435.055 CURVE SMOOTH",
"423.951 449.146 OFFCURVE",
"397.088 457.98 OFFCURVE",
"369.65 462.52 CURVE SMOOTH",
"342.215 467.058 OFFCURVE",
"314.271 467.311 OFFCURVE",
"286.461 467.311 CURVE SMOOTH",
"127.301 467.311 LINE",
"29.002 398.481 LINE",
"34.738 390.29 LINE",
"193.898 390.29 LINE SMOOTH",
"221.709 390.289 OFFCURVE",
"249.652 390.037 OFFCURVE",
"277.088 385.498 CURVE SMOOTH",
"304.525 380.96 OFFCURVE",
"331.389 372.125 OFFCURVE",
"355.365 358.034 CURVE SMOOTH",
"377.805 344.847 OFFCURVE",
"397.242 326.952 OFFCURVE",
"412.686 306.021 CURVE SMOOTH",
"427.137 284.253 OFFCURVE",
"437.492 259.44 OFFCURVE",
"442.482 233.681 CURVE SMOOTH",
"453.582 176.385 OFFCURVE",
"442.654 113.022 OFFCURVE",
"407.061 66.772 CURVE",
"407.061 66.771 LINE"
);
}
);
width = 574;
}
);
leftKerningGroup = at;
unicode = 0040;
},
{
glyphname = A;
layers = (
{
layerId = master01;
paths = (
{
closed = 1;
nodes = (
"120.605 501.894 OFFCURVE",
"102.41 461.019 OFFCURVE",
"95.646 446.525 CURVE SMOOTH",
"58.186 366.255 OFFCURVE",
"86.882 303.943 OFFCURVE",
"47.646 224.525 CURVE SMOOTH",
"38.912 206.846 OFFCURVE",
"23.43 188.145 OFFCURVE",
"6.911 171.232 CURVE",
"-77.354 100.525 LINE",
"-70.926 92.865 LINE",
"33.351 70.532 OFFCURVE",
"116.507 44.839 OFFCURVE",
"192.074 8.865 CURVE",
"284 86 LINE",
"277.571 93.66 LINE",
"205.75 127.851 OFFCURVE",
"127.029 152.765 OFFCURVE",
"29.855 174.328 CURVE",
"66.609 205.169 LINE SMOOTH",
"95.718 229.578 OFFCURVE",
"130.749 263.13 OFFCURVE",
"146 294 CURVE SMOOTH",
"185.235 373.417 OFFCURVE",
"156.54 435.729 OFFCURVE",
"194 516 CURVE SMOOTH",
"194.177 516.379 OFFCURVE",
"194.357 516.757 OFFCURVE",
"194.543 517.135 CURVE",
"196.361 518.661 OFFCURVE",
"198.185 520.191 OFFCURVE",
"200.014 521.727 CURVE",
"200.014 279.364 LINE",
"185.14 266.883 OFFCURVE",
"165.669 250.501 OFFCURVE",
"149.014 236.525 CURVE",
"155.442 228.865 LINE",
"206.441 264.865 LINE",
"298.367 342 LINE",
"298.367 638 LINE",
"291.939 645.66 LINE",
"200.014 568.525 LINE SMOOTH"
);
},
{
closed = 1;
nodes = (
"563.172 5.187 LINE",
"563.441 4.865 LINE",
"655.367 82 LINE",
"654.296 83.276 LINE SMOOTH",
"638.608 102.069 OFFCURVE",
"624.884 122.424 OFFCURVE",
"613.367 144 CURVE SMOOTH",
"599.221 170.504 OFFCURVE",
"588.44 198.802 OFFCURVE",
"581.366 228 CURVE SMOOTH",
"563.898 300.104 OFFCURVE",
"560.355 374.846 OFFCURVE",
"547.422 447.9 CURVE SMOOTH",
"534.489 520.955 OFFCURVE",
"523.916 596.345 OFFCURVE",
"489.367 662 CURVE SMOOTH",
"481.761 676.454 OFFCURVE",
"472.605 690.091 OFFCURVE",
"462.128 702.621 CURVE SMOOTH",
"462.021 702.75 LINE",
"455.431 710.604 LINE SMOOTH",
"447.916 719.559 OFFCURVE",
"439.724 727.946 OFFCURVE",
"430.939 735.66 CURVE SMOOTH",
"379.284 781.02 OFFCURVE",
"306.665 801.443 OFFCURVE",
"238.939 789.66 CURVE",
"48.939 639.66 LINE",
"-42.986 562.525 LINE",
"-36.559 554.865 LINE",
"153.441 704.865 LINE",
"221.168 716.648 OFFCURVE",
"293.786 696.225 OFFCURVE",
"345.441 650.865 CURVE SMOOTH",
"352.979 644.246 OFFCURVE",
"360.104 637.101 OFFCURVE",
"366.7 629.578 CURVE SMOOTH",
"375.963 618.041 OFFCURVE",
"384.124 605.619 OFFCURVE",
"391.014 592.525 CURVE SMOOTH",
"425.563 526.87 OFFCURVE",
"436.137 451.481 OFFCURVE",
"449.069 378.427 CURVE SMOOTH",
"462.002 305.371 OFFCURVE",
"465.545 230.631 OFFCURVE",
"483.014 158.525 CURVE SMOOTH",
"490.087 129.327 OFFCURVE",
"500.868 101.029 OFFCURVE",
"515.014 74.525 CURVE SMOOTH",
"526.645 52.735 OFFCURVE",
"540.546 32.157 OFFCURVE",
"556.419 13.233 CURVE SMOOTH",
"562.901 5.508 LINE"
);
}
);
width = 664;
}
);
unicode = 0041;
},
{
glyphname = glyph85;
layers = (
{
layerId = master01;
paths = (
{
closed = 1;
nodes = (
"30.107 607.038 LINE",
"126.107 552.038 LINE",
"214.66 635.93 LINE",
"216.514 600.769 OFFCURVE",
"219.87 565.676 OFFCURVE",
"224.152 530.704 CURVE",
"137.036 444.108 LINE",
"144.107 437.038 LINE",
"242.036 360.109 LINE",
"241.706 332.795 OFFCURVE",
"238.002 305.522 OFFCURVE",
"231.036 279.109 CURVE SMOOTH",
"221.073 241.332 OFFCURVE",
"204.136 205.291 OFFCURVE",
"181.933 173.383 CURVE",
"166.709 167.857 OFFCURVE",
"152.281 160.183 OFFCURVE",
"139.289 150.449 CURVE",
"139.289 150.449 OFFCURVE",
"139.142 150.338 OFFCURVE",
"139.023 150.249 CURVE SMOOTH",
"43.187 78.031 LINE SMOOTH",
"38.983 74.863 OFFCURVE",
"34.938 71.479 OFFCURVE",
"31.071 67.884 CURVE",
"37.089 59.897 LINE",
"62.476 79.028 LINE",
"82.048 90.857 OFFCURVE",
"103.881 98.508 OFFCURVE",
"126.343 101.803 CURVE",
"128.107 100.038 LINE",
"129.062 100.827 OFFCURVE",
"130.011 101.62 OFFCURVE",
"130.953 102.417 CURVE",
"143.267 103.891 OFFCURVE",
"155.734 104.061 OFFCURVE",
"168.09 102.898 CURVE SMOOTH",
"220.758 97.94 OFFCURVE",
"268.455 70.874 OFFCURVE",
"313.622 43.335 CURVE SMOOTH",
"358.791 15.797 OFFCURVE",
"405.029 -9.994 OFFCURVE",
"453.09 -32.102 CURVE SMOOTH",
"503.09 -55.102 LINE",
"598.926 17.116 LINE",
"690.926 101.115 LINE SMOOTH",
"714.888 122.994 OFFCURVE",
"738.742 145.274 OFFCURVE",
"758.298 171.167 CURVE SMOOTH",
"777.854 197.06 OFFCURVE",
"793.011 226.471 OFFCURVE",
"800.986 257.923 CURVE SMOOTH",
"808.962 289.375 OFFCURVE",
"809.729 322.613 OFFCURVE",
"803.338 354.425 CURVE SMOOTH",
"796.948 386.236 OFFCURVE",
"783.548 416.544 OFFCURVE",
"764.926 443.115 CURVE SMOOTH",
"763.294 445.443 OFFCURVE",
"761.623 447.743 OFFCURVE",
"759.913 450.013 CURVE SMOOTH",
"753.895 457.999 LINE SMOOTH",
"753.845 458.065 OFFCURVE",
"753.892 458.003 OFFCURVE",
"753.842 458.069 CURVE SMOOTH",
"753.792 458.136 OFFCURVE",
"753.839 458.072 OFFCURVE",
"753.789 458.139 CURVE SMOOTH",
"753.738 458.206 OFFCURVE",
"753.786 458.143 OFFCURVE",
"753.736 458.209 CURVE SMOOTH",
"753.68 458.283 LINE",
"753.63 458.35 LINE SMOOTH",
"724.128 497.685 OFFCURVE",
"682.985 530.362 OFFCURVE",
"624.218 548.902 CURVE",
"709.96 634.891 LINE",
"702.889 641.962 LINE",
"702.224 642.442 OFFCURVE",
"701.561 642.926 OFFCURVE",
"700.899 643.412 CURVE SMOOTH",
"688.414 652.579 OFFCURVE",
"676.605 662.585 OFFCURVE",
"665.475 673.393 CURVE SMOOTH",
"636.28 703.452 OFFCURVE",
"612.382 739.185 OFFCURVE",
"595.96 777.891 CURVE SMOOTH",
"578.953 817.978 OFFCURVE",
"569.732 861.351 OFFCURVE",
"568.96 904.891 CURVE",
"561.889 911.962 LINE",
"477.036 827.109 LINE",
"477.808 783.57 OFFCURVE",
"487.028 740.196 OFFCURVE",
"504.036 700.109 CURVE SMOOTH",
"521.111 659.861 OFFCURVE",
"546.104 623.021 OFFCURVE",
"577.007 592.104 CURVE SMOOTH",
"584.138 584.973 LINE",
"584.378 584.733 LINE",
"584.44 584.672 LINE",
"584.498 584.613 LINE SMOOTH",
"594.716 574.426 OFFCURVE",
"605.583 564.885 OFFCURVE",
"617.011 556.08 CURVE",
"487.661 426.359 LINE",
"494.732 419.288 LINE",
"513.249 437.805 LINE",
"546.153 465.145 LINE",
"590.917 448.614 OFFCURVE",
"631.47 419.394 OFFCURVE",
"661.011 381.78 CURVE SMOOTH",
"661.646 380.9 OFFCURVE",
"662.4 379.841 OFFCURVE",
"663.071 378.884 CURVE SMOOTH",
"681.693 352.312 OFFCURVE",
"695.094 322.005 OFFCURVE",
"701.483 290.193 CURVE SMOOTH",
"707.874 258.382 OFFCURVE",
"707.107 225.143 OFFCURVE",
"699.132 193.691 CURVE SMOOTH",
"691.156 162.239 OFFCURVE",
"676 132.828 OFFCURVE",
"656.443 106.935 CURVE SMOOTH",
"636.888 81.043 OFFCURVE",
"613.033 58.763 OFFCURVE",
"589.071 36.884 CURVE SMOOTH",
"581.775 30.223 LINE",
"542.908 48.102 LINE SMOOTH",
"494.848 70.21 OFFCURVE",
"448.608 96 OFFCURVE",
"403.44 123.539 CURVE SMOOTH",
"368.899 144.6 OFFCURVE",
"332.877 165.384 OFFCURVE",
"294.284 176.215 CURVE",
"365.96 247.892 LINE SMOOTH",
"395.636 277.677 OFFCURVE",
"417.041 315.396 OFFCURVE",
"428.544 355.839 CURVE SMOOTH",
"440.046 396.281 OFFCURVE",
"441.194 438.845 OFFCURVE",
"441.168 480.892 CURVE SMOOTH",
"440.963 805.894 LINE",
"454.96 819.892 LINE",
"447.89 826.962 LINE",
"433.889 816.962 LINE",
"349.036 732.109 LINE",
"349.244 403.109 LINE SMOOTH",
"349.271 361.062 OFFCURVE",
"348.122 318.5 OFFCURVE",
"336.62 278.058 CURVE SMOOTH",
"326.254 241.61 OFFCURVE",
"307.845 207.375 OFFCURVE",
"282.588 179.165 CURVE",
"274.48 180.975 OFFCURVE",
"266.256 182.317 OFFCURVE",
"257.908 183.102 CURVE SMOOTH",
"242.406 184.562 OFFCURVE",
"226.701 183.909 OFFCURVE",
"211.359 181.223 CURVE",
"235.893 205.757 LINE SMOOTH",
"277.472 247.342 OFFCURVE",
"307.96 300.011 OFFCURVE",
"322.961 356.891 CURVE SMOOTH",
"329.926 383.305 OFFCURVE",
"333.63 410.576 OFFCURVE",
"333.96 437.891 CURVE SMOOTH",
"334.547 486.311 OFFCURVE",
"325.92 534.312 OFFCURVE",
"319.448 582.302 CURVE SMOOTH",
"313.097 629.398 OFFCURVE",
"308.169 676.715 OFFCURVE",
"306.076 724.191 CURVE SMOOTH",
"306.036 725.091 OFFCURVE",
"305.998 725.991 OFFCURVE",
"305.96 726.891 CURVE",
"298.89 733.962 LINE",
"203.89 643.962 LINE",
"107.89 698.962 LINE",
"23.037 614.109 LINE"
);
}
);
width = 803;
}
);
leftKerningGroup = K.alt;
unicode = 0042;
},
{
glyphname = C;
layers = (
{
layerId = master01;
paths = (
{
closed = 1;
nodes = (
"571.979 557.737 LINE",
"520.605 592.164 OFFCURVE",
"462.729 619.261 OFFCURVE",
"401.259 626.032 CURVE SMOOTH",
"379.124 628.471 OFFCURVE",
"356.47 627.765 OFFCURVE",
"334.961 621.997 CURVE SMOOTH",
"320.966 618.244 OFFCURVE",
"307.021 612.95 OFFCURVE",
"295.516 604.174 CURVE SMOOTH",
"198.853 530.437 LINE SMOOTH",
"198.277 529.997 OFFCURVE",
"197.749 529.559 OFFCURVE",
"197.261 529.121 CURVE SMOOTH",
"119.323 464.703 LINE SMOOTH",
"88.618 439.324 OFFCURVE",
"60.905 398.71 OFFCURVE",
"43.518 362.848 CURVE SMOOTH",
"18.972 312.225 OFFCURVE",
"7.33 255.022 OFFCURVE",
"12.733 199.022 CURVE SMOOTH",
"18 144.441 OFFCURVE",
"40.798 91.123 OFFCURVE",
"78.623 51.672 CURVE SMOOTH",
"78.681 51.612 OFFCURVE",
"78.625 51.67 OFFCURVE",
"78.683 51.609 CURVE SMOOTH",
"85.807 44.205 LINE",
"85.865 44.145 LINE SMOOTH",
"90.541 39.287 OFFCURVE",
"95.447 34.642 OFFCURVE",
"100.576 30.23 CURVE SMOOTH",
"147.271 -9.926 OFFCURVE",
"209.882 -28.885 OFFCURVE",
"271.468 -29.066 CURVE SMOOTH",
"364.251 -29.34 OFFCURVE",
"455.49 8.191 OFFCURVE",
"526.382 68.051 CURVE",
"612.851 151.257 LINE",
"605.917 158.462 LINE",
"535.024 98.603 OFFCURVE",
"443.785 61.072 OFFCURVE",
"351.002 61.345 CURVE SMOOTH",
"289.417 61.526 OFFCURVE",
"226.805 80.485 OFFCURVE",
"180.11 120.642 CURVE SMOOTH",
"176.245 123.966 OFFCURVE",
"172.429 127.502 OFFCURVE",
"168.868 131.034 CURVE SMOOTH",
"132.906 170.159 OFFCURVE",
"111.256 221.967 OFFCURVE",
"106.136 275.022 CURVE SMOOTH",
"100.732 331.022 OFFCURVE",
"112.373 388.226 OFFCURVE",
"136.92 438.848 CURVE SMOOTH",
"138.149 441.382 OFFCURVE",
"139.413 443.904 OFFCURVE",
"140.711 446.411 CURVE",
"138.506 433.502 OFFCURVE",
"137.653 420.336 OFFCURVE",
"137.704 407.229 CURVE SMOOTH",
"138.019 327.027 OFFCURVE",
"161.605 248.884 OFFCURVE",
"178.16 170.408 CURVE",
"183.737 162.108 LINE",
"283.342 229.034 LINE",
"266.786 307.51 OFFCURVE",
"243.2 385.653 OFFCURVE",
"242.886 465.855 CURVE SMOOTH",
"242.804 486.757 OFFCURVE",
"245.019 507.811 OFFCURVE",
"251.356 527.73 CURVE SMOOTH",
"253.873 535.637 OFFCURVE",
"257.063 543.338 OFFCURVE",
"260.93 550.694 CURVE",
"275.988 552.638 OFFCURVE",
"291.877 552.496 OFFCURVE",
"307.232 550.805 CURVE SMOOTH",
"368.702 544.034 OFFCURVE",
"426.579 516.937 OFFCURVE",
"477.952 482.51 CURVE",
"577.555 549.436 LINE"
);
}
);
width = 624;
}
);
leftKerningGroup = C;
unicode = 0043;
},
{
glyphname = D;
layers = (
{
layerId = master01;
paths = (
{
closed = 1;
nodes = (
"627.16 258 LINE SMOOTH",
"631.985 307.382 OFFCURVE",
"636.688 357.524 OFFCURVE",
"627.784 406.338 CURVE SMOOTH",
"619.781 450.22 OFFCURVE",
"599.549 492.293 OFFCURVE",
"568.161 523.794 CURVE SMOOTH",
"568.103 523.853 OFFCURVE",
"568.159 523.796 OFFCURVE",
"568.101 523.855 CURVE SMOOTH",
"568.037 523.919 LINE SMOOTH",
"567.978 523.978 OFFCURVE",
"568.033 523.923 OFFCURVE",
"567.975 523.981 CURVE SMOOTH",
"567.916 524.04 OFFCURVE",
"567.971 523.984 OFFCURVE",
"567.912 524.044 CURVE SMOOTH",
"560.841 531.115 LINE SMOOTH",
"557.391 534.564 OFFCURVE",
"553.807 537.888 OFFCURVE",
"550.09 541.07 CURVE SMOOTH",
"511.055 574.499 OFFCURVE",
"460.265 591.214 OFFCURVE",
"409.526 599.386 CURVE SMOOTH",
"358.788 607.558 OFFCURVE",
"307.311 609.889 OFFCURVE",
"256.089 614.07 CURVE SMOOTH",
"60.09 630.07 LINE SMOOTH",
"32.09 632.356 OFFCURVE",
"4.007 635.096 OFFCURVE",
"-23.241 641.933 CURVE SMOOTH",
"-50.488 648.769 OFFCURVE",
"-76.79 659.492 OFFCURVE",
"-100.804 674.07 CURVE",
"-185.656 589.218 LINE",
"-178.585 582.147 LINE",
"-154.572 567.568 OFFCURVE",
"-128.271 556.845 OFFCURVE",
"-101.022 550.009 CURVE SMOOTH",
"-73.775 543.172 OFFCURVE",
"-45.691 540.432 OFFCURVE",
"-17.692 538.147 CURVE SMOOTH",
"178.307 522.147 LINE SMOOTH",
"194.518 520.823 OFFCURVE",
"210.755 519.685 OFFCURVE",
"226.985 518.489 CURVE",
"226.643 518.252 OFFCURVE",
"226.301 518.015 OFFCURVE",
"225.958 517.775 CURVE SMOOTH",
"127.659 448.946 LINE SMOOTH",
"77.436 413.752 OFFCURVE",
"42.541 356.806 OFFCURVE",
"35.288 295.789 CURVE SMOOTH",
"30.173 252.756 OFFCURVE",
"38.299 208.24 OFFCURVE",
"58.289 169.79 CURVE",
"64.024 161.598 LINE",
"66.357 163.231 LINE",
"-1.656 95.218 LINE",
"5.415 88.147 LINE",
"61.293 46.996 OFFCURVE",
"124.631 16.008 OFFCURVE",
"191.415 -2.853 CURVE SMOOTH",
"257.193 -21.431 OFFCURVE",
"326.276 -28.237 OFFCURVE",
"394.415 -22.853 CURVE",
"618.268 167 LINE"
);
},
{
closed = 1;
nodes = (
"162.322 230.427 LINE",
"142.333 268.878 OFFCURVE",
"134.207 313.394 OFFCURVE",
"139.322 356.427 CURVE SMOOTH",
"141.315 373.19 OFFCURVE",
"145.53 390.019 OFFCURVE",
"151.333 405.506 CURVE",
"151.99 385.929 OFFCURVE",
"153.648 366.252 OFFCURVE",
"156.288 346.789 CURVE SMOOTH",
"160.937 312.529 OFFCURVE",
"168.644 278.685 OFFCURVE",
"179.288 245.789 CURVE",
"185.024 237.598 LINE",
"283.322 306.427 LINE",
"272.678 339.322 OFFCURVE",
"264.972 373.167 OFFCURVE",
"260.322 407.427 CURVE SMOOTH",
"255.434 443.455 OFFCURVE",
"253.931 479.941 OFFCURVE",
"255.835 516.248 CURVE",
"281.239 514.131 OFFCURVE",
"306.583 511.514 OFFCURVE",
"331.744 507.462 CURVE SMOOTH",
"382.482 499.29 OFFCURVE",
"433.272 482.574 OFFCURVE",
"472.308 449.146 CURVE SMOOTH",
"474.752 447.054 OFFCURVE",
"477.215 444.828 OFFCURVE",
"479.487 442.672 CURVE",
"509.038 411.551 OFFCURVE",
"528.136 370.91 OFFCURVE",
"535.86 328.556 CURVE SMOOTH",
"544.764 279.743 OFFCURVE",
"540.062 229.601 OFFCURVE",
"535.236 180.218 CURVE SMOOTH",
"528.534 111.627 LINE",
"472.196 69.07 LINE",
"404.058 63.687 OFFCURVE",
"334.975 70.493 OFFCURVE",
"269.197 89.07 CURVE SMOOTH",
"203.815 107.536 OFFCURVE",
"141.735 137.624 OFFCURVE",
"86.725 177.493 CURVE",
"86.725 177.493 LINE"
);
}
);
width = 650;
}
);
leftKerningGroup = D;
unicode = 0044;
},
{
glyphname = E;
layers = (
{
layerId = master01;
paths = (
{
closed = 1;
nodes = (
"26.859 55.038 LINE",
"68.791 53.376 OFFCURVE",
"110.435 46.303 OFFCURVE",
"150.859 35.038 CURVE SMOOTH",
"204.789 20.01 OFFCURVE",
"256.424 -2.257 OFFCURVE",
"309.859 -18.962 CURVE SMOOTH",
"368.681 -37.352 OFFCURVE",
"430.258 -47.854 OFFCURVE",
"491.859 -45.962 CURVE",
"576.712 38.891 LINE",
"569.641 45.962 LINE",
"508.039 44.069 OFFCURVE",
"446.463 54.572 OFFCURVE",
"387.641 72.962 CURVE SMOOTH",
"334.205 89.667 OFFCURVE",
"282.571 111.934 OFFCURVE",
"228.641 126.962 CURVE SMOOTH",
"188.217 138.227 OFFCURVE",
"146.572 145.3 OFFCURVE",
"104.641 146.962 CURVE",
"19.788 62.109 LINE"
);
},
{
closed = 1;
nodes = (
"560.107 663.133 LINE SMOOTH",
"546.806 676.427 OFFCURVE",
"532.236 688.453 OFFCURVE",
"516.641 698.962 CURVE SMOOTH",
"482.143 722.207 OFFCURVE",
"442.652 738.003 OFFCURVE",
"401.641 744.962 CURVE",
"305.641 666.962 LINE",
"220.788 582.109 LINE",
"212.103 527.105 OFFCURVE",
"215.44 470.627 OFFCURVE",
"226.788 416.109 CURVE SMOOTH",
"236.575 369.087 OFFCURVE",
"251.38 323.209 OFFCURVE",
"260.788 276.109 CURVE SMOOTH",
"266.974 245.137 OFFCURVE",
"270.833 213.679 OFFCURVE",
"271.788 182.109 CURVE",
"278.859 175.038 LINE",
"363.712 259.891 LINE",
"362.757 291.461 OFFCURVE",
"358.897 322.918 OFFCURVE",
"352.712 353.891 CURVE SMOOTH",
"343.304 400.991 OFFCURVE",
"328.499 446.868 OFFCURVE",
"318.712 493.891 CURVE SMOOTH",
"308.593 542.507 OFFCURVE",
"304.867 592.963 OFFCURVE",
"310.314 642.033 CURVE",
"323.859 653.038 LINE",
"364.871 646.079 OFFCURVE",
"404.36 630.283 OFFCURVE",
"438.858 607.038 CURVE SMOOTH",
"453.08 597.455 OFFCURVE",
"466.548 586.516 OFFCURVE",
"478.815 574.658 CURVE SMOOTH",
"493.18 559.797 OFFCURVE",
"505.877 543.581 OFFCURVE",
"516.788 526.109 CURVE",
"523.859 519.038 LINE",
"608.712 603.891 LINE",
"597.016 622.62 OFFCURVE",
"583.18 640.005 OFFCURVE",
"567.594 655.645 CURVE SMOOTH",
"567.535 655.704 LINE",
"567.476 655.765 LINE",
"560.166 663.073 LINE"
);
},
{
closed = 1;
nodes = (
"433.359 372.538 LINE",
"520.359 311.538 LINE",
"605.212 396.391 LINE",
"598.141 403.462 LINE",
"511.141 464.462 LINE",
"426.288 379.609 LINE"
);
},
{
closed = 1;
nodes = (
"114.144 482.109 LINE",
"107.715 465.345 OFFCURVE",
"103.962 447.706 OFFCURVE",
"102.527 429.823 CURVE",
"46.25 371.5 LINE",
"107.415 362.113 LINE",
"113.405 333.321 OFFCURVE",
"122.767 305.204 OFFCURVE",
"127.144 276.109 CURVE SMOOTH",
"132.96 237.446 OFFCURVE",
"128.337 196.717 OFFCURVE",
"110.144 162.109 CURVE",
"117.215 155.038 LINE",
"202.067 239.891 LINE",
"220.261 274.498 OFFCURVE",
"224.884 315.229 OFFCURVE",
"219.067 353.891 CURVE SMOOTH",
"214.085 387.012 OFFCURVE",
"202.643 418.864 OFFCURVE",
"197.067 451.891 CURVE SMOOTH",
"190.98 487.956 OFFCURVE",
"192.971 525.741 OFFCURVE",
"206.067 559.891 CURVE",
"198.996 566.962 LINE"
);
}
);
width = 642;
}
);
leftKerningGroup = E;
unicode = 0045;
},
{
glyphname = F;
layers = (
{
layerId = master01;
paths = (
{
closed = 1;
nodes = (
"37.424 262.909 LINE",
"37.472 262.841 LINE SMOOTH",
"41.643 256.887 OFFCURVE",
"46.16 251.153 OFFCURVE",
"50.719 245.49 CURVE SMOOTH",
"79.179 210.13 LINE",
"19.982 168.681 LINE",
"25.719 160.489 LINE",
"55.719 131.49 LINE SMOOTH",
"64.522 122.98 OFFCURVE",
"73.245 114.222 OFFCURVE",
"80.628 104.514 CURVE",
"88.525 92.164 OFFCURVE",
"94.238 78.159 OFFCURVE",
"96.983 63.682 CURVE SMOOTH",
"101.436 40.194 OFFCURVE",
"98.13 15.373 OFFCURVE",
"88.037 -6.298 CURVE SMOOTH",
"77.944 -27.968 OFFCURVE",
"61.152 -45.686 OFFCURVE",
"43.983 -62.318 CURVE SMOOTH",
"40.742 -65.458 LINE",
"-1.743 -53.185 OFFCURVE",
"-43.63 -38.84 OFFCURVE",
"-84.719 -22.49 CURVE",
"-183.018 -91.319 LINE",
"-177.281 -99.511 LINE",
"-129.265 -118.617 OFFCURVE",
"-80.158 -134.985 OFFCURVE",
"-30.281 -148.511 CURVE SMOOTH",
"3.003 -157.535 OFFCURVE",
"37.914 -165.331 OFFCURVE",
"71.719 -158.511 CURVE SMOOTH",
"89.704 -154.882 OFFCURVE",
"106.63 -147.147 OFFCURVE",
"121.686 -136.608 CURVE SMOOTH",
"219.983 -67.779 LINE SMOOTH",
"220.128 -67.678 OFFCURVE",
"220.308 -67.552 OFFCURVE",
"220.308 -67.552 CURVE",
"230.355 -60.466 OFFCURVE",
"239.296 -52.393 OFFCURVE",
"247.303 -43.411 CURVE SMOOTH",
"267.633 -20.605 OFFCURVE",
"281.61 7.369 OFFCURVE",
"290.639 36.557 CURVE SMOOTH",
"308.688 94.914 OFFCURVE",
"308.018 218.319 OFFCURVE",
"308.018 218.319 CURVE",
"308.018 265.043 OFFCURVE",
"308.017 311.766 OFFCURVE",
"308.017 358.489 CURVE",
"418.719 358.489 LINE",
"517.017 427.319 LINE",
"511.281 435.511 LINE",
"443.527 435.511 OFFCURVE",
"375.772 435.51 OFFCURVE",
"308.017 435.51 CURVE",
"308.017 490.54 OFFCURVE",
"308.017 545.57 OFFCURVE",
"308.017 600.601 CURVE",
"316.064 602.344 OFFCURVE",
"324.063 603.079 OFFCURVE",
"332.172 602.689 CURVE SMOOTH",
"347.002 601.976 OFFCURVE",
"361.522 597.447 OFFCURVE",
"374.601 590.419 CURVE SMOOTH",
"387.679 583.389 OFFCURVE",
"399.286 573.963 OFFCURVE",
"410.719 564.489 CURVE SMOOTH",
"445.719 535.489 LINE",
"544.017 604.318 LINE",
"538.281 612.51 LINE",
"503.281 641.511 LINE SMOOTH",
"491.849 650.983 OFFCURVE",
"480.241 660.41 OFFCURVE",
"467.163 667.439 CURVE SMOOTH",
"454.085 674.468 OFFCURVE",
"439.564 678.996 OFFCURVE",
"424.734 679.71 CURVE SMOOTH",
"409.904 680.424 OFFCURVE",
"395.005 677.299 OFFCURVE",
"381.363 671.439 CURVE SMOOTH",
"369.28 666.248 OFFCURVE",
"358.235 658.991 OFFCURVE",
"347.446 651.442 CURVE SMOOTH",
"109.982 486.681 LINE",
"79.983 457.682 LINE SMOOTH",
"62.01 440.307 OFFCURVE",
"43.915 422.67 OFFCURVE",
"30.505 401.571 CURVE SMOOTH",
"17.097 380.475 OFFCURVE",
"8.796 355.651 OFFCURVE",
"9.982 330.681 CURVE SMOOTH",
"10.665 316.325 OFFCURVE",
"14.462 302.158 OFFCURVE",
"20.79 289.253 CURVE SMOOTH",
"23.855 283.001 OFFCURVE",
"27.515 277.085 OFFCURVE",
"31.496 271.374 CURVE SMOOTH",
"31.544 271.306 OFFCURVE",
"31.497 271.374 OFFCURVE",
"31.544 271.306 CURVE SMOOTH",
"31.592 271.237 LINE SMOOTH",
"31.64 271.169 OFFCURVE",
"31.593 271.237 OFFCURVE",
"31.64 271.169 CURVE SMOOTH",
"31.688 271.101 OFFCURVE",
"31.641 271.169 OFFCURVE",
"31.688 271.101 CURVE",
"31.688 271.101 LINE"
);
},
{
closed = 1;
nodes = (
"181.906 169.264 OFFCURVE",
"176.218 177.388 OFFCURVE",
"176.17 177.456 CURVE SMOOTH",
"176.122 177.524 LINE",
"176.073 177.594 LINE",
"176.025 177.662 LINE SMOOTH",
"168.065 188.974 OFFCURVE",
"158.241 198.883 OFFCURVE",
"148.281 208.511 CURVE SMOOTH",
"123.572 232.395 LINE",
"182.017 273.318 LINE",
"176.281 281.51 LINE",
"143.281 322.511 LINE SMOOTH",
"139.814 326.819 OFFCURVE",
"136.206 331.385 OFFCURVE",
"133.022 335.706 CURVE",
"129.963 340.344 OFFCURVE",
"127.241 344.962 OFFCURVE",
"124.823 349.891 CURVE SMOOTH",
"123.446 352.701 OFFCURVE",
"122.188 355.571 OFFCURVE",
"121.056 358.489 CURVE",
"203.983 358.489 LINE",
"203.983 291.553 OFFCURVE",
"203.983 224.618 OFFCURVE",
"203.983 157.682 CURVE SMOOTH",
"204.002 96.578 OFFCURVE",
"204.672 34.336 OFFCURVE",
"186.604 -24.081 CURVE SMOOTH",
"180.274 -44.546 OFFCURVE",
"171.634 -64.197 OFFCURVE",
"159.846 -82.301 CURVE",
"127.771 -87.574 OFFCURVE",
"94.107 -80.119 OFFCURVE",
"62.281 -71.489 CURVE SMOOTH",
"61.876 -71.379 OFFCURVE",
"61.471 -71.269 OFFCURVE",
"61.065 -71.159 CURVE",
"116.017 -32.682 LINE",
"148.018 -1.681 LINE SMOOTH",
"165.187 14.952 OFFCURVE",
"181.979 32.67 OFFCURVE",
"192.07 54.34 CURVE SMOOTH",
"202.163 76.011 OFFCURVE",
"205.47 100.832 OFFCURVE",
"201.018 124.319 CURVE SMOOTH",
"198.191 139.224 OFFCURVE",
"192.292 153.512 OFFCURVE",
"183.98 166.203 CURVE SMOOTH",
"183.32 167.212 OFFCURVE",
"182.645 168.209 OFFCURVE",
"181.954 169.195 CURVE SMOOTH",
"181.906 169.264 LINE"
);
},
{
closed = 1;
nodes = (
"203.982 503.583 OFFCURVE",
"203.983 469.546 OFFCURVE",
"203.983 435.51 CURVE",
"201.281 435.51 LINE",
"115.971 375.775 LINE",
"114.926 380.897 OFFCURVE",
"114.265 386.095 OFFCURVE",
"114.017 391.318 CURVE SMOOTH",
"112.83 416.289 OFFCURVE",
"121.13 441.112 OFFCURVE",
"134.539 462.209 CURVE SMOOTH",
"147.949 483.308 OFFCURVE",
"166.044 500.944 OFFCURVE",
"184.017 518.319 CURVE SMOOTH",
"203.982 537.619 LINE"
);
}
);
width = 558;
}
);
unicode = 0046;
},
{
glyphname = G;
lastChange = "2019-12-05 20:08:41 +0000";
layers = (
{
background = {
paths = (
{
closed = 1;
nodes = (
"239 279 OFFCURVE",
"230 372 OFFCURVE",
"230 496 CURVE SMOOTH",
"230 538 OFFCURVE",
"245 569 OFFCURVE",
"285 610 CURVE SMOOTH",
"334 660 LINE SMOOTH",
"380 707 OFFCURVE",
"413 729 OFFCURVE",
"498 729 CURVE SMOOTH",
"631 729 OFFCURVE",
"714 638 OFFCURVE",
"875 599 CURVE",
"776 510 LINE",
"636 549 OFFCURVE",
"519 638 OFFCURVE",
"438 638 CURVE SMOOTH",
"394 638 OFFCURVE",
"357 631 OFFCURVE",
"326 617 CURVE",
"322 599 OFFCURVE",
"321 572 OFFCURVE",
"321 541 CURVE SMOOTH",
"321 463 OFFCURVE",
"331 356 OFFCURVE",
"349 275 CURVE",
"259 187 LINE"
);
},
{
closed = 1;
nodes = (
"43 92 OFFCURVE",
"180 -38 OFFCURVE",
"319 -38 CURVE SMOOTH",
"449 -38 OFFCURVE",
"508 11 OFFCURVE",
"574 77 CURVE SMOOTH",
"593 96 LINE SMOOTH",
"642 145 OFFCURVE",
"675 219 OFFCURVE",
"675 285 CURVE SMOOTH",
"675 375 OFFCURVE",
"589 466 OFFCURVE",
"496 466 CURVE",
"398 371 LINE",
"408 374 OFFCURVE",
"419 375 OFFCURVE",
"429 375 CURVE SMOOTH",
"516 375 OFFCURVE",
"591 299 OFFCURVE",
"591 205 CURVE SMOOTH",
"591 164 OFFCURVE",
"586 126 OFFCURVE",
"570 95 CURVE",
"541 75 OFFCURVE",
"502 65 OFFCURVE",
"428 65 CURVE SMOOTH",
"258 65 OFFCURVE",
"138 180 OFFCURVE",
"138 343 CURVE SMOOTH",
"138 440 OFFCURVE",
"172 515 OFFCURVE",
"255 602 CURVE",
"92 465 OFFCURVE",
"43 385 OFFCURVE",
"43 256 CURVE SMOOTH"
);
}
);
};
layerId = master01;
paths = (
{
closed = 1;
nodes = (
"238 267 OFFCURVE",
"227 380 OFFCURVE",
"227 496 CURVE SMOOTH",
"227 538 OFFCURVE",
"240 568 OFFCURVE",
"282 610 CURVE SMOOTH",
"331 660 LINE SMOOTH",
"384 714 OFFCURVE",
"420 729 OFFCURVE",
"495 729 CURVE SMOOTH",
"628 729 OFFCURVE",
"705 634 OFFCURVE",
"872 599 CURVE",
"774 508 LINE",
"628 544 OFFCURVE",
"531 638 OFFCURVE",
"436 638 CURVE SMOOTH",
"390 638 OFFCURVE",
"354 631 OFFCURVE",
"323 617 CURVE",
"318 602 OFFCURVE",
"316 580 OFFCURVE",
"316 541 CURVE SMOOTH",
"316 448 OFFCURVE",
"327 342 OFFCURVE",
"344 275 CURVE",
"256 190 LINE"
);
},
{
closed = 1;
nodes = (
"32 94 OFFCURVE",
"156 -36 OFFCURVE",
"335 -36 CURVE SMOOTH",
"433 -36 OFFCURVE",
"487 -10 OFFCURVE",
"572 75 CURVE SMOOTH",
"591 94 LINE SMOOTH",
"644 147 OFFCURVE",
"677 220 OFFCURVE",
"677 285 CURVE SMOOTH",
"677 377 OFFCURVE",
"589 466 OFFCURVE",
"498 466 CURVE",
"400 371 LINE",
"407 374 OFFCURVE",
"415 375 OFFCURVE",
"431 375 CURVE SMOOTH",
"519 375 OFFCURVE",
"593 298 OFFCURVE",
"593 205 CURVE SMOOTH",
"593 165 OFFCURVE",
"585 130 OFFCURVE",
"568 96 CURVE",
"538 73 OFFCURVE",
"498 64 OFFCURVE",
"429 64 CURVE SMOOTH",
"258 64 OFFCURVE",
"137 179 OFFCURVE",
"137 343 CURVE SMOOTH",
"137 440 OFFCURVE",
"170 515 OFFCURVE",
"252 602 CURVE",
"92 474 OFFCURVE",
"32 381 OFFCURVE",
"32 256 CURVE SMOOTH"
);
}
);
userData = {
com.schriftgestaltung.Glyphs.lastChange = "2019-10-26 23:34:56 +0000";
};
width = 707;
},
{
associatedMasterId = master01;
backgroundImage = {
crop = "{{0, 0}, {585, 145}}";
imagePath = "../../../Desktop/Screen Shot 2019-11-28 at 10.52.51 AM.png";
locked = "1";
transform = "{8.41632, 0, 0, 8.41632, -462, -345}";
};
layerId = "8E9C488A-2227-4DFE-9195-7AC20BD166A4";
name = "Nov 28 19, 10:58";
paths = (
{
closed = 1;
nodes = (
"25 112 OFFCURVE",
"158 -32 OFFCURVE",
"339 -32 CURVE SMOOTH",
"428 -32 OFFCURVE",
"494 7 OFFCURVE",
"567 80 CURVE SMOOTH",
"592 105 LINE SMOOTH",
"645 158 OFFCURVE",
"677 224 OFFCURVE",
"677 290 CURVE SMOOTH",
"677 380 OFFCURVE",
"587 471 OFFCURVE",
"498 471 CURVE",
"400 376 LINE",
"477 397 OFFCURVE",
"582 332 OFFCURVE",
"591 244 CURVE SMOOTH",
"597 191 OFFCURVE",
"589 146 OFFCURVE",
"571 102 CURVE",
"535 83 OFFCURVE",
"474 72 OFFCURVE",
"410 72 CURVE SMOOTH",
"240 72 OFFCURVE",
"120 187 OFFCURVE",
"120 350 CURVE SMOOTH",
"120 442 OFFCURVE",
"149 517 OFFCURVE",
"237 609 CURVE SMOOTH",
"260 633 LINE",
"253 640 LINE",
"190 577 LINE SMOOTH",
"60 447 OFFCURVE",
"25 360 OFFCURVE",
"25 263 CURVE SMOOTH"
);
},
{
closed = 1;
nodes = (
"221 284 OFFCURVE",
"212 377 OFFCURVE",
"212 503 CURVE SMOOTH",
"212 545 OFFCURVE",
"227 576 OFFCURVE",
"267 617 CURVE SMOOTH",
"316 667 LINE SMOOTH",
"362 714 OFFCURVE",
"415 736 OFFCURVE",
"480 736 CURVE SMOOTH",
"613 736 OFFCURVE",
"696 645 OFFCURVE",
"857 606 CURVE",
"758 517 LINE",
"618 556 OFFCURVE",
"521 645 OFFCURVE",
"420 645 CURVE SMOOTH",
"376 645 OFFCURVE",
"339 638 OFFCURVE",
"308 624 CURVE",
"293 549 OFFCURVE",
"311 375 OFFCURVE",
"331 282 CURVE",
"241 194 LINE"
);
}
);
userData = {
com.schriftgestaltung.Glyphs.lastChange = "2019-10-26 23:34:56 +0000";
};
width = 697;
},
{
associatedMasterId = master01;
background = {
paths = (
{
closed = 1;
nodes = (
"25 112 OFFCURVE",
"158 -32 OFFCURVE",
"339 -32 CURVE SMOOTH",
"428 -32 OFFCURVE",
"494 7 OFFCURVE",
"567 80 CURVE SMOOTH",
"592 105 LINE SMOOTH",
"645 158 OFFCURVE",
"677 224 OFFCURVE",
"677 290 CURVE SMOOTH",
"677 380 OFFCURVE",
"587 471 OFFCURVE",
"498 471 CURVE",
"400 376 LINE",
"477 397 OFFCURVE",
"582 332 OFFCURVE",
"591 244 CURVE SMOOTH",
"597 191 OFFCURVE",
"589 146 OFFCURVE",
"571 102 CURVE",
"535 83 OFFCURVE",
"474 72 OFFCURVE",
"410 72 CURVE SMOOTH",
"240 72 OFFCURVE",
"120 187 OFFCURVE",
"120 350 CURVE SMOOTH",
"120 442 OFFCURVE",
"149 517 OFFCURVE",
"237 609 CURVE SMOOTH",
"260 633 LINE",
"253 640 LINE",
"190 577 LINE SMOOTH",
"60 447 OFFCURVE",
"25 360 OFFCURVE",
"25 263 CURVE SMOOTH"
);
},
{
closed = 1;
nodes = (
"221 284 OFFCURVE",
"212 377 OFFCURVE",
"212 503 CURVE SMOOTH",
"212 545 OFFCURVE",
"227 576 OFFCURVE",
"267 617 CURVE SMOOTH",
"316 667 LINE SMOOTH",
"362 714 OFFCURVE",
"415 736 OFFCURVE",
"480 736 CURVE SMOOTH",
"613 736 OFFCURVE",
"696 645 OFFCURVE",
"857 606 CURVE",
"758 517 LINE",
"618 556 OFFCURVE",
"521 645 OFFCURVE",
"420 645 CURVE SMOOTH",
"376 645 OFFCURVE",
"339 638 OFFCURVE",
"308 624 CURVE",
"293 549 OFFCURVE",
"311 375 OFFCURVE",
"331 282 CURVE",
"241 194 LINE"
);
}
);
};
layerId = "067C741D-83EE-4D67-B505-35AEC4E62BA8";
name = "Nov 28 19, 11:45";
paths = (
{
closed = 1;
nodes = (
"221 286 OFFCURVE",
"212 379 OFFCURVE",
"212 503 CURVE SMOOTH",
"212 545 OFFCURVE",
"227 576 OFFCURVE",
"267 617 CURVE SMOOTH",
"316 667 LINE SMOOTH",
"362 714 OFFCURVE",
"415 736 OFFCURVE",
"480 736 CURVE SMOOTH",
"613 736 OFFCURVE",
"696 645 OFFCURVE",
"857 606 CURVE",
"758 517 LINE",
"618 556 OFFCURVE",
"521 645 OFFCURVE",
"420 645 CURVE SMOOTH",
"376 645 OFFCURVE",
"339 638 OFFCURVE",
"308 624 CURVE",
"304 606 OFFCURVE",
"303 579 OFFCURVE",
"303 548 CURVE SMOOTH",
"303 470 OFFCURVE",
"313 363 OFFCURVE",
"331 282 CURVE",
"241 194 LINE"
);
},
{
closed = 1;
nodes = (
"25 98 OFFCURVE",
"177 -32 OFFCURVE",
"332 -32 CURVE SMOOTH",
"445 -32 OFFCURVE",
"502 17 OFFCURVE",
"573 88 CURVE SMOOTH",
"592 107 LINE SMOOTH",
"647 162 OFFCURVE",
"677 228 OFFCURVE",
"677 292 CURVE SMOOTH",
"677 382 OFFCURVE",
"587 473 OFFCURVE",
"498 473 CURVE",
"400 378 LINE",
"410 381 OFFCURVE",
"421 382 OFFCURVE",
"431 382 CURVE SMOOTH",
"521 382 OFFCURVE",
"598 301 OFFCURVE",
"598 200 CURVE SMOOTH",
"598 166 OFFCURVE",
"590 133 OFFCURVE",
"568 108 CURVE",
"536 84 OFFCURVE",
"482 72 OFFCURVE",
"410 72 CURVE SMOOTH",
"240 72 OFFCURVE",
"120 187 OFFCURVE",
"120 350 CURVE SMOOTH",
"120 447 OFFCURVE",
"154 522 OFFCURVE",
"237 609 CURVE",
"74 472 OFFCURVE",
"25 392 OFFCURVE",
"25 263 CURVE SMOOTH"
);
}
);
userData = {
com.schriftgestaltung.Glyphs.lastChange = "2019-10-26 23:34:56 +0000";
};
width = 697;
},
{
associatedMasterId = master01;
background = {
paths = (
{
closed = 1;
nodes = (
"25 112 OFFCURVE",
"158 -32 OFFCURVE",
"339 -32 CURVE SMOOTH",
"428 -32 OFFCURVE",
"494 7 OFFCURVE",
"567 80 CURVE SMOOTH",
"592 105 LINE SMOOTH",
"645 158 OFFCURVE",
"677 224 OFFCURVE",
"677 290 CURVE SMOOTH",
"677 380 OFFCURVE",
"587 471 OFFCURVE",
"498 471 CURVE",
"400 376 LINE",
"477 397 OFFCURVE",
"582 332 OFFCURVE",
"591 244 CURVE SMOOTH",
"597 191 OFFCURVE",
"589 146 OFFCURVE",
"571 102 CURVE",
"535 83 OFFCURVE",
"474 72 OFFCURVE",
"410 72 CURVE SMOOTH",
"240 72 OFFCURVE",
"120 187 OFFCURVE",
"120 350 CURVE SMOOTH",
"120 442 OFFCURVE",
"149 517 OFFCURVE",
"237 609 CURVE SMOOTH",
"260 633 LINE",
"253 640 LINE",
"190 577 LINE SMOOTH",
"60 447 OFFCURVE",
"25 360 OFFCURVE",
"25 263 CURVE SMOOTH"
);
},
{
closed = 1;
nodes = (
"221 284 OFFCURVE",
"212 377 OFFCURVE",
"212 503 CURVE SMOOTH",
"212 545 OFFCURVE",
"227 576 OFFCURVE",
"267 617 CURVE SMOOTH",
"316 667 LINE SMOOTH",
"362 714 OFFCURVE",
"415 736 OFFCURVE",
"480 736 CURVE SMOOTH",
"613 736 OFFCURVE",
"696 645 OFFCURVE",
"857 606 CURVE",
"758 517 LINE",
"618 556 OFFCURVE",
"521 645 OFFCURVE",
"420 645 CURVE SMOOTH",
"376 645 OFFCURVE",
"339 638 OFFCURVE",
"308 624 CURVE",
"293 549 OFFCURVE",
"311 375 OFFCURVE",
"331 282 CURVE",
"241 194 LINE"
);
}
);
};
layerId = "6D5A46AE-16B8-4BDC-9D4D-E97406B11F6A";
name = "Dec 2 19, 18:10";
paths = (
{
closed = 1;
nodes = (
"221 286 OFFCURVE",
"212 379 OFFCURVE",
"212 503 CURVE SMOOTH",
"212 545 OFFCURVE",
"227 576 OFFCURVE",
"267 617 CURVE SMOOTH",
"316 667 LINE SMOOTH",
"362 714 OFFCURVE",
"415 736 OFFCURVE",
"480 736 CURVE SMOOTH",
"613 736 OFFCURVE",
"696 645 OFFCURVE",
"857 606 CURVE",
"758 517 LINE",
"618 556 OFFCURVE",
"521 645 OFFCURVE",
"420 645 CURVE SMOOTH",
"376 645 OFFCURVE",
"339 638 OFFCURVE",
"308 624 CURVE",
"304 606 OFFCURVE",
"303 579 OFFCURVE",
"303 548 CURVE SMOOTH",
"303 470 OFFCURVE",
"313 363 OFFCURVE",
"331 282 CURVE",
"241 194 LINE"
);
},
{
closed = 1;
nodes = (
"25 98 OFFCURVE",
"177 -32 OFFCURVE",
"332 -32 CURVE SMOOTH",
"445 -32 OFFCURVE",
"503 16 OFFCURVE",
"573 86 CURVE SMOOTH",
"592 105 LINE SMOOTH",
"647 160 OFFCURVE",
"677 227 OFFCURVE",
"677 292 CURVE SMOOTH",
"677 382 OFFCURVE",
"591 473 OFFCURVE",
"498 473 CURVE",
"400 378 LINE",
"410 381 OFFCURVE",
"421 382 OFFCURVE",
"431 382 CURVE SMOOTH",
"518 382 OFFCURVE",
"593 306 OFFCURVE",
"593 212 CURVE SMOOTH",
"593 172 OFFCURVE",
"587 134 OFFCURVE",
"569 104 CURVE",
"537 83 OFFCURVE",
"482 72 OFFCURVE",
"410 72 CURVE SMOOTH",
"240 72 OFFCURVE",
"120 187 OFFCURVE",
"120 350 CURVE SMOOTH",
"120 447 OFFCURVE",
"154 522 OFFCURVE",
"237 609 CURVE",
"74 472 OFFCURVE",
"25 392 OFFCURVE",
"25 263 CURVE SMOOTH"
);
}
);
userData = {
com.schriftgestaltung.Glyphs.lastChange = "2019-10-26 23:34:56 +0000";
};
width = 707;
},
{
associatedMasterId = master01;
background = {
paths = (
{
closed = 1;
nodes = (
"25 112 OFFCURVE",
"158 -32 OFFCURVE",
"339 -32 CURVE SMOOTH",
"428 -32 OFFCURVE",
"494 7 OFFCURVE",
"567 80 CURVE SMOOTH",
"592 105 LINE SMOOTH",
"645 158 OFFCURVE",
"677 224 OFFCURVE",
"677 290 CURVE SMOOTH",
"677 380 OFFCURVE",
"587 471 OFFCURVE",
"498 471 CURVE",
"400 376 LINE",
"477 397 OFFCURVE",
"582 332 OFFCURVE",
"591 244 CURVE SMOOTH",
"597 191 OFFCURVE",
"589 146 OFFCURVE",
"571 102 CURVE",
"535 83 OFFCURVE",
"474 72 OFFCURVE",
"410 72 CURVE SMOOTH",
"240 72 OFFCURVE",
"120 187 OFFCURVE",
"120 350 CURVE SMOOTH",
"120 442 OFFCURVE",
"149 517 OFFCURVE",
"237 609 CURVE SMOOTH",
"260 633 LINE",
"253 640 LINE",
"190 577 LINE SMOOTH",
"60 447 OFFCURVE",
"25 360 OFFCURVE",
"25 263 CURVE SMOOTH"
);
},
{
closed = 1;
nodes = (
"221 284 OFFCURVE",
"212 377 OFFCURVE",
"212 503 CURVE SMOOTH",
"212 545 OFFCURVE",
"227 576 OFFCURVE",
"267 617 CURVE SMOOTH",
"316 667 LINE SMOOTH",
"362 714 OFFCURVE",
"415 736 OFFCURVE",
"480 736 CURVE SMOOTH",
"613 736 OFFCURVE",
"696 645 OFFCURVE",
"857 606 CURVE",
"758 517 LINE",
"618 556 OFFCURVE",
"521 645 OFFCURVE",
"420 645 CURVE SMOOTH",
"376 645 OFFCURVE",
"339 638 OFFCURVE",
"308 624 CURVE",
"293 549 OFFCURVE",
"311 375 OFFCURVE",
"331 282 CURVE",
"241 194 LINE"
);
}
);
};
layerId = "7F335FE5-63DD-4AB4-823D-F503A7106486";
name = "Dec 3 19, 11:23";
paths = (
{
closed = 1;
nodes = (
"241 286 OFFCURVE",
"232 379 OFFCURVE",
"232 503 CURVE SMOOTH",
"232 545 OFFCURVE",
"247 576 OFFCURVE",
"287 617 CURVE SMOOTH",
"336 667 LINE SMOOTH",
"382 714 OFFCURVE",
"415 736 OFFCURVE",
"500 736 CURVE SMOOTH",
"633 736 OFFCURVE",
"716 645 OFFCURVE",
"877 606 CURVE",
"778 517 LINE",
"638 556 OFFCURVE",
"521 645 OFFCURVE",
"440 645 CURVE SMOOTH",
"396 645 OFFCURVE",
"359 638 OFFCURVE",
"328 624 CURVE",
"324 606 OFFCURVE",
"323 579 OFFCURVE",
"323 548 CURVE SMOOTH",
"323 470 OFFCURVE",
"333 363 OFFCURVE",
"351 282 CURVE",
"261 194 LINE"
);
},
{
closed = 1;
nodes = (
"45 99 OFFCURVE",
"179 -28 OFFCURVE",
"317 -28 CURVE SMOOTH",
"448 -28 OFFCURVE",
"510 18 OFFCURVE",
"576 84 CURVE SMOOTH",
"595 103 LINE SMOOTH",
"645 153 OFFCURVE",
"682 226 OFFCURVE",
"682 292 CURVE SMOOTH",
"682 382 OFFCURVE",
"596 473 OFFCURVE",
"503 473 CURVE",
"405 378 LINE",
"415 381 OFFCURVE",
"426 382 OFFCURVE",
"436 382 CURVE SMOOTH",
"523 382 OFFCURVE",
"598 306 OFFCURVE",
"598 212 CURVE SMOOTH",
"598 171 OFFCURVE",
"592 133 OFFCURVE",
"572 102 CURVE",
"543 82 OFFCURVE",
"504 72 OFFCURVE",
"430 72 CURVE SMOOTH",
"260 72 OFFCURVE",
"140 187 OFFCURVE",
"140 350 CURVE SMOOTH",
"140 447 OFFCURVE",
"174 522 OFFCURVE",
"257 609 CURVE",
"94 472 OFFCURVE",
"45 392 OFFCURVE",
"45 263 CURVE SMOOTH"
);
}
);
userData = {
com.schriftgestaltung.Glyphs.lastChange = "2019-10-26 23:34:56 +0000";
};
width = 707;
},
{
associatedMasterId = master01;
background = {
paths = (
{
closed = 1;
nodes = (
"241 279 OFFCURVE",
"232 372 OFFCURVE",
"232 496 CURVE SMOOTH",
"232 538 OFFCURVE",
"247 569 OFFCURVE",
"287 610 CURVE SMOOTH",
"336 660 LINE SMOOTH",
"382 707 OFFCURVE",
"415 729 OFFCURVE",
"500 729 CURVE SMOOTH",
"633 729 OFFCURVE",
"716 638 OFFCURVE",
"877 599 CURVE",
"778 510 LINE",
"638 549 OFFCURVE",
"521 638 OFFCURVE",
"440 638 CURVE SMOOTH",
"396 638 OFFCURVE",
"359 631 OFFCURVE",
"328 617 CURVE",
"324 599 OFFCURVE",
"323 572 OFFCURVE",
"323 541 CURVE SMOOTH",
"323 463 OFFCURVE",
"333 356 OFFCURVE",
"351 275 CURVE",
"261 187 LINE"
);
},
{
closed = 1;
nodes = (
"45 92 OFFCURVE",
"182 -38 OFFCURVE",
"321 -38 CURVE SMOOTH",
"451 -38 OFFCURVE",
"510 11 OFFCURVE",
"576 77 CURVE SMOOTH",
"595 96 LINE SMOOTH",
"644 145 OFFCURVE",
"677 219 OFFCURVE",
"677 285 CURVE SMOOTH",
"677 375 OFFCURVE",
"591 466 OFFCURVE",
"498 466 CURVE",
"400 371 LINE",
"410 374 OFFCURVE",
"421 375 OFFCURVE",
"431 375 CURVE SMOOTH",
"518 375 OFFCURVE",
"593 299 OFFCURVE",
"593 205 CURVE SMOOTH",
"593 164 OFFCURVE",
"588 126 OFFCURVE",
"572 95 CURVE",
"543 75 OFFCURVE",
"504 65 OFFCURVE",
"430 65 CURVE SMOOTH",
"260 65 OFFCURVE",
"140 180 OFFCURVE",
"140 343 CURVE SMOOTH",
"140 440 OFFCURVE",
"174 515 OFFCURVE",
"257 602 CURVE",
"94 465 OFFCURVE",
"45 385 OFFCURVE",
"45 256 CURVE SMOOTH"
);
}
);
};
backgroundImage = {
crop = "{{0, 0}, {319, 308}}";
imagePath = "../../Desktop/Screen Shot 2019-12-04 at 8.23.44 PM.png";
locked = "1";
transform = "{3.25643, 0, 0, 3.25643, -62.192, -91.746}";
};
layerId = "DEAEDDB6-1C74-4767-A860-FD65A83B7AA6";
name = "Dec 4 19, 20:28";
paths = (
{
closed = 1;
nodes = (
"241 279 OFFCURVE",
"232 372 OFFCURVE",
"232 496 CURVE SMOOTH",
"232 538 OFFCURVE",
"247 569 OFFCURVE",
"287 610 CURVE SMOOTH",
"336 660 LINE SMOOTH",
"382 707 OFFCURVE",
"415 729 OFFCURVE",
"500 729 CURVE SMOOTH",
"633 729 OFFCURVE",
"716 638 OFFCURVE",
"877 599 CURVE",
"778 510 LINE",
"638 549 OFFCURVE",
"521 638 OFFCURVE",
"440 638 CURVE SMOOTH",
"396 638 OFFCURVE",
"359 631 OFFCURVE",
"328 617 CURVE",
"324 599 OFFCURVE",
"323 572 OFFCURVE",
"323 541 CURVE SMOOTH",
"323 463 OFFCURVE",
"333 356 OFFCURVE",
"351 275 CURVE",
"261 187 LINE"
);
},
{
closed = 1;
nodes = (
"45 92 OFFCURVE",
"182 -38 OFFCURVE",
"321 -38 CURVE SMOOTH",
"451 -38 OFFCURVE",
"510 11 OFFCURVE",
"576 77 CURVE SMOOTH",
"595 96 LINE SMOOTH",
"644 145 OFFCURVE",
"677 219 OFFCURVE",
"677 285 CURVE SMOOTH",
"677 375 OFFCURVE",
"591 466 OFFCURVE",
"498 466 CURVE",
"400 371 LINE",
"410 374 OFFCURVE",
"421 375 OFFCURVE",
"431 375 CURVE SMOOTH",
"518 375 OFFCURVE",
"593 299 OFFCURVE",
"593 205 CURVE SMOOTH",
"593 164 OFFCURVE",
"588 126 OFFCURVE",
"572 95 CURVE",
"543 75 OFFCURVE",
"504 65 OFFCURVE",
"430 65 CURVE SMOOTH",
"260 65 OFFCURVE",
"140 180 OFFCURVE",
"140 343 CURVE SMOOTH",
"140 440 OFFCURVE",
"174 515 OFFCURVE",
"257 602 CURVE",
"94 465 OFFCURVE",
"45 385 OFFCURVE",
"45 256 CURVE SMOOTH"
);
}
);
userData = {
com.schriftgestaltung.Glyphs.lastChange = "2019-10-26 23:34:56 +0000";
};
width = 702;
},
{
associatedMasterId = master01;
background = {
paths = (
{
closed = 1;
nodes = (
"241 279 OFFCURVE",
"232 372 OFFCURVE",
"232 496 CURVE SMOOTH",
"232 538 OFFCURVE",
"247 569 OFFCURVE",
"287 610 CURVE SMOOTH",
"336 660 LINE SMOOTH",
"382 707 OFFCURVE",
"415 729 OFFCURVE",
"500 729 CURVE SMOOTH",
"633 729 OFFCURVE",
"716 638 OFFCURVE",
"877 599 CURVE",
"778 510 LINE",
"638 549 OFFCURVE",
"521 638 OFFCURVE",
"440 638 CURVE SMOOTH",
"396 638 OFFCURVE",
"359 631 OFFCURVE",
"328 617 CURVE",
"324 599 OFFCURVE",
"323 572 OFFCURVE",
"323 541 CURVE SMOOTH",
"323 463 OFFCURVE",
"333 356 OFFCURVE",
"351 275 CURVE",
"261 187 LINE"
);
},
{
closed = 1;
nodes = (
"45 92 OFFCURVE",
"182 -38 OFFCURVE",
"321 -38 CURVE SMOOTH",
"451 -38 OFFCURVE",
"510 11 OFFCURVE",
"576 77 CURVE SMOOTH",
"595 96 LINE SMOOTH",
"644 145 OFFCURVE",
"677 219 OFFCURVE",
"677 285 CURVE SMOOTH",
"677 375 OFFCURVE",
"591 466 OFFCURVE",
"498 466 CURVE",
"400 371 LINE",
"410 374 OFFCURVE",
"421 375 OFFCURVE",
"431 375 CURVE SMOOTH",
"518 375 OFFCURVE",
"593 299 OFFCURVE",
"593 205 CURVE SMOOTH",
"593 164 OFFCURVE",
"588 126 OFFCURVE",
"572 95 CURVE",
"543 75 OFFCURVE",
"504 65 OFFCURVE",
"430 65 CURVE SMOOTH",
"260 65 OFFCURVE",
"140 180 OFFCURVE",
"140 343 CURVE SMOOTH",
"140 440 OFFCURVE",
"174 515 OFFCURVE",
"257 602 CURVE",
"94 465 OFFCURVE",
"45 385 OFFCURVE",
"45 256 CURVE SMOOTH"
);
}
);
};
backgroundImage = {
crop = "{{0, 0}, {319, 308}}";
imagePath = "../../Desktop/Screen Shot 2019-12-04 at 8.23.44 PM.png";
transform = "{3.25643, 0, 0, 3.25643, -62.192, -91.746}";
};
layerId = "3B22B1A2-D1B3-40E9-B3F6-B265D7CC22CB";
name = "Dec 4 19, 20:28";
paths = (
{
closed = 1;
nodes = (
"241 279 OFFCURVE",
"232 372 OFFCURVE",
"232 496 CURVE SMOOTH",
"232 538 OFFCURVE",
"247 569 OFFCURVE",
"287 610 CURVE SMOOTH",
"336 660 LINE SMOOTH",
"382 707 OFFCURVE",
"415 729 OFFCURVE",
"500 729 CURVE SMOOTH",
"633 729 OFFCURVE",
"716 638 OFFCURVE",
"877 599 CURVE",
"778 510 LINE",
"638 549 OFFCURVE",
"521 638 OFFCURVE",
"440 638 CURVE SMOOTH",
"396 638 OFFCURVE",
"359 631 OFFCURVE",
"328 617 CURVE",
"324 599 OFFCURVE",
"323 572 OFFCURVE",
"323 541 CURVE SMOOTH",
"323 463 OFFCURVE",
"333 356 OFFCURVE",
"351 275 CURVE",
"261 187 LINE"
);
},
{
closed = 1;
nodes = (
"45 92 OFFCURVE",
"182 -38 OFFCURVE",
"321 -38 CURVE SMOOTH",
"451 -38 OFFCURVE",
"510 11 OFFCURVE",
"576 77 CURVE SMOOTH",
"595 96 LINE SMOOTH",
"644 145 OFFCURVE",
"677 219 OFFCURVE",
"677 285 CURVE SMOOTH",
"677 375 OFFCURVE",
"591 466 OFFCURVE",
"498 466 CURVE",
"400 371 LINE",
"410 374 OFFCURVE",
"421 375 OFFCURVE",
"431 375 CURVE SMOOTH",
"518 375 OFFCURVE",
"593 299 OFFCURVE",
"593 205 CURVE SMOOTH",
"593 164 OFFCURVE",
"588 126 OFFCURVE",
"572 95 CURVE",
"543 75 OFFCURVE",
"504 65 OFFCURVE",
"430 65 CURVE SMOOTH",
"260 65 OFFCURVE",
"140 180 OFFCURVE",
"140 343 CURVE SMOOTH",
"140 440 OFFCURVE",
"174 515 OFFCURVE",
"257 602 CURVE",
"94 465 OFFCURVE",
"45 385 OFFCURVE",
"45 256 CURVE SMOOTH"
);
}
);
userData = {
com.schriftgestaltung.Glyphs.lastChange = "2019-10-26 23:34:56 +0000";
};
width = 702;
},
{
associatedMasterId = master01;
background = {
paths = (
{
closed = 1;
nodes = (
"241 279 OFFCURVE",
"232 372 OFFCURVE",
"232 496 CURVE SMOOTH",
"232 538 OFFCURVE",
"247 569 OFFCURVE",
"287 610 CURVE SMOOTH",
"336 660 LINE SMOOTH",
"382 707 OFFCURVE",
"415 729 OFFCURVE",
"500 729 CURVE SMOOTH",
"633 729 OFFCURVE",
"716 638 OFFCURVE",
"877 599 CURVE",
"778 510 LINE",
"638 549 OFFCURVE",
"521 638 OFFCURVE",
"440 638 CURVE SMOOTH",
"396 638 OFFCURVE",
"359 631 OFFCURVE",
"328 617 CURVE",
"324 599 OFFCURVE",
"323 572 OFFCURVE",
"323 541 CURVE SMOOTH",
"323 463 OFFCURVE",
"333 356 OFFCURVE",
"351 275 CURVE",
"261 187 LINE"
);
},
{
closed = 1;
nodes = (
"45 92 OFFCURVE",
"182 -38 OFFCURVE",
"321 -38 CURVE SMOOTH",
"451 -38 OFFCURVE",
"510 11 OFFCURVE",
"576 77 CURVE SMOOTH",
"595 96 LINE SMOOTH",
"644 145 OFFCURVE",
"677 219 OFFCURVE",
"677 285 CURVE SMOOTH",
"677 375 OFFCURVE",
"591 466 OFFCURVE",
"498 466 CURVE",
"400 371 LINE",
"410 374 OFFCURVE",
"421 375 OFFCURVE",
"431 375 CURVE SMOOTH",
"518 375 OFFCURVE",
"593 299 OFFCURVE",
"593 205 CURVE SMOOTH",
"593 164 OFFCURVE",
"588 126 OFFCURVE",
"572 95 CURVE",
"543 75 OFFCURVE",
"504 65 OFFCURVE",
"430 65 CURVE SMOOTH",
"260 65 OFFCURVE",
"140 180 OFFCURVE",
"140 343 CURVE SMOOTH",
"140 440 OFFCURVE",
"174 515 OFFCURVE",
"257 602 CURVE",
"94 465 OFFCURVE",
"45 385 OFFCURVE",
"45 256 CURVE SMOOTH"
);
}
);
};
layerId = "473E026C-9072-47D8-AA6D-5BED32493CD8";
name = "Dec 4 19, 20:39";
paths = (
{
closed = 1;
nodes = (
"211 259 OFFCURVE",
"202 344 OFFCURVE",
"202 460 CURVE SMOOTH",
"202 519 OFFCURVE",
"218 559 OFFCURVE",
"259 600 CURVE SMOOTH",
"308 650 LINE SMOOTH",
"360 703 OFFCURVE",
"398 719 OFFCURVE",
"472 719 CURVE SMOOTH",
"635 719 OFFCURVE",
"688 623 OFFCURVE",
"849 589 CURVE",
"755 510 LINE",
"613 544 OFFCURVE",
"535 638 OFFCURVE",
"412 638 CURVE SMOOTH",
"367 638 OFFCURVE",
"331 631 OFFCURVE",
"300 616 CURVE",
"296 586 OFFCURVE",
"295 561 OFFCURVE",
"295 531 CURVE SMOOTH",
"295 438 OFFCURVE",
"306 332 OFFCURVE",
"323 265 CURVE",
"233 177 LINE"
);
},
{
closed = 1;
nodes = (
"17 96 OFFCURVE",
"155 -38 OFFCURVE",
"321 -38 CURVE SMOOTH",
"413 -38 OFFCURVE",
"496 -3 OFFCURVE",
"564 65 CURVE SMOOTH",
"602 103 LINE SMOOTH",
"648 149 OFFCURVE",
"677 220 OFFCURVE",
"677 285 CURVE SMOOTH",
"677 377 OFFCURVE",
"589 466 OFFCURVE",
"498 466 CURVE",
"400 371 LINE",
"407 374 OFFCURVE",
"415 375 OFFCURVE",
"431 375 CURVE SMOOTH",
"519 375 OFFCURVE",
"593 298 OFFCURVE",
"593 205 CURVE SMOOTH",
"593 163 OFFCURVE",
"586 126 OFFCURVE",
"572 95 CURVE",
"530 69 OFFCURVE",
"471 55 OFFCURVE",
"402 55 CURVE SMOOTH",
"235 55 OFFCURVE",
"122 171 OFFCURVE",
"122 343 CURVE SMOOTH",
"122 440 OFFCURVE",
"156 515 OFFCURVE",
"239 602 CURVE",
"68 465 OFFCURVE",
"17 385 OFFCURVE",
"17 256 CURVE SMOOTH"
);
}
);
userData = {
com.schriftgestaltung.Glyphs.lastChange = "2019-10-26 23:34:56 +0000";
};
width = 702;
}
);
leftKerningGroup = G;
unicode = 0047;
},
{
glyphname = O;
layers = (
{
layerId = master01;
paths = (
{
closed = 1;
nodes = (
"311.37 39.251 OFFCURVE",
"236.791 78.225 OFFCURVE",
"187.462 139.33 CURVE SMOOTH",
"179.021 149.786 OFFCURVE",
"171.26 160.935 OFFCURVE",
"164.381 172.394 CURVE SMOOTH",
"135.437 224.523 OFFCURVE",
"122.133 285.544 OFFCURVE",
"128.366 344.89 CURVE SMOOTH",
"135.309 410.979 OFFCURVE",
"149.87 480.736 OFFCURVE",
"215.343 519.443 CURVE SMOOTH",
"246.167 537.667 OFFCURVE",
"287.344 534.512 OFFCURVE",
"323.798 531.3 CURVE SMOOTH",
"390.475 525.424 OFFCURVE",
"454.599 495.384 OFFCURVE",
"502.538 448.67 CURVE SMOOTH",
"520.748 430.926 OFFCURVE",
"536.652 410.661 OFFCURVE",
"549.691 388.922 CURVE SMOOTH",
"572.973 347.003 OFFCURVE",
"586.262 299.676 OFFCURVE",
"587.093 251.782 CURVE SMOOTH",
"588.423 175.128 OFFCURVE",
"565.208 103.145 OFFCURVE",
"520.5 64.5 CURVE SMOOTH",
"491 39 OFFCURVE",
"442.355 24.884 OFFCURVE",
"389.435 30.688 CURVE",
"389.435 30.688 LINE"
);
},
{
closed = 1;
nodes = (
"651.126 453.314 LINE SMOOTH",
"637.573 476.779 OFFCURVE",
"620.865 498.422 OFFCURVE",
"601.461 517.33 CURVE SMOOTH",
"553.521 564.044 OFFCURVE",
"489.398 594.084 OFFCURVE",
"422.722 599.96 CURVE SMOOTH",
"366.122 604.947 OFFCURVE",
"308.135 592.25 OFFCURVE",
"258.73 563.844 CURVE SMOOTH",
"258.394 563.649 LINE",
"154.47 503.649 LINE SMOOTH",
"145.868 498.682 OFFCURVE",
"137.539 493.238 OFFCURVE",
"129.538 487.33 CURVE SMOOTH",
"68.02 441.903 OFFCURVE",
"27.433 369.604 OFFCURVE",
"19.443 293.55 CURVE SMOOTH",
"13.052 232.694 OFFCURVE",
"27.17 170.17 OFFCURVE",
"57.678 117.126 CURVE SMOOTH",
"57.719 117.055 OFFCURVE",
"57.679 117.124 OFFCURVE",
"57.72 117.052 CURVE SMOOTH",
"62.94 108.01 LINE SMOOTH",
"70.496 94.927 OFFCURVE",
"79.049 82.425 OFFCURVE",
"88.539 70.67 CURVE SMOOTH",
"137.868 9.564 OFFCURVE",
"212.288 -31.003 OFFCURVE",
"290.512 -37.972 CURVE SMOOTH",
"347.645 -43.062 OFFCURVE",
"406.22 -29.783 OFFCURVE",
"455.814 -1.154 CURVE SMOOTH",
"559.737 58.846 LINE SMOOTH",
"578.043 69.413 OFFCURVE",
"595.126 82.071 OFFCURVE",
"610.461 96.67 CURVE SMOOTH",
"665.989 149.529 OFFCURVE",
"697.346 226.468 OFFCURVE",
"696.016 303.122 CURVE SMOOTH",
"695.158 352.514 OFFCURVE",
"681.021 401.381 OFFCURVE",
"656.384 444.207 CURVE SMOOTH",
"651.168 453.242 LINE"
);
},
{
closed = 1;
nodes = (
"278.251 284.603 LINE",
"335.251 217.603 LINE",
"427.176 294.737 LINE",
"420.748 302.397 LINE",
"363.748 369.397 LINE",
"271.823 292.264 LINE"
);
}
);
width = 717;
}
);
leftKerningGroup = O;
unicode = 004F;
},
{
glyphname = P;
layers = (
{
layerId = master01;
paths = (
{
closed = 1;
nodes = (
"160.414 442.271 LINE",
"198.975 480.832 LINE",
"238.815 513.579 OFFCURVE",
"297.192 548.74 OFFCURVE",
"366.218 550.076 CURVE SMOOTH",
"423.419 551.183 OFFCURVE",
"487.93 524.212 OFFCURVE",
"535.914 478.022 CURVE SMOOTH",
"575.621 436.754 OFFCURVE",
"606.144 381.668 OFFCURVE",
"602.147 318.147 CURVE SMOOTH",
"598.01 252.374 OFFCURVE",
"572.114 169.473 OFFCURVE",
"514 112 CURVE",
"463.3 124.481 OFFCURVE",
"433.167 126.426 OFFCURVE",
"384 144 CURVE SMOOTH",
"335.543 161.32 OFFCURVE",
"311.41 178.77 OFFCURVE",
"265 201 CURVE",
"180.147 116.147 LINE",
"187.218 109.076 LINE",
"233.628 86.846 OFFCURVE",
"257.762 69.397 OFFCURVE",
"306.219 52.076 CURVE SMOOTH",
"355.386 34.502 OFFCURVE",
"385.519 32.557 OFFCURVE",
"436.219 20.076 CURVE",
"460.405 34.365 OFFCURVE",
"546.249 113.154 OFFCURVE",
"587.218 156.537 CURVE SMOOTH",
"668.87 243 OFFCURVE",
"693.641 316.994 OFFCURVE",
"694.071 395.929 CURVE SMOOTH",
"694.428 461.226 OFFCURVE",
"666.047 517.511 OFFCURVE",
"624.675 559.032 CURVE SMOOTH",
"617.268 566.44 LINE",
"617.209 566.499 LINE SMOOTH",
"568.768 614.908 OFFCURVE",
"502.657 643.135 OFFCURVE",
"444 642 CURVE SMOOTH",
"355.084 640.279 OFFCURVE",
"283.479 582.146 OFFCURVE",
"247.75 546.425 CURVE SMOOTH",
"162.897 461.572 LINE SMOOTH",
"162.114 460.789 OFFCURVE",
"161.348 460.017 OFFCURVE",
"160.599 459.256 CURVE",
"162.071 593.929 LINE",
"155 601 LINE",
"155 601 OFFCURVE",
"105 567.981 OFFCURVE",
"45.334 574.001 CURVE SMOOTH",
"-7.293 579.311 OFFCURVE",
"-47.403 618.421 OFFCURVE",
"-49.881 620.882 CURVE SMOOTH",
"-50 621 LINE",
"-134.853 536.147 LINE",
"-134.853 536.147 OFFCURVE",
"-134.835 536.13 OFFCURVE",
"-134.8 536.095 CURVE SMOOTH",
"-127.721 529.017 LINE",
"-127.7 528.996 LINE SMOOTH",
"-125.668 526.97 OFFCURVE",
"-85.387 487.418 OFFCURVE",
"-32.447 482.077 CURVE SMOOTH",
"13.776 477.414 OFFCURVE",
"54.329 496.262 OFFCURVE",
"70.017 504.846 CURVE",
"68.644 392.689 LINE",
"9.109 361.038 LINE",
"68.032 342.707 LINE",
"67.784 322.445 LINE",
"14.109 288.038 LINE",
"63.581 267.668 LINE",
"19.109 230.038 LINE",
"66.243 196.606 LINE",
"62.147 -137.962 LINE",
"154.071 -137.962 LINE"
);
},
{
closed = 1;
nodes = (
"264.805 332.98 LINE",
"349.657 248.127 LINE",
"434.511 332.98 LINE",
"349.657 417.832 LINE"
);
}
);
width = 710;
}
);
leftKerningGroup = B.alt;
unicode = 0050;
},
{
glyphname = Q;
layers = (
{
layerId = master01;
paths = (
{
closed = 1;
nodes = (
"157.896 466.29 OFFCURVE",
"164.596 472.43 OFFCURVE",
"172.753 479.235 CURVE",
"167.918 429.94 OFFCURVE",
"170.045 379.966 OFFCURVE",
"179.072 331.263 CURVE SMOOTH",
"191.067 266.553 OFFCURVE",
"215.287 204.131 OFFCURVE",
"250.072 148.263 CURVE",
"256.5 140.603 LINE",
"348.426 217.737 LINE",
"313.64 273.604 OFFCURVE",
"289.421 336.027 OFFCURVE",
"277.426 400.737 CURVE SMOOTH",
"268.331 449.804 OFFCURVE",
"266.236 500.066 OFFCURVE",
"271.213 549.791 CURVE",
"380.406 561.449 OFFCURVE",
"494.425 516.742 OFFCURVE",
"566.675 433.888 CURVE SMOOTH",
"624.87 361.004 OFFCURVE",
"635.119 240.129 OFFCURVE",
"619.921 135.85 CURVE",
"429.998 -4.603 LINE",
"351.465 -7.071 OFFCURVE",
"272.343 19.302 OFFCURVE",
"210.998 68.397 CURVE SMOOTH",
"195.244 81.006 OFFCURVE",
"180.636 95.117 OFFCURVE",
"167.464 110.352 CURVE SMOOTH",
"140.729 143.2 OFFCURVE",
"120.08 181.244 OFFCURVE",
"107.426 221.737 CURVE",
"100.998 229.397 LINE",
"9.073 152.264 LINE",
"22.226 110.175 OFFCURVE",
"43.938 70.825 OFFCURVE",
"72.275 37.049 CURVE SMOOTH",
"78.703 29.388 LINE SMOOTH",
"78.757 29.324 OFFCURVE",
"78.704 29.387 OFFCURVE",
"78.758 29.323 CURVE SMOOTH",
"78.812 29.259 OFFCURVE",
"78.759 29.322 OFFCURVE",
"78.812 29.258 CURVE SMOOTH",
"78.865 29.194 OFFCURVE",
"78.813 29.257 OFFCURVE",
"78.867 29.193 CURVE SMOOTH",
"78.92 29.129 OFFCURVE",
"78.868 29.191 OFFCURVE",
"78.921 29.128 CURVE SMOOTH",
"78.975 29.064 OFFCURVE",
"78.923 29.127 OFFCURVE",
"78.976 29.062 CURVE SMOOTH",
"79.032 28.997 LINE",
"79.085 28.933 LINE SMOOTH",
"93.037 12.362 OFFCURVE",
"108.585 -2.86 OFFCURVE",
"125.5 -16.397 CURVE SMOOTH",
"186.846 -65.493 OFFCURVE",
"265.968 -91.866 OFFCURVE",
"344.501 -89.397 CURVE",
"512.787 35.054 LINE",
"565.786 37.947 OFFCURVE",
"619.241 32.377 OFFCURVE",
"670.501 18.603 CURVE SMOOTH",
"724.19 4.175 OFFCURVE",
"775.451 -19.249 OFFCURVE",
"821.501 -50.397 CURVE",
"913.426 26.737 LINE",
"906.998 34.397 LINE",
"860.949 65.546 OFFCURVE",
"809.687 88.97 OFFCURVE",
"755.998 103.397 CURVE SMOOTH",
"714.31 114.6 OFFCURVE",
"671.172 120.376 OFFCURVE",
"628.006 120.586 CURVE",
"716.675 194.987 LINE",
"734.37 303.106 OFFCURVE",
"724.948 432.017 OFFCURVE",
"662.114 506.921 CURVE SMOOTH",
"655.686 514.581 LINE SMOOTH",
"655.633 514.646 OFFCURVE",
"655.683 514.586 OFFCURVE",
"655.63 514.649 CURVE SMOOTH",
"655.576 514.713 OFFCURVE",
"655.626 514.654 OFFCURVE",
"655.572 514.718 CURVE SMOOTH",
"655.511 514.79 LINE",
"655.458 514.854 LINE SMOOTH",
"655.305 515.035 OFFCURVE",
"655.151 515.217 OFFCURVE",
"654.998 515.397 CURVE SMOOTH",
"582.534 600.796 OFFCURVE",
"466.298 646.903 OFFCURVE",
"354.998 634.397 CURVE",
"265.998 568.397 LINE",
"215.589 526.099 LINE",
"203.05 519.041 OFFCURVE",
"190.524 511.716 OFFCURVE",
"179.086 503.097 CURVE SMOOTH",
"83.249 430.879 LINE SMOOTH",
"76.075 425.473 OFFCURVE",
"69.32 419.571 OFFCURVE",
"63.254 412.912 CURVE SMOOTH",
"46.597 394.628 OFFCURVE",
"36.098 370.606 OFFCURVE",
"35.322 345.885 CURVE SMOOTH",
"34.849 330.807 OFFCURVE",
"37.729 315.756 OFFCURVE",
"42.488 301.441 CURVE SMOOTH",
"47.247 287.127 OFFCURVE",
"53.793 273.483 OFFCURVE",
"60.321 259.884 CURVE SMOOTH",
"72.322 234.885 LINE",
"78.341 226.898 LINE",
"174.177 299.116 LINE",
"162.176 324.115 LINE SMOOTH",
"155.648 337.714 OFFCURVE",
"149.101 351.358 OFFCURVE",
"144.343 365.673 CURVE SMOOTH",
"139.584 379.987 OFFCURVE",
"136.703 395.038 OFFCURVE",
"137.177 410.116 CURVE SMOOTH",
"137.744 428.164 OFFCURVE",
"138.669 446.046 OFFCURVE",
"153.023 461.16 CURVE",
"153.023 461.16 LINE"
);
}
);
width = 915;
}
);
leftKerningGroup = G.alt;
unicode = 0051;
},
{
glyphname = R;
layers = (
{
layerId = master01;
paths = (
{
closed = 1;
nodes = (
"63.046 618.845 LINE",
"113.047 502.845 LINE",
"117.272 493.781 LINE",
"226.029 544.496 LINE",
"176.029 660.496 LINE",
"171.803 669.559 LINE"
);
},
{
closed = 1;
nodes = (
"365.553 595.633 LINE",
"380.647 607.709 LINE",
"387.206 602.822 OFFCURVE",
"393.527 597.467 OFFCURVE",
"399.394 591.877 CURVE SMOOTH",
"429.303 560.482 OFFCURVE",
"449.442 519.739 OFFCURVE",
"455.576 476.779 CURVE SMOOTH",
"461.225 437.214 OFFCURVE",
"455.209 396.055 OFFCURVE",
"438.472 359.762 CURVE SMOOTH",
"434.517 351.185 OFFCURVE",
"429.404 342.593 OFFCURVE",
"424.216 334.419 CURVE",
"365.5 275.703 LINE"
);
},
{
closed = 1;
nodes = (
"273.576 202.863 LINE",
"252.056 181.343 OFFCURVE",
"225.9 155.103 OFFCURVE",
"202.576 131.779 CURVE",
"209.647 124.708 LINE",
"280.647 175.708 LINE",
"367.647 263.708 LINE",
"446.526 234.667 OFFCURVE",
"512.876 179.808 OFFCURVE",
"572.647 120.708 CURVE SMOOTH",
"750.647 -55.292 LINE",
"835.5 29.561 LINE",
"650.429 212.632 LINE SMOOTH",
"594.563 267.869 OFFCURVE",
"532.953 319.402 OFFCURVE",
"460.736 349.613 CURVE",
"469.807 358.685 OFFCURVE",
"479.055 368.029 OFFCURVE",
"488.213 377.187 CURVE SMOOTH",
"505.663 394.631 OFFCURVE",
"520.062 415.135 OFFCURVE",
"530.396 437.544 CURVE SMOOTH",
"547.133 473.837 OFFCURVE",
"553.148 514.995 OFFCURVE",
"547.5 554.561 CURVE SMOOTH",
"541.146 599.063 OFFCURVE",
"519.762 641.187 OFFCURVE",
"488.059 673.005 CURVE SMOOTH",
"488 673.063 LINE",
"487.934 673.129 LINE",
"480.734 680.328 LINE",
"480.676 680.388 LINE SMOOTH",
"473.735 687.323 OFFCURVE",
"466.304 693.766 OFFCURVE",
"458.43 699.633 CURVE",
"205.076 518 LINE",
"178.441 495.804 OFFCURVE",
"158.101 466.348 OFFCURVE",
"145.841 433.916 CURVE SMOOTH",
"133.581 401.485 OFFCURVE",
"129.819 366.562 OFFCURVE",
"127.077 332 CURVE SMOOTH",
"122.077 269 LINE SMOOTH",
"119.16 232.252 OFFCURVE",
"114.79 194.859 OFFCURVE",
"99.087 161.507 CURVE SMOOTH",
"85.596 132.852 OFFCURVE",
"63.946 107.844 OFFCURVE",
"37.827 90.939 CURVE",
"24.076 83 LINE",
"29.076 74.34 LINE",
"211.077 -44.66 LINE",
"315 15.34 LINE",
"310 24 LINE",
"137.566 136.745 LINE",
"139.901 138.093 LINE SMOOTH",
"169.531 155.185 OFFCURVE",
"193.424 181.865 OFFCURVE",
"208.011 212.847 CURVE SMOOTH",
"223.714 246.199 OFFCURVE",
"228.083 283.592 OFFCURVE",
"231 320.34 CURVE SMOOTH",
"236 383.34 LINE SMOOTH",
"238.742 417.902 OFFCURVE",
"242.504 452.824 OFFCURVE",
"254.764 485.256 CURVE SMOOTH",
"259.742 498.425 OFFCURVE",
"266.053 511.104 OFFCURVE",
"273.576 523.005 CURVE",
"273.576 523.005 LINE"
);
}
);
width = 858;
}
);
unicode = 0052;
},
{
glyphname = S;
layers = (
{
layerId = master01;
paths = (
{
closed = 1;
nodes = (
"626.979 370.492 LINE SMOOTH",
"611.464 385.994 OFFCURVE",
"592.627 398.174 OFFCURVE",
"572.085 405.865 CURVE SMOOTH",
"554.885 412.306 OFFCURVE",
"536.517 415.59 OFFCURVE",
"518.152 415.59 CURVE SMOOTH",
"510.706 415.591 OFFCURVE",
"503.259 415.051 OFFCURVE",
"495.891 413.962 CURVE",
"376.178 311.487 LINE",
"357.962 429.891 LINE",
"350.891 436.962 LINE",
"266.038 352.108 LINE",
"235.487 318.475 LINE",
"209.619 325.178 OFFCURVE",
"185.322 338.706 OFFCURVE",
"165.771 357.073 CURVE",
"161.117 362.029 OFFCURVE",
"156.557 367.558 OFFCURVE",
"152.523 373.202 CURVE SMOOTH",
"132.684 400.967 OFFCURVE",
"122.223 435.116 OFFCURVE",
"122.223 469.243 CURVE SMOOTH",
"122.223 474.468 OFFCURVE",
"122.468 479.69 OFFCURVE",
"122.962 484.891 CURVE SMOOTH",
"125.216 508.608 OFFCURVE",
"132.506 531.446 OFFCURVE",
"143.796 552.58 CURVE",
"171.527 568.151 OFFCURVE",
"203.212 578.736 OFFCURVE",
"235.109 584.038 CURVE SMOOTH",
"253.438 587.084 OFFCURVE",
"271.975 588.536 OFFCURVE",
"290.526 588.536 CURVE SMOOTH",
"334.586 588.535 OFFCURVE",
"378.737 580.349 OFFCURVE",
"420.429 565.89 CURVE SMOOTH",
"479.675 545.343 OFFCURVE",
"534.363 511.929 OFFCURVE",
"580.109 469.038 CURVE",
"664.962 553.891 LINE",
"657.892 560.962 LINE SMOOTH",
"612.145 603.853 OFFCURVE",
"557.457 637.267 OFFCURVE",
"498.211 657.813 CURVE SMOOTH",
"456.519 672.272 OFFCURVE",
"412.367 680.459 OFFCURVE",
"368.308 680.46 CURVE SMOOTH",
"349.756 680.46 OFFCURVE",
"331.22 679.008 OFFCURVE",
"312.891 675.962 CURVE SMOOTH",
"265.195 668.035 OFFCURVE",
"218.804 648.784 OFFCURVE",
"182.411 616.952 CURVE SMOOTH",
"178.928 613.905 OFFCURVE",
"175.543 610.737 OFFCURVE",
"172.267 607.457 CURVE SMOOTH",
"87.414 522.604 LINE SMOOTH",
"56.466 491.619 OFFCURVE",
"35.174 450.634 OFFCURVE",
"31.038 407.108 CURVE SMOOTH",
"30.544 401.909 OFFCURVE",
"30.299 396.686 OFFCURVE",
"30.299 391.462 CURVE SMOOTH",
"30.299 357.334 OFFCURVE",
"40.76 323.185 OFFCURVE",
"60.6 295.421 CURVE SMOOTH",
"65.609 288.409 OFFCURVE",
"71.206 281.826 OFFCURVE",
"77.295 275.733 CURVE SMOOTH",
"84.489 268.539 LINE",
"84.554 268.476 LINE",
"84.612 268.417 LINE SMOOTH",
"106.289 246.822 OFFCURVE",
"134.172 231.433 OFFCURVE",
"164.109 225.038 CURVE",
"248.962 309.891 LINE",
"269.119 332.082 LINE",
"286.038 222.109 LINE",
"293.109 215.038 LINE",
"418.109 322.038 LINE",
"425.478 323.126 OFFCURVE",
"432.924 323.667 OFFCURVE",
"440.371 323.666 CURVE SMOOTH",
"458.735 323.666 OFFCURVE",
"477.103 320.382 OFFCURVE",
"494.304 313.941 CURVE SMOOTH",
"513.282 306.835 OFFCURVE",
"530.932 295.788 OFFCURVE",
"545.648 282.002 CURVE",
"547.125 280.426 OFFCURVE",
"548.615 278.766 OFFCURVE",
"550.038 277.108 CURVE SMOOTH",
"574.319 248.834 OFFCURVE",
"587.751 211.61 OFFCURVE",
"587.75 174.344 CURVE",
"587.75 148.604 OFFCURVE",
"581.483 123.683 OFFCURVE",
"570.925 101.987 CURVE",
"544.322 88.149 OFFCURVE",
"515.27 79.574 OFFCURVE",
"485.756 75.692 CURVE SMOOTH",
"471.12 73.767 OFFCURVE",
"456.412 72.894 OFFCURVE",
"441.69 72.894 CURVE SMOOTH",
"401.125 72.894 OFFCURVE",
"360.457 79.516 OFFCURVE",
"320.891 88.962 CURVE SMOOTH",
"236.487 109.113 OFFCURVE",
"155.148 140.631 OFFCURVE",
"75.891 175.962 CURVE",
"-8.962 91.109 LINE",
"-1.891 84.038 LINE",
"77.366 48.707 OFFCURVE",
"158.706 17.189 OFFCURVE",
"243.109 -2.962 CURVE SMOOTH",
"282.675 -12.408 OFFCURVE",
"323.344 -19.029 OFFCURVE",
"363.908 -19.029 CURVE SMOOTH",
"378.63 -19.029 OFFCURVE",
"393.338 -18.157 OFFCURVE",
"407.975 -16.232 CURVE SMOOTH",
"458.029 -9.648 OFFCURVE",
"507.362 10.664 OFFCURVE",
"543.121 46.253 CURVE SMOOTH",
"543.37 46.501 LINE",
"628.224 131.354 LINE SMOOTH",
"631.599 134.73 OFFCURVE",
"634.849 138.242 OFFCURVE",
"637.962 141.891 CURVE SMOOTH",
"663.9 172.286 OFFCURVE",
"679.675 210.597 OFFCURVE",
"679.674 252.126 CURVE SMOOTH",
"679.675 289.392 OFFCURVE",
"666.243 326.616 OFFCURVE",
"641.962 354.891 CURVE SMOOTH",
"639.509 357.747 OFFCURVE",
"636.949 360.512 OFFCURVE",
"634.292 363.179 CURVE SMOOTH",
"627.038 370.433 LINE"
);
}
);
width = 697;
}
);
leftKerningGroup = O;
unicode = 0053;
},
{
glyphname = bracketleft;
layers = (
{
layerId = master01;
paths = (
{
closed = 1;
nodes = (
"202.897 27.039 LINE",
"96.635 27.039 LINE",
"96.634 585.961 LINE",
"143.102 585.961 LINE",
"208.634 631.847 LINE",
"202.898 640.039 LINE",
"90.897 640.039 LINE",
"25.366 594.152 LINE",
"25.366 -18.847 LINE",
"31.103 -27.038 LINE",
"143.102 -27.039 LINE",
"208.634 18.847 LINE"
);
}
);
width = 232;
}
);
leftKerningGroup = b.ss03;
unicode = 005B;
},
{
glyphname = backslash;
layers = (
{
layerId = master01;
paths = (
{
closed = 1;
nodes = (
"70.82 588.252 LINE",
"286.82 -24.748 LINE",
"279.749 -31.819 LINE",
"223.181 24.749 LINE",
"7.181 637.749 LINE",
"14.252 644.82 LINE"
);
}
);
width = 296;
}
);
unicode = 005C;
},
{
glyphname = bracketright;
layers = (
{
layerId = master01;
paths = (
{
closed = 1;
nodes = (
"19.602 -27.039 LINE",
"131.602 -27.039 LINE",
"197.134 18.848 LINE",
"197.134 631.848 LINE",
"191.398 640.039 LINE",
"79.398 640.039 LINE",
"13.866 594.152 LINE",
"19.602 585.961 LINE",
"125.866 585.961 LINE",
"125.866 27.039 LINE",
"79.398 27.039 LINE",
"13.866 -18.848 LINE"
);
}
);
width = 212;
}
);
unicode = 005D;
},
{
glyphname = asciicircum;
layers = (
{
layerId = master01;
paths = (
{
closed = 1;
nodes = (
"28.231 692.226 LINE",
"58.297 695.759 OFFCURVE",
"91.43 685.087 OFFCURVE",
"114.318 663.459 CURVE SMOOTH",
"132.032 646.723 OFFCURVE",
"143.667 624.358 OFFCURVE",
"151.469 601.194 CURVE SMOOTH",
"159.272 578.025 OFFCURVE",
"163.532 553.81 OFFCURVE",
"168.628 529.807 CURVE SMOOTH",
"170.905 519.081 OFFCURVE",
"173.398 508.225 OFFCURVE",
"178.224 498.279 CURVE SMOOTH",
"183.055 488.325 OFFCURVE",
"190.428 479.256 OFFCURVE",
"200.51 474.329 CURVE SMOOTH",
"207.931 470.703 OFFCURVE",
"216.385 469.472 OFFCURVE",
"225.217 470.439 CURVE SMOOTH",
"233.644 471.363 OFFCURVE",
"240.972 472.525 OFFCURVE",
"261.346 484.017 CURVE SMOOTH",
"318.554 516.281 OFFCURVE",
"343.647 550 OFFCURVE",
"345.345 551.911 CURVE SMOOTH",
"371.715 581.606 OFFCURVE",
"398.255 612.448 OFFCURVE",
"421.403 645.343 CURVE SMOOTH",
"444.004 677.46 OFFCURVE",
"463.27 711.314 OFFCURVE",
"479.156 746.612 CURVE",
"446.5 725 LINE",
"413.844 703.389 LINE",
"398.188 668.604 OFFCURVE",
"379.225 635.391 OFFCURVE",
"357.597 604.657 CURVE SMOOTH",
"335.887 573.805 OFFCURVE",
"311.717 545.604 OFFCURVE",
"286.22 516.852 CURVE",
"279.806 516.394 OFFCURVE",
"272.008 517.486 OFFCURVE",
"265.49 520.671 CURVE SMOOTH",
"255.886 525.364 OFFCURVE",
"248.594 534.233 OFFCURVE",
"243.858 543.992 CURVE SMOOTH",
"239.117 553.761 OFFCURVE",
"236.646 564.485 OFFCURVE",
"234.372 575.193 CURVE SMOOTH",
"229.284 599.158 OFFCURVE",
"225.017 623.444 OFFCURVE",
"217.168 646.748 CURVE SMOOTH",
"209.317 670.056 OFFCURVE",
"197.612 692.6 OFFCURVE",
"179.682 709.541 CURVE SMOOTH",
"156.448 731.493 OFFCURVE",
"123.724 742.647 OFFCURVE",
"90.769 738.775 CURVE",
"59.5 715.5 LINE"
);
},
{
closed = 1;
nodes = (
"257.5 693.7 OFFCURVE",
"268.7 682.5 OFFCURVE",
"282.5 682.5 CURVE SMOOTH",
"296.3 682.5 OFFCURVE",
"307.5 693.7 OFFCURVE",
"307.5 707.5 CURVE SMOOTH",
"307.5 721.3 OFFCURVE",
"296.3 732.5 OFFCURVE",
"282.5 732.5 CURVE SMOOTH",
"268.7 732.5 OFFCURVE",
"257.5 721.3 OFFCURVE",
"257.5 707.5 CURVE SMOOTH"
);
}
);
width = 502;
}
);
unicode = 005E;
},
{
glyphname = glyph237;
layers = (
{
layerId = master01;
paths = (
{
closed = 1;
nodes = (
"0.014 -42.573 LINE",
"502.014 -42.573 LINE",
"544 0 LINE",
"585.986 42.573 LINE",
"83.986 42.573 LINE",
"42 0 LINE"
);
}
);
width = 588;
}
);
leftKerningGroup = a.alt;
unicode = 005F;
},
{
glyphname = grave;
layers = (
{
layerId = master01;
paths = (
{
closed = 1;
nodes = (
"32.038 574.109 LINE",
"150.038 413.108 LINE",
"157.108 406.038 LINE",
"241.962 490.891 LINE",
"123.962 651.891 LINE",
"116.891 658.962 LINE"
);
}
);
width = 264;
}
);
unicode = 0060;
},
{
glyphname = a;
layers = (
{
layerId = master01;
paths = (
{
closed = 1;
nodes = (
"200.135 86.229 LINE",
"103.338 133.713 LINE",
"211.362 267.618 LINE",
"213.837 102.302 LINE"
);
},
{
closed = 1;
nodes = (
"167.807 431.906 OFFCURVE",
"128.03 399.22 OFFCURVE",
"107.079 360.985 CURVE SMOOTH",
"87.415 325.103 OFFCURVE",
"85.062 280.402 OFFCURVE",
"100.851 242.653 CURVE",
"105.464 244.583 LINE",
"110.075 246.512 LINE",
"95.489 281.388 OFFCURVE",
"97.681 323.028 OFFCURVE",
"115.849 356.18 CURVE SMOOTH",
"117.522 359.234 OFFCURVE",
"119.331 362.212 OFFCURVE",
"121.264 365.106 CURVE",
"141.738 364.335 OFFCURVE",
"210.268 340.696 OFFCURVE",
"210.397 332.052 CURVE SMOOTH",
"211.081 286.388 LINE",
"145.816 206.931 OFFCURVE",
"81.867 126.158 OFFCURVE",
"17 46.303 CURVE",
"47.065 21.075 OFFCURVE",
"94.612 5.56 OFFCURVE",
"130.66 -12.125 CURVE",
"158.503 20.474 OFFCURVE",
"186.332 53.085 OFFCURVE",
"214.084 85.774 CURVE",
"215.397 -1.948 LINE",
"335.397 -1.948 LINE",
"335.397 8.052 LINE",
"330.398 348.087 LINE SMOOTH",
"329.778 390.27 OFFCURVE",
"252.187 430.25 OFFCURVE",
"211.396 431.051 CURVE",
"211.396 431.051 LINE"
);
}
);
width = 354;
}
);
leftKerningGroup = a;
unicode = 0061;
},
{
glyphname = b;
lastChange = "2019-12-05 01:58:35 +0000";
layers = (
{
background = {
paths = (
{
closed = 1;
nodes = (
"174 241 OFFCURVE",
"145 269 OFFCURVE",
"145 341 CURVE SMOOTH",
"145 533 LINE SMOOTH",
"145 554 OFFCURVE",
"145 583 OFFCURVE",
"143 610 CURVE",
"31 610 LINE",
"35 584 OFFCURVE",
"36 559 OFFCURVE",
"36 533 CURVE SMOOTH",
"36 291 LINE SMOOTH",
"36 224 OFFCURVE",
"81 178 OFFCURVE",
"157 165 CURVE",
"255 236 LINE"
);
},
{
closed = 1;
nodes = (
"367 610 LINE",
"369 569 OFFCURVE",
"369 528 OFFCURVE",
"369 487 CURVE SMOOTH",
"369 238 LINE SMOOTH",
"369 223 OFFCURVE",
"370 202 OFFCURVE",
"374 176 CURVE",
"265 176 LINE",
"261 201 OFFCURVE",
"260 224 OFFCURVE",
"260 242 CURVE SMOOTH",
"260 484 LINE SMOOTH",
"260 526 OFFCURVE",
"258 591 OFFCURVE",
"254 610 CURVE"
);
}
);
};
layerId = master01;
paths = (
{
closed = 1;
nodes = (
"250 373 OFFCURVE",
"323 300 OFFCURVE",
"323 208 CURVE SMOOTH",
"323 150 OFFCURVE",
"299 94 OFFCURVE",
"260 60 CURVE",
"218 76 OFFCURVE",
"181 95 OFFCURVE",
"146 118 CURVE",
"146 516 LINE SMOOTH",
"146 566 OFFCURVE",
"145 596 OFFCURVE",
"141 610 CURVE",
"30 610 LINE",
"35 589 OFFCURVE",
"36 536 OFFCURVE",
"36 484 CURVE SMOOTH",
"36 450 OFFCURVE",
"36 415 OFFCURVE",
"36 391 CURVE SMOOTH",
"36 248 OFFCURVE",
"37 182 OFFCURVE",
"40 53 CURVE",
"82 25 OFFCURVE",
"134 2 OFFCURVE",
"199 -18 CURVE",
"317 54 LINE SMOOTH",
"397 103 OFFCURVE",
"431 162 OFFCURVE",
"431 250 CURVE SMOOTH",
"431 345 OFFCURVE",
"359 427 OFFCURVE",
"266 437 CURVE",
"158 373 LINE"
);
}
);
width = 446;
},
{
associatedMasterId = master01;
background = {
paths = (
{
closed = 1;
nodes = (
"7 143 OFFCURVE",
"-2 236 OFFCURVE",
"-2 360 CURVE SMOOTH",
"-2 402 OFFCURVE",
"13 433 OFFCURVE",
"53 474 CURVE SMOOTH",
"102 524 LINE SMOOTH",
"148 571 OFFCURVE",
"181 593 OFFCURVE",
"266 593 CURVE SMOOTH",
"399 593 OFFCURVE",
"482 502 OFFCURVE",
"643 463 CURVE",
"544 374 LINE",
"404 413 OFFCURVE",
"287 502 OFFCURVE",
"206 502 CURVE SMOOTH",
"162 502 OFFCURVE",
"125 495 OFFCURVE",
"94 481 CURVE",
"90 463 OFFCURVE",
"89 436 OFFCURVE",
"89 405 CURVE SMOOTH",
"89 327 OFFCURVE",
"99 220 OFFCURVE",
"117 139 CURVE",
"27 51 LINE"
);
},
{
closed = 1;
nodes = (
"-189 -44 OFFCURVE",
"-55 -171 OFFCURVE",
"83 -171 CURVE SMOOTH",
"214 -171 OFFCURVE",
"276 -125 OFFCURVE",
"342 -59 CURVE SMOOTH",
"361 -40 LINE SMOOTH",
"411 10 OFFCURVE",
"448 83 OFFCURVE",
"448 149 CURVE SMOOTH",
"448 239 OFFCURVE",
"362 330 OFFCURVE",
"269 330 CURVE",
"171 235 LINE",
"181 238 OFFCURVE",
"192 239 OFFCURVE",
"202 239 CURVE SMOOTH",
"289 239 OFFCURVE",
"364 163 OFFCURVE",
"364 69 CURVE SMOOTH",
"364 28 OFFCURVE",
"358 -10 OFFCURVE",
"338 -41 CURVE",
"309 -61 OFFCURVE",
"270 -71 OFFCURVE",
"196 -71 CURVE SMOOTH",
"26 -71 OFFCURVE",
"-94 44 OFFCURVE",
"-94 207 CURVE SMOOTH",
"-94 304 OFFCURVE",
"-60 379 OFFCURVE",
"23 466 CURVE",
"-140 329 OFFCURVE",
"-189 249 OFFCURVE",
"-189 120 CURVE SMOOTH"
);
}
);
};
layerId = "E9F722ED-BD82-495C-BA53-EA6166928D78";
name = "Dec 3 19, 11:34";
paths = (
{
closed = 1;
nodes = (
"226 375 OFFCURVE",
"305 301 OFFCURVE",
"305 221 CURVE SMOOTH",
"305 154 OFFCURVE",
"281 96 OFFCURVE",
"243 62 CURVE",
"128 119 LINE",
"128 600 LINE",
"13 600 LINE",
"13 55 LINE",
"179 -17 LINE",
"299 56 LINE SMOOTH",
"379 104 OFFCURVE",
"413 167 OFFCURVE",
"413 252 CURVE SMOOTH",
"413 345 OFFCURVE",
"337 429 OFFCURVE",
"248 439 CURVE",
"140 375 LINE"
);
}
);
width = 445;
}
);
leftKerningGroup = b;
unicode = 0062;
},
{
glyphname = c;
layers = (
{
layerId = master01;
paths = (
{
closed = 1;
nodes = (
"94.272 27.707 LINE",
"94.335 27.647 LINE",
"94.394 27.591 LINE SMOOTH",
"100.007 22.167 OFFCURVE",
"105.91 17.024 OFFCURVE",
"112.085 12.196 CURVE SMOOTH",
"142.218 -11.363 OFFCURVE",
"178.775 -27.167 OFFCURVE",
"217.025 -32.924 CURVE",
"249.695 -13.724 LINE",
"363.438 65.44 LINE",
"348.587 81.76 LINE",
"294.029 55.323 LINE",
"255.778 61.08 OFFCURVE",
"219.222 76.883 OFFCURVE",
"189.089 100.443 CURVE SMOOTH",
"184.082 104.358 OFFCURVE",
"179.29 108.448 OFFCURVE",
"174.626 112.779 CURVE SMOOTH",
"147.667 140.066 OFFCURVE",
"127.605 174.273 OFFCURVE",
"116.89 210.775 CURVE SMOOTH",
"106.219 247.124 OFFCURVE",
"104.596 286.334 OFFCURVE",
"115.112 322.725 CURVE SMOOTH",
"117.049 329.427 OFFCURVE",
"119.262 335.616 OFFCURVE",
"122.18 342.357 CURVE",
"139.197 348.585 OFFCURVE",
"158.342 351.681 OFFCURVE",
"176.921 350.693 CURVE SMOOTH",
"204.404 349.232 OFFCURVE",
"231.339 339.149 OFFCURVE",
"252.664 322.276 CURVE",
"336.67 403.735 LINE",
"329.669 410.523 LINE",
"308.343 427.396 OFFCURVE",
"281.407 437.479 OFFCURVE",
"253.925 438.94 CURVE SMOOTH",
"226.441 440.4 OFFCURVE",
"198.615 433.239 OFFCURVE",
"175.229 419.163 CURVE SMOOTH",
"165.966 413.588 OFFCURVE",
"157.455 406.964 OFFCURVE",
"149.772 399.518 CURVE SMOOTH",
"65.768 318.059 LINE SMOOTH",
"65.653 317.947 OFFCURVE",
"65.51 317.809 OFFCURVE",
"65.51 317.809 CURVE",
"45.748 298.531 OFFCURVE",
"31.639 274.114 OFFCURVE",
"24.108 248.055 CURVE SMOOTH",
"13.591 211.664 OFFCURVE",
"15.215 172.454 OFFCURVE",
"25.885 136.105 CURVE SMOOTH",
"37.056 98.053 OFFCURVE",
"58.217 62.691 OFFCURVE",
"87.03 34.73 CURVE SMOOTH",
"94.091 27.884 LINE"
);
}
);
width = 381;
}
);
leftKerningGroup = c;
unicode = 0063;
},
{
glyphname = d;
lastChange = "2019-12-05 01:57:51 +0000";
layers = (
{
background = {
paths = (
{
closed = 1;
nodes = (
"290 598 OFFCURVE",
"292 570 OFFCURVE",
"292 545 CURVE SMOOTH",
"292 436 LINE",
"285 439 OFFCURVE",
"281 441 OFFCURVE",
"272 443 CURVE",
"182 400 OFFCURVE",
"88 336 OFFCURVE",
"54 294 CURVE SMOOTH",
"30 267 OFFCURVE",
"15 226 OFFCURVE",
"15 185 CURVE SMOOTH",
"15 142 OFFCURVE",
"31 96 OFFCURVE",
"57 62 CURVE SMOOTH",
"86 26 OFFCURVE",
"121 0 OFFCURVE",
"157 -13 CURVE",
"267 61 LINE",
"218 73 OFFCURVE",
"182 97 OFFCURVE",
"153 136 CURVE SMOOTH",
"132 164 OFFCURVE",
"120 203 OFFCURVE",
"120 243 CURVE SMOOTH",
"120 301 OFFCURVE",
"139 341 OFFCURVE",
"173 364 CURVE SMOOTH",
"185 372 LINE",
"214 363 OFFCURVE",
"247 349 OFFCURVE",
"292 326 CURVE",
"292 121 LINE SMOOTH",
"292 76 OFFCURVE",
"294 35 OFFCURVE",
"296 0 CURVE",
"405 0 LINE",
"402 44 OFFCURVE",
"401 79 OFFCURVE",
"401 126 CURVE SMOOTH",
"401 548 LINE SMOOTH",
"401 573 OFFCURVE",
"400 596 OFFCURVE",
"398 610 CURVE",
"287 610 LINE"
);
}
);
};
layerId = master01;
paths = (
{
closed = 1;
nodes = (
"290 598 OFFCURVE",
"292 570 OFFCURVE",
"292 545 CURVE SMOOTH",
"292 436 LINE",
"285 439 OFFCURVE",
"280 441 OFFCURVE",
"272 443 CURVE",
"182 400 OFFCURVE",
"89 335 OFFCURVE",
"54 294 CURVE SMOOTH",
"31 267 OFFCURVE",
"15 226 OFFCURVE",
"15 185 CURVE SMOOTH",
"15 99 OFFCURVE",
"75 17 OFFCURVE",
"157 -13 CURVE",
"267 61 LINE",
"218 73 OFFCURVE",
"182 97 OFFCURVE",
"153 136 CURVE SMOOTH",
"132 164 OFFCURVE",
"120 203 OFFCURVE",
"120 243 CURVE SMOOTH",
"120 301 OFFCURVE",
"139 341 OFFCURVE",
"173 364 CURVE SMOOTH",
"185 372 LINE",
"214 363 OFFCURVE",
"247 349 OFFCURVE",
"292 326 CURVE",
"292 121 LINE SMOOTH",
"292 76 OFFCURVE",
"294 35 OFFCURVE",
"296 0 CURVE",
"405 0 LINE",
"402 44 OFFCURVE",
"401 79 OFFCURVE",
"401 126 CURVE SMOOTH",
"401 548 LINE SMOOTH",
"401 573 OFFCURVE",
"400 596 OFFCURVE",
"398 610 CURVE",
"287 610 LINE"
);
}
);
width = 435;
}
);
leftKerningGroup = a.alt;
unicode = 0064;
},
{
glyphname = e;
lastChange = "2019-12-05 02:03:43 +0000";
layers = (
{
background = {
paths = (
{
closed = 1;
nodes = (
"-10 173 OFFCURVE",
"1 156 OFFCURVE",
"42 119 CURVE",
"136 191 LINE",
"107 216 OFFCURVE",
"95 231 OFFCURVE",
"85 269 CURVE SMOOTH",
"78 297 OFFCURVE",
"75 324 OFFCURVE",
"79 348 CURVE",
"141 348 OFFCURVE",
"179 331 OFFCURVE",
"234 291 CURVE",
"328 364 LINE",
"262 407 OFFCURVE",
"213 424 OFFCURVE",
"140 424 CURVE",
"43 355 LINE SMOOTH",
"-25 307 OFFCURVE",
"-25 235 OFFCURVE",
"-17 202 CURVE SMOOTH"
);
},
{
closed = 1;
nodes = (
"-34 16 OFFCURVE",
"-6 1 OFFCURVE",
"26 -13 CURVE SMOOTH",
"56 -26 OFFCURVE",
"94 -33 OFFCURVE",
"141 -35 CURVE",
"232 7 OFFCURVE",
"299 57 OFFCURVE",
"324 104 CURVE SMOOTH",
"332 119 OFFCURVE",
"335 136 OFFCURVE",
"335 153 CURVE SMOOTH",
"335 178 OFFCURVE",
"329 193 OFFCURVE",
"311 221 CURVE SMOOTH",
"289 255 OFFCURVE",
"260 270 OFFCURVE",
"222 275 CURVE",
"149 199 LINE",
"182 194 OFFCURVE",
"207 178 OFFCURVE",
"226 150 CURVE SMOOTH",
"245 122 OFFCURVE",
"252 77 OFFCURVE",
"240 35 CURVE",
"168 40 OFFCURVE",
"80 73 OFFCURVE",
"33 112 CURVE",
"-68 41 LINE"
);
}
);
};
layerId = master01;
paths = (
{
closed = 1;
nodes = (
"326 361 LINE",
"294 400 OFFCURVE",
"260 431 OFFCURVE",
"222 454 CURVE",
"185 426 OFFCURVE",
"150 398 OFFCURVE",
"113 368 CURVE SMOOTH",
"50 317 OFFCURVE",
"20 266 OFFCURVE",
"20 187 CURVE SMOOTH",
"20 73 OFFCURVE",
"92 -1 OFFCURVE",
"218 -7 CURVE",
"326 73 LINE",
"272 73 OFFCURVE",
"228 80 OFFCURVE",
"192 101 CURVE SMOOTH",
"169 114 OFFCURVE",
"151 134 OFFCURVE",
"136 175 CURVE SMOOTH",
"126 203 OFFCURVE",
"121 232 OFFCURVE",
"121 260 CURVE SMOOTH",
"121 297 OFFCURVE",
"130 334 OFFCURVE",
"150 364 CURVE",
"177 352 OFFCURVE",
"200 330 OFFCURVE",
"221 298 CURVE",
"111 213 LINE",
"113 198 LINE"
);
}
);
width = 341;
}
);
leftKerningGroup = c;
unicode = 0065;
},
{
glyphname = f;
layers = (
{
layerId = master01;
paths = (
{
closed = 1;
nodes = (
"188.744 594 LINE",
"68.744 514 LINE",
"68.744 407.853 LINE",
"17 356.109 LINE",
"24.071 349.037 LINE",
"68.744 349.037 LINE",
"68.744 0 LINE",
"188.744 0 LINE",
"188.744 349.037 LINE",
"221.071 349.037 LINE",
"305.924 433.891 LINE",
"298.853 440.961 LINE",
"188.744 440.961 LINE",
"188.744 563.998 LINE",
"213.836 581.287 LINE",
"301.244 537 LINE",
"391.744 610 LINE",
"268.744 661.5 LINE"
);
}
);
width = 410;
}
);
leftKerningGroup = G;
unicode = 0066;
},
{
glyphname = g;
layers = (
{
layerId = master01;
paths = (
{
closed = 1;
nodes = (
"259 293.753 LINE",
"265.674 69.692 LINE",
"265.458 70 LINE",
"221.458 87 LINE SMOOTH",
"203.742 93.846 OFFCURVE",
"185.918 101.515 OFFCURVE",
"171.81 114.229 CURVE SMOOTH",
"168.092 117.58 OFFCURVE",
"164.651 121.275 OFFCURVE",
"161.559 125.197 CURVE",
"155.959 134.255 OFFCURVE",
"152.016 144.316 OFFCURVE",
"150.193 154.809 CURVE",
"144.194 275.81 LINE SMOOTH",
"142.944 300.997 OFFCURVE",
"142.931 326.954 OFFCURVE",
"152.271 350.38 CURVE SMOOTH",
"152.559 351.103 OFFCURVE",
"153.176 352.407 OFFCURVE",
"153.33 352.771 CURVE",
"160.934 354.033 OFFCURVE",
"168.613 354.902 OFFCURVE",
"176.272 355.497 CURVE SMOOTH",
"201.416 357.447 OFFCURVE",
"226.677 356.98 OFFCURVE",
"251.896 356.98 CURVE SMOOTH",
"334.351 356.979 LINE"
);
},
{
closed = 1;
nodes = (
"268.336 -18.96 OFFCURVE",
"275.008 -96.865 OFFCURVE",
"298.493 -170.329 CURVE",
"276.925 -188.112 LINE",
"230.698 -175.511 OFFCURVE",
"188.204 -149.522 OFFCURVE",
"155.925 -114.112 CURVE SMOOTH",
"154.72 -112.79 OFFCURVE",
"153.491 -111.41 OFFCURVE",
"152.34 -110.092 CURVE SMOOTH",
"137.131 -91.219 OFFCURVE",
"124.626 -70.168 OFFCURVE",
"115.354 -47.772 CURVE",
"141.354 -25.772 LINE",
"134.926 -18.112 LINE",
"43 -95.247 LINE",
"17 -117.247 LINE",
"26.855 -141.048 OFFCURVE",
"40.361 -163.331 OFFCURVE",
"56.964 -183.191 CURVE SMOOTH",
"57.018 -183.256 OFFCURVE",
"56.992 -183.226 OFFCURVE",
"57.1 -183.354 CURVE SMOOTH",
"57.153 -183.418 OFFCURVE",
"57.101 -183.355 OFFCURVE",
"57.209 -183.483 CURVE SMOOTH",
"63.637 -191.144 LINE SMOOTH",
"65.847 -193.777 OFFCURVE",
"68.111 -196.366 OFFCURVE",
"70.428 -198.907 CURVE SMOOTH",
"102.706 -234.317 OFFCURVE",
"145.201 -260.306 OFFCURVE",
"191.428 -272.907 CURVE",
"287.712 -193.516 LINE",
"305.429 -178.907 LINE",
"397.354 -101.772 LINE",
"373.51 -27.768 OFFCURVE",
"366.668 50.512 OFFCURVE",
"364.354 128.228 CURVE SMOOTH",
"357.54 356.98 LINE",
"454.896 356.98 LINE",
"553.193 425.809 LINE",
"547.458 434 LINE",
"344.458 434 LINE SMOOTH",
"319.239 434.001 OFFCURVE",
"293.979 434.468 OFFCURVE",
"268.835 432.518 CURVE SMOOTH",
"243.691 430.567 OFFCURVE",
"218.326 425.645 OFFCURVE",
"196.167 413.605 CURVE SMOOTH",
"192.474 411.599 OFFCURVE",
"188.893 409.383 OFFCURVE",
"185.445 406.975 CURVE SMOOTH",
"87.147 338.146 LINE SMOOTH",
"69.909 326.106 OFFCURVE",
"56.021 309.264 OFFCURVE",
"48.236 289.742 CURVE SMOOTH",
"38.897 266.316 OFFCURVE",
"38.911 240.359 OFFCURVE",
"40.16 215.172 CURVE SMOOTH",
"46.159 94.171 LINE",
"48.255 82.108 OFFCURVE",
"53.153 70.613 OFFCURVE",
"60.197 60.492 CURVE SMOOTH",
"60.296 60.351 LINE",
"66.032 52.159 LINE SMOOTH",
"69.855 46.699 OFFCURVE",
"74.298 41.669 OFFCURVE",
"79.247 37.208 CURVE SMOOTH",
"93.356 24.493 OFFCURVE",
"111.18 16.825 OFFCURVE",
"128.896 9.981 CURVE SMOOTH",
"172.896 -7.019 LINE",
"266.017 58.184 LINE"
);
}
);
width = 426;
}
);
leftKerningGroup = a.alt;
unicode = 0067;
},
{
glyphname = h;
layers = (
{
layerId = master01;
paths = (
{
closed = 1;
nodes = (
"139 10 LINE",
"139 331.5 LINE",
"178.757 364.136 LINE",
"207.985 355.976 OFFCURVE",
"235.069 340.288 OFFCURVE",
"256.733 319.038 CURVE SMOOTH",
"258.189 317.609 OFFCURVE",
"259.757 316.015 OFFCURVE",
"261.035 314.671 CURVE",
"277.274 295.594 OFFCURVE",
"289.49 273.379 OFFCURVE",
"297.065 249.568 CURVE SMOOTH",
"307.166 217.824 OFFCURVE",
"308.897 183.641 OFFCURVE",
"303.55 150.76 CURVE SMOOTH",
"298.201 117.879 OFFCURVE",
"289.537 83.849 OFFCURVE",
"269.065 57.568 CURVE SMOOTH",
"223.833 -0.5 OFFCURVE",
"151.065 -59.432 OFFCURVE",
"151.065 -59.432 CURVE",
"157.757 -66.863 LINE",
"279.333 34.5 LINE SMOOTH",
"319.21 67.747 OFFCURVE",
"348.123 101.877 OFFCURVE",
"364.935 130.433 CURVE SMOOTH",
"381.835 159.14 OFFCURVE",
"394.069 190.743 OFFCURVE",
"399.419 223.624 CURVE SMOOTH",
"404.767 256.505 OFFCURVE",
"403.034 290.688 OFFCURVE",
"392.935 322.433 CURVE SMOOTH",
"384.894 347.705 OFFCURVE",
"371.538 371.309 OFFCURVE",
"353.838 391.043 CURVE SMOOTH",
"353.782 391.104 LINE",
"353.724 391.17 LINE",
"346.917 398.73 LINE",
"346.86 398.792 LINE SMOOTH",
"344.396 401.526 OFFCURVE",
"341.849 404.187 OFFCURVE",
"339.22 406.765 CURVE SMOOTH",
"317.556 428.015 OFFCURVE",
"290.472 443.703 OFFCURVE",
"261.243 451.863 CURVE",
"139 345.965 LINE",
"139 592 LINE",
"19 592 LINE",
"19 582 LINE",
"19 0 LINE",
"139 0 LINE"
);
}
);
width = 420;
}
);
leftKerningGroup = NameMe.65550;
unicode = 0068;
},
{
glyphname = i;
layers = (
{
layerId = master01;
paths = (
{
closed = 1;
nodes = (
"19 0 LINE",
"139 0 LINE",
"139 434 LINE",
"19 434 LINE"
);
}
);
width = 160;
}
);
leftKerningGroup = i;
unicode = 0069;
},
{
glyphname = j;
layers = (
{
layerId = master01;
paths = (
{
closed = 1;
nodes = (
"17.77 434 LINE",
"17.77 -155.891 LINE",
"-76.23 -255.891 LINE",
"-69.16 -262.962 LINE",
"138.23 -58 LINE",
"138.23 434 LINE"
);
}
);
width = 157;
}
);
leftKerningGroup = j;
unicode = 006A;
},
{
glyphname = k;
layers = (
{
layerId = master01;
paths = (
{
closed = 1;
nodes = (
"139 10 LINE",
"139 141.788 LINE",
"142.481 133.718 OFFCURVE",
"147.182 124.24 OFFCURVE",
"153.524 113.254 CURVE SMOOTH",
"158.597 104.468 LINE",
"158.888 103.966 LINE SMOOTH",
"161.706 99.107 OFFCURVE",
"164.778 94.11 OFFCURVE",
"168.126 89 CURVE SMOOTH",
"223.161 5 OFFCURVE",
"261.126 -18 OFFCURVE",
"261.126 -18 CURVE",
"365.049 42 LINE",
"390.049 64 LINE",
"385.049 72.66 LINE",
"354.188 54.842 LINE",
"341.548 64.593 OFFCURVE",
"309.328 93.129 OFFCURVE",
"267.05 157.66 CURVE SMOOTH",
"264.556 161.467 OFFCURVE",
"262.258 165.14 OFFCURVE",
"260.033 168.855 CURVE SMOOTH",
"236.55 208.081 OFFCURVE",
"227.969 249.483 OFFCURVE",
"226.495 257.331 CURVE",
"330.539 356.891 LINE",
"323.468 363.962 LINE",
"236.468 444.962 LINE",
"143.468 353.962 LINE",
"139 349.494 LINE",
"139 612 LINE",
"19 612 LINE",
"19 602 LINE",
"19 0 LINE",
"139 0 LINE"
);
},
{
closed = 1;
nodes = (
"158.686 353.038 LINE",
"232.711 284.119 LINE",
"139 195.391 LINE",
"139 333.776 LINE"
);
}
);
width = 408;
}
);
leftKerningGroup = b;
unicode = 006B;
},
{
glyphname = l;
lastChange = "2019-12-05 02:03:12 +0000";
layers = (
{
background = {
paths = (
{
closed = 1;
nodes = (
"183 241 OFFCURVE",
"154 269 OFFCURVE",
"154 341 CURVE SMOOTH",
"154 533 LINE SMOOTH",
"154 554 OFFCURVE",
"154 583 OFFCURVE",
"152 610 CURVE",
"40 610 LINE",
"44 584 OFFCURVE",
"45 559 OFFCURVE",
"45 533 CURVE SMOOTH",
"45 291 LINE SMOOTH",
"45 224 OFFCURVE",
"90 178 OFFCURVE",
"166 165 CURVE",
"264 236 LINE"
);
},
{
closed = 1;
nodes = (
"376 610 LINE",
"378 569 OFFCURVE",
"378 528 OFFCURVE",
"378 487 CURVE SMOOTH",
"378 238 LINE SMOOTH",
"378 223 OFFCURVE",
"379 202 OFFCURVE",
"383 176 CURVE",
"274 176 LINE",
"270 201 OFFCURVE",
"269 224 OFFCURVE",
"269 242 CURVE SMOOTH",
"269 484 LINE SMOOTH",
"269 526 OFFCURVE",
"267 591 OFFCURVE",
"263 610 CURVE"
);
}
);
};
layerId = master01;
paths = (
{
closed = 1;
nodes = (
"41 593 OFFCURVE",
"44 565 OFFCURVE",
"44 494 CURVE SMOOTH",
"44 277 LINE SMOOTH",
"44 154 OFFCURVE",
"45 92 OFFCURVE",
"48 36 CURVE",
"64 21 OFFCURVE",
"100 0 OFFCURVE",
"128 -11 CURVE",
"225 45 LINE",
"195 60 OFFCURVE",
"173 75 OFFCURVE",
"160 88 CURVE",
"156 141 OFFCURVE",
"155 190 OFFCURVE",
"155 283 CURVE SMOOTH",
"155 493 LINE SMOOTH",
"155 561 OFFCURVE",
"155 583 OFFCURVE",
"152 610 CURVE",
"35 610 LINE"
);
}
);
width = 230;
}
);
leftKerningGroup = b;
unicode = 006C;
},
{
glyphname = m;
layers = (
{
layerId = master01;
paths = (
{
closed = 1;
nodes = (
"252.926 438.66 LINE",
"252.926 438.66 OFFCURVE",
"298.285 426.301 OFFCURVE",
"318.742 402.086 CURVE SMOOTH",
"318.887 401.915 LINE",
"325.385 394.17 LINE SMOOTH",
"333.598 384.365 OFFCURVE",
"339.355 370.631 OFFCURVE",
"339.355 357 CURVE SMOOTH",
"339.355 341.464 LINE",
"460.928 438.66 LINE",
"460.928 438.66 OFFCURVE",
"505.627 431.487 OFFCURVE",
"526.164 407.163 CURVE SMOOTH",
"526.219 407.099 LINE SMOOTH",
"526.305 406.995 OFFCURVE",
"526.311 406.99 OFFCURVE",
"526.311 406.99 CURVE",
"532.738 399.33 LINE SMOOTH",
"541.293 389.13 OFFCURVE",
"547.355 373.929 OFFCURVE",
"547.354 356.999 CURVE",
"547.355 1 LINE",
"439.002 1 LINE",
"439.002 288.525 LINE SMOOTH",
"439.002 303.333 OFFCURVE",
"434.25 315.467 OFFCURVE",
"427.436 324.941 CURVE SMOOTH",
"410.009 349.171 OFFCURVE",
"381.01 349.334 OFFCURVE",
"381.01 349.334 CURVE",
"339.355 319.822 LINE",
"339.355 1 LINE",
"231.002 1 LINE",
"231.002 289.525 LINE SMOOTH",
"231.002 301.402 OFFCURVE",
"226.525 311.995 OFFCURVE",
"220.022 320.888 CURVE SMOOTH",
"202.166 345.301 OFFCURVE",
"173.199 351.184 OFFCURVE",
"173.178 351.167 CURVE SMOOTH",
"139.354 325.178 LINE",
"139.354 1 LINE",
"19.002 1 LINE",
"19 433.525 LINE",
"132.926 433.66 LINE",
"139.354 426 LINE",
"139.354 347.128 LINE"
);
}
);
width = 567;
}
);
leftKerningGroup = i;
unicode = 006D;
},
{
glyphname = n;
layers = (
{
layerId = master01;
paths = (
{
closed = 1;
nodes = (
"19 424 LINE",
"19 -2 LINE",
"139 -2 LINE",
"139 8 LINE",
"139 351.954 LINE",
"162.163 363 LINE SMOOTH",
"182.672 372.78 OFFCURVE",
"201.391 365.263 OFFCURVE",
"212.752 358.53 CURVE SMOOTH",
"224.113 351.798 OFFCURVE",
"233.665 342.126 OFFCURVE",
"240.559 330.861 CURVE SMOOTH",
"241.443 329.415 OFFCURVE",
"242.369 327.779 OFFCURVE",
"243.11 326.389 CURVE",
"246.155 318.839 OFFCURVE",
"248.271 310.896 OFFCURVE",
"249.598 302.856 CURVE SMOOTH",
"251.748 289.826 OFFCURVE",
"251.849 263.349 OFFCURVE",
"251.849 263.349 CURVE",
"251.849 0 LINE",
"364.832 0 LINE",
"364.832 312 LINE SMOOTH",
"364.832 325.207 OFFCURVE",
"364.731 338.478 OFFCURVE",
"362.58 351.507 CURVE SMOOTH",
"360.988 361.155 OFFCURVE",
"358.262 370.663 OFFCURVE",
"354.154 379.521 CURVE SMOOTH",
"354.102 379.635 LINE",
"349.821 388.813 LINE SMOOTH",
"348.409 391.838 OFFCURVE",
"346.835 394.787 OFFCURVE",
"345.089 397.639 CURVE SMOOTH",
"338.195 408.903 OFFCURVE",
"328.644 418.575 OFFCURVE",
"317.283 425.308 CURVE SMOOTH",
"305.921 432.04 OFFCURVE",
"292.809 435.799 OFFCURVE",
"279.605 436.063 CURVE",
"139 373.42 LINE",
"139 434 LINE",
"19 434 LINE"
);
}
);
width = 386;
}
);
leftKerningGroup = i;
unicode = 006E;
},
{
glyphname = o;
lastChange = "2019-12-05 02:26:43 +0000";
layers = (
{
layerId = master01;
paths = (
{
closed = 1;
nodes = (
"260 60 OFFCURVE",
"233 78 OFFCURVE",
"202 100 CURVE SMOOTH",
"154 134 OFFCURVE",
"129 183 OFFCURVE",
"129 241 CURVE SMOOTH",
"129 287 OFFCURVE",
"139 323 OFFCURVE",
"160 366 CURVE",
"208 361 OFFCURVE",
"251 340 OFFCURVE",
"287 304 CURVE SMOOTH",
"317 274 OFFCURVE",
"334 228 OFFCURVE",
"334 176 CURVE SMOOTH",
"334 133 OFFCURVE",
"319 86 OFFCURVE",
"294 48 CURVE"
);
},
{
closed = 1;
nodes = (
"77 22 OFFCURVE",
"213 -29 CURVE",
"327 38 LINE SMOOTH",
"400 80 OFFCURVE",
"444 160 OFFCURVE",
"444 234 CURVE SMOOTH",
"444 342 OFFCURVE",
"344 434 OFFCURVE",
"237 434 CURVE SMOOTH",
"230 434 OFFCURVE",
"222 434 OFFCURVE",
"215 433 CURVE",
"111 373 LINE SMOOTH",
"54 340 OFFCURVE",
"15 269 OFFCURVE",
"15 194 CURVE SMOOTH",
"15 91 OFFCURVE"
);
}
);
width = 467;
},
{
associatedMasterId = master01;
background = {
paths = (
{
closed = 1;
nodes = (
"253 80 OFFCURVE",
"219 96 OFFCURVE",
"193 115 CURVE SMOOTH",
"143 152 OFFCURVE",
"120 200 OFFCURVE",
"120 256 CURVE SMOOTH",
"120 301 OFFCURVE",
"133 339 OFFCURVE",
"164 382 CURVE",
"215 377 OFFCURVE",
"267 352 OFFCURVE",
"302 317 CURVE SMOOTH",
"333 286 OFFCURVE",
"349 239 OFFCURVE",
"349 189 CURVE SMOOTH",
"349 146 OFFCURVE",
"330 103 OFFCURVE",
"295 67 CURVE"
);
},
{
closed = 1;
nodes = (
"60 55 OFFCURVE",
"216 -11 CURVE",
"330 56 LINE SMOOTH",
"410 103 OFFCURVE",
"460 176 OFFCURVE",
"460 248 CURVE SMOOTH",
"460 366 OFFCURVE",
"337 465 OFFCURVE",
"218 451 CURVE",
"114 391 LINE SMOOTH",
"51 355 OFFCURVE",
"9 283 OFFCURVE",
"9 211 CURVE SMOOTH",
"9 111 OFFCURVE"
);
}
);
};
layerId = "21C63CE1-8BC4-4650-8B1C-ED2234D29455";
name = "Nov 28 19, 11:49";
paths = (
{
closed = 1;
nodes = (
"254 79 OFFCURVE",
"221 93 OFFCURVE",
"195 111 CURVE SMOOTH",
"142 149 OFFCURVE",
"119 198 OFFCURVE",
"119 256 CURVE SMOOTH",
"119 301 OFFCURVE",
"132 339 OFFCURVE",
"164 382 CURVE",
"215 377 OFFCURVE",
"267 355 OFFCURVE",
"302 320 CURVE SMOOTH",
"334 288 OFFCURVE",
"350 240 OFFCURVE",
"350 188 CURVE SMOOTH",
"350 145 OFFCURVE",
"331 103 OFFCURVE",
"295 67 CURVE"
);
},
{
closed = 1;
nodes = (
"63 40 OFFCURVE",
"216 -11 CURVE",
"330 56 LINE SMOOTH",
"410 103 OFFCURVE",
"457 184 OFFCURVE",
"457 260 CURVE SMOOTH",
"457 371 OFFCURVE",
"336 464 OFFCURVE",
"218 451 CURVE",
"114 391 LINE SMOOTH",
"50 354 OFFCURVE",
"8 284 OFFCURVE",
"8 212 CURVE SMOOTH",
"8 119 OFFCURVE"
);
}
);
width = 471;
}
);
leftKerningGroup = c;
rightKerningGroup = o;
unicode = 006F;
},
{
glyphname = p;
layers = (
{
layerId = master01;
paths = (
{
closed = 1;
nodes = (
"163.884 427 LINE",
"43.884 427 LINE",
"43.884 90.715 LINE",
"17 68.157 LINE",
"23.428 60.497 LINE",
"23.428 60.497 OFFCURVE",
"31.253 57.433 OFFCURVE",
"43.884 52.562 CURVE",
"43.884 -181 LINE",
"163.884 -181 LINE",
"163.884 7.884 LINE",
"197.419 -3.943 OFFCURVE",
"225.516 -12.927 OFFCURVE",
"232.136 -12.397 CURVE SMOOTH",
"244.741 -11.39 OFFCURVE",
"285.256 7.399 OFFCURVE",
"320.471 36.936 CURVE SMOOTH",
"412.396 114.069 LINE SMOOTH",
"433.647 131.894 OFFCURVE",
"452.969 153.632 OFFCURVE",
"463.061 177.737 CURVE SMOOTH",
"492.322 247.631 OFFCURVE",
"457.502 336.653 OFFCURVE",
"424.16 376.556 CURVE SMOOTH",
"424.066 376.668 LINE",
"424.02 376.725 LINE",
"423.972 376.78 LINE",
"417.544 384.441 LINE SMOOTH",
"416.603 385.563 OFFCURVE",
"415.662 386.645 OFFCURVE",
"414.725 387.687 CURVE SMOOTH",
"369.084 438.397 OFFCURVE",
"312.632 453.397 OFFCURVE",
"312.632 453.397 CURVE",
"167.097 337.777 LINE",
"163.884 335.081 LINE"
);
},
{
closed = 1;
nodes = (
"163.884 318.353 LINE",
"227.135 368.603 LINE",
"227.135 368.603 OFFCURVE",
"283.354 353.582 OFFCURVE",
"328.87 303.282 CURVE",
"361.221 261.749 OFFCURVE",
"393.074 176.019 OFFCURVE",
"364.707 108.263 CURVE SMOOTH",
"361.474 100.539 OFFCURVE",
"357.044 92.711 OFFCURVE",
"352.401 85.881 CURVE",
"336.711 77.663 OFFCURVE",
"323.815 72.892 OFFCURVE",
"317.633 72.397 CURVE SMOOTH",
"305.525 71.429 OFFCURVE",
"221.552 102.293 OFFCURVE",
"163.884 124.162 CURVE",
"163.884 124.161 LINE"
);
}
);
width = 492;
}
);
leftKerningGroup = at;
unicode = 0070;
},
{
glyphname = q;
layers = (
{
layerId = master01;
paths = (
{
closed = 1;
nodes = (
"155.611 376 OFFCURVE",
"125.611 359 OFFCURVE",
"118.87 335.734 CURVE SMOOTH",
"108.466 299.827 OFFCURVE",
"116.401 260.49 OFFCURVE",
"130.177 225.737 CURVE SMOOTH",
"139.286 202.755 OFFCURVE",
"152.016 181.374 OFFCURVE",
"167.52 162.153 CURVE SMOOTH",
"192.866 133.093 OFFCURVE",
"224.67 109.458 OFFCURVE",
"259.748 93.397 CURVE",
"301.823 121.241 LINE",
"301.823 329.922 LINE",
"296.434 332.733 OFFCURVE",
"290.761 335.729 OFFCURVE",
"285.251 338.603 CURVE SMOOTH",
"254.045 354.884 OFFCURVE",
"221.846 373.085 OFFCURVE",
"186.681 374.633 CURVE",
"186.681 374.633 LINE"
);
},
{
closed = 1;
nodes = (
"422.177 383.737 LINE",
"422.177 -108 LINE",
"301.823 -108 LINE",
"301.823 93.025 LINE",
"174.251 8.603 LINE",
"137.695 25.34 OFFCURVE",
"104.683 50.292 OFFCURVE",
"78.853 81.06 CURVE SMOOTH",
"78.799 81.124 LINE",
"72.204 88.982 LINE",
"72.148 89.05 LINE",
"72.095 89.113 LINE SMOOTH",
"55.263 109.243 OFFCURVE",
"41.501 131.849 OFFCURVE",
"31.823 156.263 CURVE SMOOTH",
"18.048 191.016 OFFCURVE",
"12.924 229.656 OFFCURVE",
"20.518 266.26 CURVE SMOOTH",
"27.295 298.929 OFFCURVE",
"44.77 329.561 OFFCURVE",
"70.265 350.948 CURVE SMOOTH",
"162.189 428.082 LINE SMOOTH",
"165.261 430.659 OFFCURVE",
"168.449 433.102 OFFCURVE",
"171.749 435.397 CURVE SMOOTH",
"200.642 455.5 OFFCURVE",
"237.217 463.505 OFFCURVE",
"272.179 459.428 CURVE SMOOTH",
"307.14 455.351 OFFCURVE",
"363.398 428.914 OFFCURVE",
"391.166 407.5 CURVE",
"391.166 407.5 LINE"
);
}
);
width = 443;
}
);
leftKerningGroup = c;
unicode = 0071;
},
{
glyphname = r;
layers = (
{
layerId = master01;
paths = (
{
closed = 1;
nodes = (
"144.397 347.011 LINE",
"208.397 299.511 LINE",
"290.897 387.011 LINE",
"213.897 445.511 LINE",
"123.034 350.027 LINE",
"123.034 434.011 LINE",
"19 434.011 LINE",
"19 117.692 LINE SMOOTH",
"19 98.169 OFFCURVE",
"27.843 74.565 OFFCURVE",
"42.828 53.143 CURVE SMOOTH",
"48.616 44.876 LINE",
"48.774 44.651 LINE SMOOTH",
"65.253 21.205 OFFCURVE",
"89.09 0.411 OFFCURVE",
"116.735 -9.499 CURVE",
"215.034 59.33 LINE",
"257.034 91.33 LINE",
"251.298 99.521 LINE",
"206.88 68.42 LINE",
"181.854 78.051 OFFCURVE",
"159.987 96.596 OFFCURVE",
"144.106 117.85 CURVE",
"130.9 138 OFFCURVE",
"123.034 160.09 OFFCURVE",
"123.034 178.33 CURVE SMOOTH",
"123.034 327.517 LINE"
);
}
);
width = 309;
}
);
leftKerningGroup = i;
unicode = 0072;
},
{
glyphname = s;
lastChange = "2019-12-05 02:26:28 +0000";
layers = (
{
background = {
paths = (
{
closed = 1;
nodes = (
"63 209 OFFCURVE",
"76 185 OFFCURVE",
"116 142 CURVE",
"210 214 LINE",
"176 243 OFFCURVE",
"166 258 OFFCURVE",
"156 293 CURVE SMOOTH",
"148 322 OFFCURVE",
"147 347 OFFCURVE",
"152 370 CURVE",
"213 372 OFFCURVE",
"248 359 OFFCURVE",
"307 313 CURVE",
"401 386 LINE",
"325 435 OFFCURVE",
"278 449 OFFCURVE",
"210 446 CURVE",
"114 377 LINE SMOOTH",
"73 347 OFFCURVE",
"50 292 OFFCURVE",
"57 247 CURVE SMOOTH"
);
},
{
closed = 1;
nodes = (
"44 35 OFFCURVE",
"66 20 OFFCURVE",
"97 7 CURVE SMOOTH",
"125 -5 OFFCURVE",
"163 -14 OFFCURVE",
"213 -13 CURVE",
"343 48 OFFCURVE",
"409 111 OFFCURVE",
"409 175 CURVE SMOOTH",
"409 231 OFFCURVE",
"356 282 OFFCURVE",
"288 293 CURVE",
"215 215 LINE",
"254 209 OFFCURVE",
"284 193 OFFCURVE",
"304 164 CURVE SMOOTH",
"324 135 OFFCURVE",
"338 97 OFFCURVE",
"318 57 CURVE",
"240 63 OFFCURVE",
"152 98 OFFCURVE",
"112 138 CURVE",
"10 66 LINE"
);
}
);
};
layerId = master01;
paths = (
{
closed = 1;
nodes = (
"56 219 OFFCURVE",
"75 183 OFFCURVE",
"117 142 CURVE",
"210 213 LINE",
"171 242 OFFCURVE",
"149 288 OFFCURVE",
"149 343 CURVE SMOOTH",
"149 352 OFFCURVE",
"150 361 OFFCURVE",
"152 370 CURVE",
"212 372 OFFCURVE",
"251 358 OFFCURVE",
"307 313 CURVE",
"401 386 LINE",
"331 432 OFFCURVE",
"285 447 OFFCURVE",
"212 447 CURVE",
"115 378 LINE SMOOTH",
"79 353 OFFCURVE",
"56 306 OFFCURVE",
"56 259 CURVE SMOOTH"
);
},
{
closed = 1;
nodes = (
"73 8 OFFCURVE",
"122 -11 OFFCURVE",
"214 -13 CURVE",
"343 47 OFFCURVE",
"410 112 OFFCURVE",
"410 176 CURVE SMOOTH",
"410 231 OFFCURVE",
"357 282 OFFCURVE",
"288 293 CURVE",
"215 215 LINE",
"276 210 OFFCURVE",
"328 157 OFFCURVE",
"328 98 CURVE SMOOTH",
"328 85 OFFCURVE",
"325 71 OFFCURVE",
"319 57 CURVE",
"243 63 OFFCURVE",
"155 97 OFFCURVE",
"111 138 CURVE",
"10 67 LINE"
);
}
);
width = 418;
},
{
associatedMasterId = master01;
background = {
paths = (
{
closed = 1;
nodes = (
"63 208 OFFCURVE",
"76 184 OFFCURVE",
"115 141 CURVE",
"209 213 LINE",
"176 242 OFFCURVE",
"165 258 OFFCURVE",
"156 293 CURVE SMOOTH",
"149 322 OFFCURVE",
"147 347 OFFCURVE",
"152 370 CURVE",
"212 373 OFFCURVE",
"247 360 OFFCURVE",
"305 315 CURVE",
"399 388 LINE",
"329 435 OFFCURVE",
"282 449 OFFCURVE",
"210 446 CURVE",
"116 377 LINE SMOOTH",
"75 348 OFFCURVE",
"50 291 OFFCURVE",
"57 246 CURVE SMOOTH"
);
},
{
closed = 1;
nodes = (
"47 37 OFFCURVE",
"68 20 OFFCURVE",
"98 7 CURVE SMOOTH",
"126 -6 OFFCURVE",
"164 -14 OFFCURVE",
"214 -13 CURVE",
"344 48 OFFCURVE",
"410 111 OFFCURVE",
"410 175 CURVE SMOOTH",
"410 231 OFFCURVE",
"357 282 OFFCURVE",
"289 293 CURVE",
"216 215 LINE",
"255 209 OFFCURVE",
"285 193 OFFCURVE",
"305 164 CURVE SMOOTH",
"325 136 OFFCURVE",
"337 96 OFFCURVE",
"318 56 CURVE",
"238 56 OFFCURVE",
"151 93 OFFCURVE",
"115 141 CURVE",
"14 70 LINE"
);
}
);
};
layerId = "410FD57A-E394-45E4-A623-14CA5457B0E8";
name = "Dec 4 19, 10:52";
paths = (
{
closed = 1;
nodes = (
"67 201 OFFCURVE",
"78 182 OFFCURVE",
"117 142 CURVE",
"210 213 LINE",
"175 243 OFFCURVE",
"165 259 OFFCURVE",
"156 295 CURVE SMOOTH",
"149 323 OFFCURVE",
"147 347 OFFCURVE",
"152 370 CURVE",
"210 370 OFFCURVE",
"248 356 OFFCURVE",
"307 313 CURVE",
"401 386 LINE",
"330 430 OFFCURVE",
"281 446 OFFCURVE",
"213 446 CURVE",
"116 377 LINE SMOOTH",
"70 345 OFFCURVE",
"47 284 OFFCURVE",
"59 232 CURVE SMOOTH"
);
},
{
closed = 1;
nodes = (
"81 5 OFFCURVE",
"119 -9 OFFCURVE",
"214 -13 CURVE",
"306 30 OFFCURVE",
"374 79 OFFCURVE",
"397 126 CURVE SMOOTH",
"406 144 OFFCURVE",
"410 160 OFFCURVE",
"410 176 CURVE SMOOTH",
"410 231 OFFCURVE",
"357 282 OFFCURVE",
"289 293 CURVE",
"216 215 LINE",
"253 210 OFFCURVE",
"283 195 OFFCURVE",
"305 164 CURVE SMOOTH",
"322 140 OFFCURVE",
"338 102 OFFCURVE",
"319 57 CURVE",
"249 62 OFFCURVE",
"160 97 OFFCURVE",
"111 138 CURVE",
"10 67 LINE"
);
}
);
width = 418;
},
{
associatedMasterId = master01;
background = {
paths = (
{
closed = 1;
nodes = (
"67 201 OFFCURVE",
"78 182 OFFCURVE",
"117 142 CURVE",
"210 213 LINE",
"175 243 OFFCURVE",
"165 259 OFFCURVE",
"156 295 CURVE SMOOTH",
"149 323 OFFCURVE",
"147 347 OFFCURVE",
"152 370 CURVE",
"210 370 OFFCURVE",
"248 356 OFFCURVE",
"307 313 CURVE",
"401 386 LINE",
"330 430 OFFCURVE",
"281 446 OFFCURVE",
"213 446 CURVE",
"116 377 LINE SMOOTH",
"70 345 OFFCURVE",
"47 284 OFFCURVE",
"59 232 CURVE SMOOTH"
);
},
{
closed = 1;
nodes = (
"81 5 OFFCURVE",
"119 -9 OFFCURVE",
"214 -13 CURVE",
"306 30 OFFCURVE",
"374 79 OFFCURVE",
"397 126 CURVE SMOOTH",
"406 144 OFFCURVE",
"410 160 OFFCURVE",
"410 176 CURVE SMOOTH",
"410 231 OFFCURVE",
"357 282 OFFCURVE",
"289 293 CURVE",
"216 215 LINE",
"253 210 OFFCURVE",
"283 195 OFFCURVE",
"305 164 CURVE SMOOTH",
"322 140 OFFCURVE",
"338 102 OFFCURVE",
"319 57 CURVE",
"249 62 OFFCURVE",
"160 97 OFFCURVE",
"111 138 CURVE",
"10 67 LINE"
);
}
);
};
layerId = "D16F5942-D683-45AD-A223-1721AF86EBBF";
name = "Dec 4 19, 10:56";
paths = (
{
closed = 1;
nodes = (
"63 209 OFFCURVE",
"76 185 OFFCURVE",
"116 142 CURVE",
"210 214 LINE",
"176 243 OFFCURVE",
"166 258 OFFCURVE",
"156 293 CURVE SMOOTH",
"148 322 OFFCURVE",
"147 347 OFFCURVE",
"152 370 CURVE",
"213 372 OFFCURVE",
"248 359 OFFCURVE",
"307 313 CURVE",
"401 386 LINE",
"325 435 OFFCURVE",
"278 449 OFFCURVE",
"210 446 CURVE",
"114 377 LINE SMOOTH",
"73 347 OFFCURVE",
"50 292 OFFCURVE",
"57 247 CURVE SMOOTH"
);
},
{
closed = 1;
nodes = (
"44 35 OFFCURVE",
"66 20 OFFCURVE",
"97 7 CURVE SMOOTH",
"125 -5 OFFCURVE",
"163 -14 OFFCURVE",
"213 -13 CURVE",
"343 48 OFFCURVE",
"409 111 OFFCURVE",
"409 175 CURVE SMOOTH",
"409 231 OFFCURVE",
"356 282 OFFCURVE",
"288 293 CURVE",
"215 215 LINE",
"254 209 OFFCURVE",
"284 193 OFFCURVE",
"304 164 CURVE SMOOTH",
"324 135 OFFCURVE",
"338 97 OFFCURVE",
"318 57 CURVE",
"240 63 OFFCURVE",
"152 98 OFFCURVE",
"112 138 CURVE",
"10 66 LINE"
);
}
);
width = 418;
}
);
leftKerningGroup = a.alt;
unicode = 0073;
},
{
glyphname = t;
layers = (
{
layerId = master01;
paths = (
{
closed = 1;
nodes = (
"19 489.062 LINE",
"19 77.063 LINE",
"23.227 68 LINE",
"95.227 -4 LINE",
"203.983 46.714 LINE",
"239.983 68.714 LINE",
"235.758 77.777 LINE",
"197.692 60.027 LINE",
"176.378 81.343 OFFCURVE",
"153.403 102.131 OFFCURVE",
"132.022 123.513 CURVE",
"132 361 LINE",
"276.492 361 LINE",
"276.492 434 LINE",
"131.993 434 LINE",
"131.993 466.238 OFFCURVE",
"131.983 498.476 OFFCURVE",
"131.983 530.714 CURVE",
"127.757 539.777 LINE"
);
}
);
width = 294;
}
);
leftKerningGroup = i;
unicode = 0074;
},
{
glyphname = u;
lastChange = "2019-12-05 02:05:19 +0000";
layers = (
{
layerId = master01;
paths = (
{
closed = 1;
nodes = (
"158 65 OFFCURVE",
"129 93 OFFCURVE",
"129 165 CURVE SMOOTH",
"129 357 LINE SMOOTH",
"129 378 OFFCURVE",
"129 407 OFFCURVE",
"127 434 CURVE",
"15 434 LINE",
"19 408 OFFCURVE",
"20 383 OFFCURVE",
"20 357 CURVE SMOOTH",
"20 115 LINE SMOOTH",
"20 48 OFFCURVE",
"65 2 OFFCURVE",
"141 -11 CURVE",
"239 60 LINE"
);
},
{
closed = 1;
nodes = (
"351 434 LINE",
"353 393 OFFCURVE",
"353 352 OFFCURVE",
"353 311 CURVE SMOOTH",
"353 62 LINE SMOOTH",
"353 47 OFFCURVE",
"354 26 OFFCURVE",
"358 0 CURVE",
"249 0 LINE",
"245 25 OFFCURVE",
"244 48 OFFCURVE",
"244 66 CURVE SMOOTH",
"244 308 LINE SMOOTH",
"244 350 OFFCURVE",
"242 415 OFFCURVE",
"239 434 CURVE"
);
}
);
width = 383;
}
);
leftKerningGroup = i;
unicode = 0075;
},
{
glyphname = v;
layers = (
{
layerId = master01;
paths = (
{
closed = 1;
nodes = (
"275.879 379 LINE",
"301.806 373.647 OFFCURVE",
"325.819 362.883 OFFCURVE",
"346.178 344.391 CURVE SMOOTH",
"357.278 334.308 OFFCURVE",
"367.073 322.516 OFFCURVE",
"375.246 309.484 CURVE",
"380.144 300.698 OFFCURVE",
"384.399 291.265 OFFCURVE",
"387.778 281.575 CURVE SMOOTH",
"402.138 240.407 OFFCURVE",
"410.932 193.201 OFFCURVE",
"393.86 152.628 CURVE SMOOTH",
"377.673 114.159 OFFCURVE",
"343.122 83.428 OFFCURVE",
"314.851 55 CURVE",
"305.778 107.056 OFFCURVE",
"290.789 158.154 OFFCURVE",
"270.884 206.588 CURVE SMOOTH",
"252.887 250.378 OFFCURVE",
"231.436 289.979 OFFCURVE",
"207.977 330.612 CURVE",
"207.977 330.612 LINE"
);
},
{
closed = 1;
nodes = (
"187.955 365.421 LINE SMOOTH",
"185.089 370.262 OFFCURVE",
"182.214 375.095 OFFCURVE",
"179.333 379.921 CURVE SMOOTH",
"132.986 457.596 LINE",
"48.179 397.16 LINE",
"17 365.722 LINE",
"21.589 357.967 LINE",
"56.629 382.937 LINE",
"99.115 311.732 LINE SMOOTH",
"101.205 308.231 OFFCURVE",
"103.421 304.509 OFFCURVE",
"105.422 301.138 CURVE SMOOTH",
"108.877 295.281 OFFCURVE",
"112.205 289.601 OFFCURVE",
"115.578 283.787 CURVE SMOOTH",
"139.875 241.903 OFFCURVE",
"162.901 199.131 OFFCURVE",
"181.486 153.908 CURVE SMOOTH",
"205.38 95.772 OFFCURVE",
"222.14 34.043 OFFCURVE",
"230.197 -29.117 CURVE",
"234.787 -36.872 LINE",
"319.595 23.562 LINE",
"399.648 103.085 LINE SMOOTH",
"429.431 132.67 OFFCURVE",
"458.733 164.735 OFFCURVE",
"474.438 205.307 CURVE SMOOTH",
"490.145 245.88 OFFCURVE",
"491.534 293.086 OFFCURVE",
"477.176 334.255 CURVE SMOOTH",
"473.296 345.379 OFFCURVE",
"468.331 356.039 OFFCURVE",
"462.423 366.03 CURVE SMOOTH",
"457.795 373.851 LINE",
"457.718 373.981 LINE",
"457.678 374.047 LINE",
"457.64 374.112 LINE SMOOTH",
"449.056 388.553 OFFCURVE",
"438.499 401.585 OFFCURVE",
"426.396 412.58 CURVE SMOOTH",
"405.839 431.254 OFFCURVE",
"380.862 444.015 OFFCURVE",
"354.611 449.273 CURVE",
"269.804 388.839 LINE",
"202.714 340.357 LINE",
"200.052 344.925 OFFCURVE",
"197.372 349.49 OFFCURVE",
"194.691 354.033 CURVE SMOOTH",
"194.652 354.097 LINE",
"194.615 354.163 LINE",
"187.992 365.355 LINE"
);
}
);
width = 505;
}
);
leftKerningGroup = v;
unicode = 0076;
},
{
glyphname = w;
layers = (
{
layerId = master01;
paths = (
{
closed = 1;
nodes = (
"22.685 319.36 LINE",
"75.486 354.566 LINE",
"220.18 -10.779 LINE",
"225.864 -18.511 LINE",
"323.291 46.449 LINE",
"398.881 150.258 LINE",
"469.942 -10.779 LINE",
"475.627 -18.51 LINE",
"573.053 37.012 LINE",
"639.383 143.386 LINE SMOOTH",
"644.698 151.91 OFFCURVE",
"649.993 160.447 OFFCURVE",
"655.083 169.096 CURVE SMOOTH",
"660.183 177.762 OFFCURVE",
"665.095 186.531 OFFCURVE",
"669.629 195.479 CURVE SMOOTH",
"674.145 204.385 OFFCURVE",
"678.277 213.474 OFFCURVE",
"681.827 222.769 CURVE SMOOTH",
"685.387 232.087 OFFCURVE",
"688.363 241.609 OFFCURVE",
"690.657 251.281 CURVE SMOOTH",
"692.955 260.97 OFFCURVE",
"694.565 270.812 OFFCURVE",
"695.342 280.716 CURVE SMOOTH",
"696.115 290.575 OFFCURVE",
"696.075 300.496 OFFCURVE",
"695.172 310.346 CURVE SMOOTH",
"694.319 319.645 OFFCURVE",
"692.654 328.881 OFFCURVE",
"690.074 337.886 CURVE SMOOTH",
"687.488 346.909 OFFCURVE",
"684.099 355.716 OFFCURVE",
"680.141 364.275 CURVE SMOOTH",
"676.193 372.811 OFFCURVE",
"671.196 380.871 OFFCURVE",
"665.578 388.511 CURVE SMOOTH",
"659.845 396.309 LINE",
"659.695 396.511 LINE SMOOTH",
"659.37 396.951 OFFCURVE",
"659.043 397.39 OFFCURVE",
"658.713 397.826 CURVE SMOOTH",
"658.382 398.265 OFFCURVE",
"658.048 398.701 OFFCURVE",
"657.713 399.136 CURVE SMOOTH",
"657.378 399.57 OFFCURVE",
"657.04 400.003 OFFCURVE",
"656.7 400.433 CURVE SMOOTH",
"650.445 408.343 OFFCURVE",
"643.354 415.649 OFFCURVE",
"635.617 422.266 CURVE SMOOTH",
"627.856 428.902 OFFCURVE",
"619.406 434.806 OFFCURVE",
"610.433 439.87 CURVE SMOOTH",
"601.488 444.917 OFFCURVE",
"592.029 449.135 OFFCURVE",
"582.234 452.453 CURVE",
"466.884 381.307 LINE",
"471.966 369.915 LINE",
"490.494 379.763 LINE",
"500.41 376.75 OFFCURVE",
"509.867 372.434 OFFCURVE",
"518.692 367.18 CURVE SMOOTH",
"527.528 361.918 OFFCURVE",
"535.871 355.928 OFFCURVE",
"543.877 349.575 CURVE SMOOTH",
"551.879 343.224 OFFCURVE",
"558.705 335.675 OFFCURVE",
"564.959 327.742 CURVE SMOOTH",
"564.988 327.705 OFFCURVE",
"565.017 327.669 OFFCURVE",
"565.046 327.633 CURVE SMOOTH",
"565.074 327.597 OFFCURVE",
"565.104 327.56 OFFCURVE",
"565.132 327.523 CURVE SMOOTH",
"565.162 327.486 OFFCURVE",
"565.19 327.449 OFFCURVE",
"565.22 327.411 CURVE SMOOTH",
"570.717 320.36 OFFCURVE",
"574.462 312.219 OFFCURVE",
"578.332 304.247 CURVE SMOOTH",
"582.232 296.21 OFFCURVE",
"585.163 287.767 OFFCURVE",
"587.357 279.162 CURVE SMOOTH",
"589.542 270.595 OFFCURVE",
"591.169 261.893 OFFCURVE",
"592.062 253.117 CURVE SMOOTH",
"593.063 243.274 OFFCURVE",
"593.049 233.347 OFFCURVE",
"592.232 223.487 CURVE SMOOTH",
"591.413 213.587 OFFCURVE",
"589.828 203.745 OFFCURVE",
"587.548 194.055 CURVE SMOOTH",
"585.271 184.378 OFFCURVE",
"582.282 174.857 OFFCURVE",
"578.717 165.54 CURVE SMOOTH",
"576.055 158.58 OFFCURVE",
"573.071 151.731 OFFCURVE",
"569.843 144.991 CURVE SMOOTH",
"566.604 138.23 OFFCURVE",
"563.121 131.575 OFFCURVE",
"559.489 124.998 CURVE SMOOTH",
"555.848 118.405 OFFCURVE",
"552.058 111.886 OFFCURVE",
"548.14 105.439 CURVE",
"457.964 299.942 LINE",
"457.867 303.596 OFFCURVE",
"457.635 307.248 OFFCURVE",
"457.262 310.895 CURVE SMOOTH",
"454.539 337.485 OFFCURVE",
"444.184 363.531 OFFCURVE",
"426.874 385.396 CURVE SMOOTH",
"420.986 392.827 LINE",
"420.833 393.021 LINE SMOOTH",
"419.831 394.28 OFFCURVE",
"418.806 395.527 OFFCURVE",
"417.757 396.759 CURVE SMOOTH",
"398.475 419.409 OFFCURVE",
"371.54 436.92 OFFCURVE",
"341.29 446.34 CURVE",
"224.356 379.042 LINE",
"230.261 368.917 LINE",
"247.084 377.057 LINE",
"277.333 367.638 OFFCURVE",
"304.268 350.126 OFFCURVE",
"323.551 327.476 CURVE SMOOTH",
"323.641 327.369 OFFCURVE",
"323.725 327.273 OFFCURVE",
"323.821 327.157 CURVE",
"339.342 306.202 OFFCURVE",
"348.812 281.428 OFFCURVE",
"351.381 256.349 CURVE SMOOTH",
"354.273 228.118 OFFCURVE",
"348.657 199.512 OFFCURVE",
"337.679 172.876 CURVE SMOOTH",
"329.132 152.142 OFFCURVE",
"312.194 131.402 OFFCURVE",
"297.056 112.69 CURVE",
"193.239 374.821 LINE",
"169.667 434.341 LINE",
"163.982 442.071 LINE",
"17 327.093 LINE"
);
}
);
width = 714;
}
);
leftKerningGroup = j;
unicode = 0077;
},
{
glyphname = x;
layers = (
{
layerId = master01;
paths = (
{
closed = 1;
nodes = (
"141.967 420.065 LINE",
"141.9 420.133 LINE",
"141.841 420.191 LINE SMOOTH",
"133.256 428.745 OFFCURVE",
"123.899 436.524 OFFCURVE",
"113.853 443.362 CURVE",
"94.854 427.362 LINE",
"10 342.51 LINE",
"17.071 335.438 LINE",
"36.071 351.438 LINE",
"44.84 345.47 OFFCURVE",
"53.085 338.783 OFFCURVE",
"60.747 331.493 CURVE SMOOTH",
"88.175 302.661 OFFCURVE",
"107.228 265.615 OFFCURVE",
"114.921 226.4 CURVE",
"18.962 226.4 LINE",
"18.962 216.4 LINE",
"116.628 216.4 LINE",
"117.202 212.451 OFFCURVE",
"117.661 208.486 OFFCURVE",
"118 204.51 CURVE SMOOTH",
"122.244 154.779 OFFCURVE",
"108.795 104.545 OFFCURVE",
"85.16 60.585 CURVE SMOOTH",
"61.523 16.625 OFFCURVE",
"28.258 -21.273 OFFCURVE",
"-5 -58.491 CURVE SMOOTH",
"-89 -152.49 LINE",
"-81.929 -159.562 LINE",
"2.924 -74.709 LINE",
"86.924 19.291 LINE SMOOTH",
"120.074 56.388 OFFCURVE",
"153.232 94.161 OFFCURVE",
"176.854 137.94 CURVE",
"178.297 117.334 OFFCURVE",
"181.568 97.042 OFFCURVE",
"188.676 77.673 CURVE SMOOTH",
"195.75 58.395 OFFCURVE",
"206.695 40.543 OFFCURVE",
"220.762 25.58 CURVE SMOOTH",
"221.818 24.456 OFFCURVE",
"222.893 23.35 OFFCURVE",
"223.981 22.26 CURVE SMOOTH",
"231.053 15.188 LINE SMOOTH",
"231.111 15.13 OFFCURVE",
"231.053 15.188 OFFCURVE",
"231.112 15.129 CURVE SMOOTH",
"231.171 15.07 OFFCURVE",
"231.112 15.129 OFFCURVE",
"231.172 15.07 CURVE SMOOTH",
"231.231 15.01 LINE",
"231.29 14.951 LINE SMOOTH",
"244.645 1.648 OFFCURVE",
"260.313 -9.162 OFFCURVE",
"276.071 -19.562 CURVE SMOOTH",
"326.071 -52.562 LINE",
"452.924 62.291 LINE",
"445.853 69.362 LINE",
"403.854 39.362 LINE",
"353.853 72.362 LINE SMOOTH",
"339.414 81.892 OFFCURVE",
"325.109 91.718 OFFCURVE",
"312.493 103.566 CURVE",
"298.663 118.329 OFFCURVE",
"287.628 136.303 OFFCURVE",
"280.6 155.454 CURVE SMOOTH",
"273.414 175.037 OFFCURVE",
"270.149 195.561 OFFCURVE",
"268.731 216.4 CURVE",
"321.962 216.4 LINE",
"321.962 226.4 LINE",
"268.185 226.4 LINE",
"267.472 243.335 OFFCURVE",
"267.751 260.409 OFFCURVE",
"267.924 277.291 CURVE SMOOTH",
"268.649 348.452 LINE",
"331.071 309.438 LINE",
"415.924 394.291 LINE",
"408.853 401.362 LINE",
"336.853 446.362 LINE",
"261.853 382.362 LINE",
"202.303 322.813 LINE",
"192.404 356.612 OFFCURVE",
"174.058 387.957 OFFCURVE",
"149.227 412.807 CURVE SMOOTH",
"142.093 419.94 LINE"
);
}
);
width = 471;
}
);
leftKerningGroup = x;
unicode = 0078;
},
{
glyphname = y;
layers = (
{
layerId = master01;
paths = (
{
closed = 1;
nodes = (
"47.988 364.014 LINE",
"59.494 360.997 OFFCURVE",
"69.847 353.939 OFFCURVE",
"77.056 344.759 CURVE",
"79.896 339.441 OFFCURVE",
"81.902 333.955 OFFCURVE",
"83.369 328.196 CURVE SMOOTH",
"85.262 320.771 OFFCURVE",
"86.14 313.129 OFFCURVE",
"87 305.515 CURVE SMOOTH",
"123.455 -17.126 LINE",
"-68.359 -130.128 LINE",
"-169 -195.485 LINE",
"-163.553 -203.872 LINE",
"167.447 -8.872 LINE SMOOTH",
"186.76 2.506 OFFCURVE",
"205.752 13.625 OFFCURVE",
"225.011 26.102 CURVE",
"225.011 26.102 OFFCURVE",
"225.397 26.352 OFFCURVE",
"225.708 26.554 CURVE SMOOTH",
"326.349 91.91 LINE SMOOTH",
"353.449 109.523 OFFCURVE",
"379.265 128.836 OFFCURVE",
"401.529 152.17 CURVE SMOOTH",
"420.484 172.036 OFFCURVE",
"436.627 194.805 OFFCURVE",
"447.377 220.073 CURVE SMOOTH",
"458.125 245.341 OFFCURVE",
"463.329 273.118 OFFCURVE",
"461.087 300.484 CURVE SMOOTH",
"459.096 324.786 OFFCURVE",
"451.087 348.621 OFFCURVE",
"437.872 369.075 CURVE SMOOTH",
"437.827 369.145 OFFCURVE",
"437.871 369.076 OFFCURVE",
"437.826 369.146 CURVE SMOOTH",
"437.779 369.22 LINE SMOOTH",
"437.733 369.29 OFFCURVE",
"437.777 369.222 OFFCURVE",
"437.732 369.292 CURVE SMOOTH",
"437.687 369.362 OFFCURVE",
"437.731 369.294 OFFCURVE",
"437.686 369.364 CURVE SMOOTH",
"432.239 377.751 LINE SMOOTH",
"428.255 383.885 OFFCURVE",
"423.802 389.712 OFFCURVE",
"418.901 395.154 CURVE SMOOTH",
"397.606 418.8 OFFCURVE",
"368.072 434.899 OFFCURVE",
"336.642 439.872 CURVE",
"236.001 374.516 LINE",
"195.165 344.089 LINE",
"193.087 362.484 LINE SMOOTH",
"192.227 370.1 OFFCURVE",
"191.349 377.74 OFFCURVE",
"189.456 385.166 CURVE SMOOTH",
"187.585 392.509 OFFCURVE",
"184.735 399.639 OFFCURVE",
"180.627 406.005 CURVE SMOOTH",
"180.581 406.075 LINE",
"180.534 406.147 LINE",
"175.088 414.534 LINE SMOOTH",
"175.042 414.604 OFFCURVE",
"175.087 414.536 OFFCURVE",
"175.041 414.606 CURVE SMOOTH",
"166.673 427.447 OFFCURVE",
"152.815 436.716 OFFCURVE",
"137.641 438.872 CURVE",
"37.001 373.515 LINE",
"15.001 354.515 LINE",
"20.447 346.128 LINE"
);
},
{
closed = 1;
nodes = (
"240.087 355.485 LINE",
"251.66 364.107 LINE",
"279.24 357.547 OFFCURVE",
"304.734 342.477 OFFCURVE",
"323.707 321.411 CURVE SMOOTH",
"327.484 317.216 OFFCURVE",
"331.096 312.653 OFFCURVE",
"334.258 308.138 CURVE",
"346.053 288.495 OFFCURVE",
"353.135 266.285 OFFCURVE",
"355 243.515 CURVE SMOOTH",
"357.242 216.147 OFFCURVE",
"352.038 188.37 OFFCURVE",
"341.29 163.102 CURVE SMOOTH",
"330.54 137.834 OFFCURVE",
"314.397 115.065 OFFCURVE",
"295.442 95.2 CURVE SMOOTH",
"284.555 83.789 OFFCURVE",
"272.249 72.904 OFFCURVE",
"260.631 63.687 CURVE",
"228.956 45.027 LINE",
"197.037 327.528 LINE"
);
}
);
width = 480;
}
);
unicode = 0079;
},
{
glyphname = z;
layers = (
{
layerId = master01;
paths = (
{
closed = 1;
nodes = (
"23 349 LINE",
"94 349 OFFCURVE",
"165 349 OFFCURVE",
"236 349 CURVE",
"232 346 LINE",
"75 215 LINE",
"81 207 LINE",
"83 208 OFFCURVE",
"84 209 OFFCURVE",
"86 209 CURVE SMOOTH",
"121 224 OFFCURVE",
"161 230 OFFCURVE",
"199 224 CURVE SMOOTH",
"218 221 OFFCURVE",
"238 215 OFFCURVE",
"256 205 CURVE SMOOTH",
"272 196 OFFCURVE",
"288 184 OFFCURVE",
"299 169 CURVE",
"305 159 OFFCURVE",
"310 149 OFFCURVE",
"312 138 CURVE SMOOTH",
"315 125 OFFCURVE",
"316 112 OFFCURVE",
"313 99 CURVE SMOOTH",
"311 86 OFFCURVE",
"305 73 OFFCURVE",
"297 62 CURVE SMOOTH",
"296 60 OFFCURVE",
"294 58 OFFCURVE",
"292 55 CURVE",
"279 55 OFFCURVE",
"266 58 OFFCURVE",
"253 63 CURVE SMOOTH",
"230 73 OFFCURVE",
"211 90 OFFCURVE",
"194 109 CURVE SMOOTH",
"190 113 OFFCURVE",
"186 119 OFFCURVE",
"182 124 CURVE SMOOTH",
"174 136 OFFCURVE",
"166 150 OFFCURVE",
"160 164 CURVE",
"154 172 LINE",
"56 103 LINE",
"63 88 OFFCURVE",
"71 73 OFFCURVE",
"81 59 CURVE SMOOTH",
"87 51 LINE SMOOTH",
"91 44 OFFCURVE",
"96 38 OFFCURVE",
"102 32 CURVE SMOOTH",
"118 13 OFFCURVE",
"138 -4 OFFCURVE",
"161 -14 CURVE SMOOTH",
"179 -21 OFFCURVE",
"199 -24 OFFCURVE",
"218 -19 CURVE SMOOTH",
"227 -16 OFFCURVE",
"236 -12 OFFCURVE",
"243 -7 CURVE SMOOTH",
"342 63 LINE SMOOTH",
"350 68 OFFCURVE",
"357 75 OFFCURVE",
"364 82 CURVE SMOOTH",
"375 93 LINE SMOOTH",
"385 102 OFFCURVE",
"394 112 OFFCURVE",
"401 123 CURVE SMOOTH",
"409 134 OFFCURVE",
"415 146 OFFCURVE",
"417 159 CURVE SMOOTH",
"420 172 OFFCURVE",
"419 186 OFFCURVE",
"416 199 CURVE SMOOTH",
"413 211 OFFCURVE",
"408 223 OFFCURVE",
"400 233 CURVE SMOOTH",
"395 242 LINE SMOOTH",
"394 242 OFFCURVE",
"394 243 OFFCURVE",
"393 243 CURVE SMOOTH",
"382 259 OFFCURVE",
"366 272 OFFCURVE",
"348 282 CURVE SMOOTH",
"330 292 OFFCURVE",
"311 298 OFFCURVE",
"291 301 CURVE SMOOTH",
"261 306 OFFCURVE",
"231 303 OFFCURVE",
"202 295 CURVE",
"267 349 LINE",
"310 349 OFFCURVE",
"353 349 OFFCURVE",
"395 349 CURVE",
"487 426 LINE",
"481 434 LINE",
"109 434 LINE",
"17 357 LINE"
);
}
);
width = 505;
}
);
unicode = 007A;
},
{
glyphname = braceleft;
layers = (
{
layerId = master01;
paths = (
{
closed = 1;
nodes = (
"250.036 28.039 LINE",
"243.411 28.039 LINE SMOOTH",
"230.501 28.039 OFFCURVE",
"217.374 28.548 OFFCURVE",
"205.11 34.635 CURVE SMOOTH",
"197.467 38.428 OFFCURVE",
"190.081 44.602 OFFCURVE",
"183.994 52.238 CURVE",
"182.506 54.659 OFFCURVE",
"181.116 57.181 OFFCURVE",
"179.816 59.831 CURVE SMOOTH",
"172.136 75.493 OFFCURVE",
"167.959 94.644 OFFCURVE",
"166.515 114.008 CURVE SMOOTH",
"165.07 133.371 OFFCURVE",
"166.182 152.938 OFFCURVE",
"167.328 172.348 CURVE SMOOTH",
"168.474 191.757 OFFCURVE",
"169.586 211.323 OFFCURVE",
"168.141 230.687 CURVE SMOOTH",
"166.696 250.051 OFFCURVE",
"162.52 269.202 OFFCURVE",
"154.839 284.864 CURVE SMOOTH",
"152.754 289.115 OFFCURVE",
"150.418 293.07 OFFCURVE",
"147.876 296.699 CURVE SMOOTH",
"142.14 304.891 LINE SMOOTH",
"135.317 314.627 OFFCURVE",
"127.009 322.01 OFFCURVE",
"118.073 326.443 CURVE SMOOTH",
"117.748 326.604 OFFCURVE",
"117.159 326.886 OFFCURVE",
"117.019 326.952 CURVE",
"130.951 336.708 LINE SMOOTH",
"140.337 343.305 OFFCURVE",
"148.682 353.275 OFFCURVE",
"154.839 365.831 CURVE SMOOTH",
"162.52 381.493 OFFCURVE",
"166.696 400.644 OFFCURVE",
"168.141 420.008 CURVE SMOOTH",
"169.585 439.372 OFFCURVE",
"168.474 458.938 OFFCURVE",
"167.327 478.347 CURVE SMOOTH",
"166.182 497.756 OFFCURVE",
"165.07 517.324 OFFCURVE",
"166.515 536.686 CURVE SMOOTH",
"167.779 553.643 OFFCURVE",
"171.27 570.746 OFFCURVE",
"177.124 584.894 CURVE",
"179.334 584.947 OFFCURVE",
"181.449 584.961 OFFCURVE",
"183.614 584.961 CURVE SMOOTH",
"190.239 584.961 LINE",
"255.771 630.848 LINE",
"250.036 639.039 LINE",
"243.411 639.039 LINE SMOOTH",
"230.501 639.039 OFFCURVE",
"217.374 638.53 OFFCURVE",
"205.11 632.443 CURVE SMOOTH",
"202.853 631.322 OFFCURVE",
"200.831 630.144 OFFCURVE",
"198.405 628.482 CURVE",
"198.405 628.482 OFFCURVE",
"198.163 628.314 OFFCURVE",
"197.97 628.178 CURVE SMOOTH",
"132.438 582.292 LINE SMOOTH",
"123.051 575.695 OFFCURVE",
"114.706 565.724 OFFCURVE",
"108.549 553.169 CURVE SMOOTH",
"100.868 537.508 OFFCURVE",
"96.691 518.356 OFFCURVE",
"95.247 498.992 CURVE SMOOTH",
"93.803 479.629 OFFCURVE",
"94.914 460.061 OFFCURVE",
"96.06 440.652 CURVE SMOOTH",
"97.206 421.243 OFFCURVE",
"98.317 401.677 OFFCURVE",
"96.873 382.312 CURVE SMOOTH",
"95.636 365.735 OFFCURVE",
"92.422 349.393 OFFCURVE",
"86.676 335.115 CURVE",
"84.517 334.877 OFFCURVE",
"82.024 334.524 OFFCURVE",
"79.772 334.038 CURVE SMOOTH",
"75.136 333.039 LINE",
"9.603 287.152 LINE",
"15.339 278.961 LINE",
"19.977 278.961 LINE SMOOTH",
"32.887 278.961 OFFCURVE",
"46.015 278.453 OFFCURVE",
"58.277 272.365 CURVE SMOOTH",
"65.972 268.547 OFFCURVE",
"73.15 262.595 OFFCURVE",
"79.394 254.762 CURVE",
"80.738 252.575 OFFCURVE",
"82.29 249.781 OFFCURVE",
"83.571 247.169 CURVE SMOOTH",
"91.252 231.508 OFFCURVE",
"95.429 212.356 OFFCURVE",
"96.872 192.992 CURVE SMOOTH",
"98.317 173.629 OFFCURVE",
"97.206 154.061 OFFCURVE",
"96.06 134.653 CURVE SMOOTH",
"94.914 115.243 OFFCURVE",
"93.803 95.676 OFFCURVE",
"95.247 76.313 CURVE SMOOTH",
"96.691 56.949 OFFCURVE",
"100.867 37.799 OFFCURVE",
"108.549 22.136 CURVE SMOOTH",
"110.591 17.972 OFFCURVE",
"112.874 14.091 OFFCURVE",
"115.356 10.523 CURVE SMOOTH",
"115.428 10.421 OFFCURVE",
"115.453 10.386 OFFCURVE",
"115.512 10.301 CURVE SMOOTH",
"121.248 2.109 LINE SMOOTH",
"128.07 -7.627 OFFCURVE",
"136.379 -15.01 OFFCURVE",
"145.313 -19.443 CURVE SMOOTH",
"157.578 -25.53 OFFCURVE",
"170.704 -26.039 OFFCURVE",
"183.614 -26.039 CURVE SMOOTH",
"190.239 -26.039 LINE",
"255.771 19.848 LINE"
);
}
);
width = 272;
}
);
unicode = 007B;
},
{
glyphname = bar;
layers = (
{
layerId = master01;
paths = (
{
closed = 1;
nodes = (
"30 376 LINE",
"57.933 358.136 OFFCURVE",
"84.974 339.622 OFFCURVE",
"112.895 321.766 CURVE",
"24.427 259.819 LINE",
"25 259 LINE",
"106.98 229.324 LINE",
"23.427 170.819 LINE",
"24 170 LINE",
"53.584 155.056 OFFCURVE",
"81.593 139.002 OFFCURVE",
"111.172 124.06 CURVE",
"19.427 59.819 LINE",
"20 59 LINE",
"108 0 LINE",
"206.299 68.829 LINE",
"205.725 69.648 LINE",
"124.984 123.781 LINE",
"155.125 144.887 OFFCURVE",
"188.015 167.924 OFFCURVE",
"219.299 189.829 CURVE",
"218.725 190.648 LINE",
"137.44 231.71 LINE",
"164.201 250.448 OFFCURVE",
"194.94 271.973 OFFCURVE",
"223.299 291.829 CURVE",
"222.725 292.648 LINE",
"125.498 327.649 LINE",
"152.528 346.576 OFFCURVE",
"185.103 369.386 OFFCURVE",
"214.298 389.829 CURVE",
"213.725 390.648 LINE",
"127.725 445.648 LINE",
"29.427 376.819 LINE"
);
}
);
width = 236;
}
);
leftKerningGroup = C;
unicode = 007C;
},
{
glyphname = braceright;
layers = (
{
layerId = master01;
paths = (
{
closed = 1;
nodes = (
"21.464 -26.039 LINE",
"28.089 -26.039 LINE SMOOTH",
"41 -26.039 OFFCURVE",
"54.126 -25.53 OFFCURVE",
"66.39 -19.443 CURVE SMOOTH",
"68.822 -18.236 OFFCURVE",
"71.208 -16.811 OFFCURVE",
"73.53 -15.178 CURVE SMOOTH",
"139.063 30.708 LINE SMOOTH",
"148.449 37.305 OFFCURVE",
"156.794 47.276 OFFCURVE",
"162.951 59.831 CURVE SMOOTH",
"170.634 75.493 OFFCURVE",
"174.809 94.644 OFFCURVE",
"176.253 114.008 CURVE SMOOTH",
"177.697 133.37 OFFCURVE",
"176.586 152.938 OFFCURVE",
"175.44 172.348 CURVE SMOOTH",
"174.294 191.757 OFFCURVE",
"173.183 211.323 OFFCURVE",
"174.627 230.687 CURVE SMOOTH",
"175.892 247.643 OFFCURVE",
"179.382 264.746 OFFCURVE",
"185.236 278.895 CURVE",
"187.446 278.948 OFFCURVE",
"189.562 278.961 OFFCURVE",
"191.727 278.961 CURVE SMOOTH",
"196.364 278.961 LINE",
"261.897 324.848 LINE",
"256.161 333.039 LINE",
"251.523 334.039 LINE SMOOTH",
"246.121 335.203 OFFCURVE",
"240.633 335.475 OFFCURVE",
"235.171 335.859 CURVE SMOOTH",
"227.713 336.384 OFFCURVE",
"220.302 337.121 OFFCURVE",
"213.223 340.635 CURVE SMOOTH",
"205.578 344.428 OFFCURVE",
"198.194 350.601 OFFCURVE",
"192.106 358.239 CURVE",
"190.618 360.657 OFFCURVE",
"189.228 363.182 OFFCURVE",
"187.929 365.83 CURVE SMOOTH",
"180.248 381.493 OFFCURVE",
"176.071 400.644 OFFCURVE",
"174.627 420.008 CURVE SMOOTH",
"173.183 439.372 OFFCURVE",
"174.294 458.937 OFFCURVE",
"175.44 478.348 CURVE SMOOTH",
"176.586 497.756 OFFCURVE",
"177.697 517.323 OFFCURVE",
"176.253 536.687 CURVE SMOOTH",
"174.809 556.052 OFFCURVE",
"170.632 575.202 OFFCURVE",
"162.951 590.863 CURVE SMOOTH",
"160.866 595.115 OFFCURVE",
"158.53 599.07 OFFCURVE",
"155.988 602.698 CURVE SMOOTH",
"150.252 610.891 LINE SMOOTH",
"143.43 620.627 OFFCURVE",
"135.121 628.01 OFFCURVE",
"126.187 632.443 CURVE SMOOTH",
"113.923 638.53 OFFCURVE",
"100.796 639.039 OFFCURVE",
"87.885 639.038 CURVE SMOOTH",
"81.26 639.039 LINE",
"15.729 593.152 LINE",
"21.464 584.961 LINE",
"28.089 584.961 LINE SMOOTH",
"41 584.961 OFFCURVE",
"54.126 584.452 OFFCURVE",
"66.391 578.366 CURVE SMOOTH",
"74.084 574.547 OFFCURVE",
"81.263 568.594 OFFCURVE",
"87.506 560.762 CURVE",
"88.851 558.575 OFFCURVE",
"90.402 555.781 OFFCURVE",
"91.684 553.169 CURVE SMOOTH",
"99.364 537.507 OFFCURVE",
"103.541 518.357 OFFCURVE",
"104.985 498.993 CURVE SMOOTH",
"106.43 479.629 OFFCURVE",
"105.317 460.062 OFFCURVE",
"104.173 440.653 CURVE SMOOTH",
"103.026 421.243 OFFCURVE",
"101.915 401.677 OFFCURVE",
"103.359 382.312 CURVE SMOOTH",
"104.804 362.948 OFFCURVE",
"108.981 343.799 OFFCURVE",
"116.661 328.136 CURVE SMOOTH",
"118.703 323.971 OFFCURVE",
"120.986 320.091 OFFCURVE",
"123.469 316.523 CURVE SMOOTH",
"123.54 316.421 OFFCURVE",
"123.564 316.387 OFFCURVE",
"123.624 316.301 CURVE SMOOTH",
"129.359 308.109 LINE SMOOTH",
"136.183 298.373 OFFCURVE",
"144.492 290.991 OFFCURVE",
"153.426 286.557 CURVE SMOOTH",
"153.761 286.391 OFFCURVE",
"154.133 286.214 OFFCURVE",
"154.487 286.052 CURVE",
"140.549 276.292 LINE SMOOTH",
"131.163 269.695 OFFCURVE",
"122.818 259.724 OFFCURVE",
"116.661 247.169 CURVE SMOOTH",
"108.98 231.507 OFFCURVE",
"104.804 212.356 OFFCURVE",
"103.359 192.992 CURVE SMOOTH",
"101.915 173.628 OFFCURVE",
"103.026 154.062 OFFCURVE",
"104.173 134.652 CURVE SMOOTH",
"105.318 115.243 OFFCURVE",
"106.429 95.676 OFFCURVE",
"104.985 76.312 CURVE SMOOTH",
"103.719 59.341 OFFCURVE",
"100.386 42.627 OFFCURVE",
"94.376 28.105 CURVE",
"92.729 28.065 OFFCURVE",
"89.966 28.039 OFFCURVE",
"87.886 28.039 CURVE SMOOTH",
"81.261 28.039 LINE",
"15.729 -17.848 LINE"
);
}
);
width = 286;
}
);
unicode = 007D;
},
{
glyphname = asciitilde;
layers = (
{
layerId = master01;
paths = (
{
closed = 1;
nodes = (
"42.162 497 LINE",
"72.329 510 LINE SMOOTH",
"81.35 513.888 OFFCURVE",
"90.604 517.539 OFFCURVE",
"100.35 518.763 CURVE SMOOTH",
"110.097 519.987 OFFCURVE",
"120.082 518.813 OFFCURVE",
"129.42 515.763 CURVE SMOOTH",
"148.095 509.661 OFFCURVE",
"163.861 496.945 OFFCURVE",
"181.829 489 CURVE SMOOTH",
"194.543 483.378 OFFCURVE",
"208.283 480.147 OFFCURVE",
"222.162 479.333 CURVE SMOOTH",
"252.237 477.57 OFFCURVE",
"282.531 485.487 OFFCURVE",
"309.075 499.737 CURVE SMOOTH",
"335.619 513.988 OFFCURVE",
"357.367 535.584 OFFCURVE",
"377.495 558 CURVE SMOOTH",
"399.495 582.501 LINE",
"386.495 592.501 LINE",
"364.495 577.333 LINE SMOOTH",
"350.559 567.725 OFFCURVE",
"335.642 558.697 OFFCURVE",
"318.931 555.995 CURVE SMOOTH",
"302.22 553.294 OFFCURVE",
"284.916 556.907 OFFCURVE",
"269.602 564.119 CURVE SMOOTH",
"254.287 571.332 OFFCURVE",
"240.695 581.673 OFFCURVE",
"226.193 590.404 CURVE SMOOTH",
"211.691 599.136 OFFCURVE",
"195.71 606.075 OFFCURVE",
"178.829 607.333 CURVE SMOOTH",
"167.167 608.202 OFFCURVE",
"155.355 606.399 OFFCURVE",
"144.357 602.423 CURVE SMOOTH",
"133.36 598.447 OFFCURVE",
"123.202 592.401 OFFCURVE",
"113.778 585.477 CURVE SMOOTH",
"94.933 571.627 OFFCURVE",
"78.241 555.094 OFFCURVE",
"60.662 539.667 CURVE SMOOTH",
"27.995 511 LINE"
);
}
);
width = 426;
}
);
unicode = 007E;
},
{
glyphname = longs;
layers = (
{
layerId = master01;
paths = (
{
closed = 1;
nodes = (
"51.72 520.502 LINE",
"51.72 421.212 LINE",
"42.658 395.61 OFFCURVE",
"32.232 370.492 OFFCURVE",
"20.498 346 CURVE SMOOTH",
"8.504 320.964 OFFCURVE",
"-4.855 296.583 OFFCURVE",
"-19.502 273 CURVE",
"-13.002 268 LINE",
"11.489 284.481 OFFCURVE",
"33.374 304.801 OFFCURVE",
"51.72 327.925 CURVE",
"51.72 0 LINE",
"172.166 0 LINE",
"172.166 575.603 LINE",
"308.832 538.667 LINE",
"403.166 612.667 LINE",
"260.498 657.333 LINE",
"148.498 582 LINE"
);
}
);
width = 418;
}
);
unicode = 017F;
},
{
glyphname = tilde;
layers = (
{
layerId = master01;
paths = (
{
closed = 1;
nodes = (
"42.162 497 LINE",
"72.329 510 LINE SMOOTH",
"81.35 513.888 OFFCURVE",
"90.604 517.539 OFFCURVE",
"100.35 518.763 CURVE SMOOTH",
"110.097 519.987 OFFCURVE",
"120.082 518.813 OFFCURVE",
"129.42 515.763 CURVE SMOOTH",
"148.095 509.661 OFFCURVE",
"163.861 496.945 OFFCURVE",
"181.829 489 CURVE SMOOTH",
"194.543 483.378 OFFCURVE",
"208.283 480.147 OFFCURVE",
"222.162 479.333 CURVE SMOOTH",
"252.237 477.57 OFFCURVE",
"282.531 485.487 OFFCURVE",
"309.075 499.737 CURVE SMOOTH",
"335.619 513.988 OFFCURVE",
"357.367 535.584 OFFCURVE",
"377.495 558 CURVE SMOOTH",
"399.495 582.501 LINE",
"386.495 592.501 LINE",
"364.495 577.333 LINE SMOOTH",
"350.559 567.725 OFFCURVE",
"335.642 558.697 OFFCURVE",
"318.931 555.995 CURVE SMOOTH",
"302.22 553.294 OFFCURVE",
"284.916 556.907 OFFCURVE",
"269.602 564.119 CURVE SMOOTH",
"254.287 571.332 OFFCURVE",
"240.695 581.673 OFFCURVE",
"226.193 590.404 CURVE SMOOTH",
"211.691 599.136 OFFCURVE",
"195.71 606.075 OFFCURVE",
"178.829 607.333 CURVE SMOOTH",
"167.167 608.202 OFFCURVE",
"155.355 606.399 OFFCURVE",
"144.357 602.423 CURVE SMOOTH",
"133.36 598.447 OFFCURVE",
"123.202 592.401 OFFCURVE",
"113.778 585.477 CURVE SMOOTH",
"94.933 571.627 OFFCURVE",
"78.241 555.094 OFFCURVE",
"60.662 539.667 CURVE SMOOTH",
"27.995 511 LINE"
);
}
);
width = 426;
}
);
unicode = 02DC;
},
{
glyphname = et;
layers = (
{
layerId = master01;
paths = (
{
closed = 1;
nodes = (
"141.322 0 LINE",
"141.322 0 OFFCURVE",
"141.743 83.19 OFFCURVE",
"156.822 157.109 CURVE SMOOTH",
"179.035 266 OFFCURVE",
"209.33 327.048 OFFCURVE",
"209.33 327.048 CURVE",
"193.399 321.336 OFFCURVE",
"171.761 312.942 OFFCURVE",
"134.394 318.038 CURVE SMOOTH",
"123.726 319.492 OFFCURVE",
"112.529 320.884 OFFCURVE",
"101.075 320.998 CURVE",
"99.81 304.336 OFFCURVE",
"102.371 288.021 OFFCURVE",
"106.246 274.891 CURVE",
"21.393 190.038 LINE",
"14.322 197.108 LINE",
"5.369 227.45 OFFCURVE",
"3.344 273.131 OFFCURVE",
"39.747 309.538 CURVE SMOOTH",
"124.6 394.391 LINE SMOOTH",
"125.074 394.863 OFFCURVE",
"125.033 394.822 OFFCURVE",
"125.175 394.962 CURVE SMOOTH",
"148.092 417.569 OFFCURVE",
"182.941 413.948 OFFCURVE",
"212.175 409.962 CURVE SMOOTH",
"267.175 402.462 OFFCURVE",
"329.175 423.962 OFFCURVE",
"329.175 423.962 CURVE",
"336.246 416.891 LINE",
"325 374.5 OFFCURVE",
"289.152 267.563 OFFCURVE",
"273.035 154.5 CURVE SMOOTH",
"262.202 78.5 OFFCURVE",
"263.246 0 OFFCURVE",
"263.246 0 CURVE",
"263.246 0 LINE"
);
}
);
width = 325;
}
);
leftKerningGroup = a.alt;
unicode = 204A;
},
{
glyphname = numero;
layers = (
{
layerId = master01;
paths = (
{
closed = 1;
nodes = (
"651.241 406.068 OFFCURVE",
"676.099 394.803 OFFCURVE",
"695.987 377.724 CURVE SMOOTH",
"703.481 371.288 OFFCURVE",
"710.259 364.041 OFFCURVE",
"716.227 356.134 CURVE",
"729.789 335.212 OFFCURVE",
"737.853 310.417 OFFCURVE",
"738.02 285.415 CURVE SMOOTH",
"738.162 263.908 OFFCURVE",
"732.367 242.38 OFFCURVE",
"721.481 223.872 CURVE",
"695.416 229.68 OFFCURVE",
"670.802 242.87 OFFCURVE",
"651.699 261.667 CURVE SMOOTH",
"646.739 266.547 OFFCURVE",
"642.249 271.68 OFFCURVE",
"638.005 277.309 CURVE",
"625.661 296.309 OFFCURVE",
"617.664 318.512 OFFCURVE",
"615.366 341.171 CURVE SMOOTH",
"612.989 364.604 OFFCURVE",
"616.546 388.59 OFFCURVE",
"625.512 410.375 CURVE",
"625.512 410.375 LINE"
);
},
{
closed = 1;
nodes = (
"811.658 429.212 LINE",
"811.605 429.287 LINE",
"811.558 429.354 LINE SMOOTH",
"804.967 438.725 OFFCURVE",
"797.229 447.291 OFFCURVE",
"788.55 454.744 CURVE SMOOTH",
"759.541 479.656 OFFCURVE",
"720.266 492.159 OFFCURVE",
"682.17 488.861 CURVE",
"678.092 486.577 OFFCURVE",
"674.129 484.088 OFFCURVE",
"670.298 481.41 CURVE SMOOTH",
"572 412.581 LINE SMOOTH",
"571.83 412.462 OFFCURVE",
"571.617 412.312 OFFCURVE",
"571.617 412.312 CURVE",
"552.712 398.976 OFFCURVE",
"537.31 381.396 OFFCURVE",
"526.765 361.118 CURVE SMOOTH",
"513.967 336.508 OFFCURVE",
"508.533 308.129 OFFCURVE",
"511.332 280.533 CURVE SMOOTH",
"513.801 256.193 OFFCURVE",
"522.732 232.578 OFFCURVE",
"536.755 212.544 CURVE SMOOTH",
"542.59 204.211 LINE",
"542.641 204.139 LINE",
"542.689 204.07 LINE SMOOTH",
"547.577 197.122 OFFCURVE",
"553.079 190.607 OFFCURVE",
"559.137 184.647 CURVE SMOOTH",
"582.715 161.446 OFFCURVE",
"614.542 146.806 OFFCURVE",
"647.5 144 CURVE",
"745.798 212.83 LINE",
"770.212 230.268 LINE SMOOTH",
"789.555 244.084 OFFCURVE",
"808.681 259.009 OFFCURVE",
"821.905 278.761 CURVE SMOOTH",
"835.129 298.513 OFFCURVE",
"842.211 322.281 OFFCURVE",
"842.053 346.053 CURVE SMOOTH",
"841.876 372.734 OFFCURVE",
"832.813 398.984 OFFCURVE",
"817.494 420.878 CURVE SMOOTH",
"811.708 429.141 LINE"
);
},
{
closed = 1;
nodes = (
"557.5 1 LINE",
"766.5 1 LINE",
"766.5 121 LINE",
"756.5 121 LINE",
"547.5 121 LINE",
"547.5 1 LINE"
);
},
{
closed = 1;
nodes = (
"-4.781 -38.51 LINE",
"5.058 -35.305 OFFCURVE",
"14.338 -30.587 OFFCURVE",
"22.797 -24.668 CURVE SMOOTH",
"121.095 44.161 LINE SMOOTH",
"121.213 44.244 OFFCURVE",
"121.361 44.348 OFFCURVE",
"121.361 44.348 CURVE",
"137.216 55.536 OFFCURVE",
"149.978 70.701 OFFCURVE",
"158.259 88.076 CURVE SMOOTH",
"171.054 114.923 OFFCURVE",
"172.517 145.579 OFFCURVE",
"172.518 175.319 CURVE SMOOTH",
"172.518 364.281 LINE",
"360.483 -30.318 LINE",
"366.219 -38.51 LINE",
"464.518 30.319 LINE",
"464.518 498.318 LINE SMOOTH",
"464.517 528.058 OFFCURVE",
"465.98 558.715 OFFCURVE",
"478.775 585.561 CURVE SMOOTH",
"482.55 593.48 OFFCURVE",
"487.501 601.231 OFFCURVE",
"492.783 607.795 CURVE",
"543.518 643.319 LINE",
"537.781 651.511 LINE",
"527.943 648.305 OFFCURVE",
"518.663 643.588 OFFCURVE",
"510.204 637.668 CURVE SMOOTH",
"411.905 568.839 LINE SMOOTH",
"396.052 557.745 OFFCURVE",
"383.085 542.429 OFFCURVE",
"374.741 524.923 CURVE SMOOTH",
"361.946 498.077 OFFCURVE",
"360.483 467.42 OFFCURVE",
"360.483 437.681 CURVE SMOOTH",
"360.483 248.72 LINE",
"172.518 643.319 LINE",
"166.781 651.511 LINE",
"68.483 582.682 LINE",
"68.483 114.682 LINE",
"68.482 84.941 OFFCURVE",
"67.02 54.285 OFFCURVE",
"54.225 27.438 CURVE SMOOTH",
"50.447 19.514 OFFCURVE",
"45.8 12.142 OFFCURVE",
"40.217 5.205 CURVE",
"-10.517 -30.318 LINE"
);
}
);
width = 866;
}
);
unicode = 2116;
},
{
glyphname = rrotunda;
layers = (
{
layerId = master01;
paths = (
{
closed = 1;
nodes = (
"287.177 73 LINE",
"280.749 80.66 LINE",
"248.425 59.397 LINE",
"228.357 78.81 OFFCURVE",
"204.416 94.2 OFFCURVE",
"178.425 104.397 CURVE SMOOTH",
"161.395 111.079 OFFCURVE",
"143.57 115.521 OFFCURVE",
"125.343 117.639 CURVE",
"139.207 129.272 LINE SMOOTH",
"157.076 144.258 OFFCURVE",
"173.164 161.363 OFFCURVE",
"186.853 180.237 CURVE SMOOTH",
"211.647 214.422 OFFCURVE",
"228.762 255.206 OFFCURVE",
"229.701 297.426 CURVE SMOOTH",
"230.171 318.535 OFFCURVE",
"226.486 339.813 OFFCURVE",
"218.17 359.222 CURVE SMOOTH",
"213.154 370.929 OFFCURVE",
"206.438 381.922 OFFCURVE",
"198.272 391.691 CURVE SMOOTH",
"198.22 391.755 LINE",
"198.165 391.82 LINE",
"191.682 399.546 LINE",
"191.629 399.61 LINE SMOOTH",
"186.314 405.937 OFFCURVE",
"180.39 411.745 OFFCURVE",
"173.926 416.897 CURVE SMOOTH",
"163.845 424.933 OFFCURVE",
"152.496 431.374 OFFCURVE",
"140.425 435.897 CURVE",
"96.426 400.397 LINE",
"18.249 335.66 LINE",
"24.677 328 LINE",
"54.928 351.103 LINE",
"67 346.579 OFFCURVE",
"78.348 340.138 OFFCURVE",
"88.428 332.103 CURVE SMOOTH",
"93.592 327.987 OFFCURVE",
"98.579 323.273 OFFCURVE",
"102.9 318.514 CURVE",
"109.791 309.614 OFFCURVE",
"115.417 300.016 OFFCURVE",
"119.817 289.748 CURVE SMOOTH",
"128.133 270.34 OFFCURVE",
"131.818 249.061 OFFCURVE",
"131.349 227.951 CURVE SMOOTH",
"130.408 185.731 OFFCURVE",
"113.295 144.948 OFFCURVE",
"88.5 110.763 CURVE SMOOTH",
"80.626 99.908 OFFCURVE",
"71.415 89.089 OFFCURVE",
"62.73 80.135 CURVE",
"17 41.764 LINE",
"23.428 34.103 LINE",
"47.188 33.211 OFFCURVE",
"70.793 28.286 OFFCURVE",
"92.928 19.603 CURVE SMOOTH",
"118.919 9.405 OFFCURVE",
"142.86 -5.985 OFFCURVE",
"162.928 -25.397 CURVE",
"162.928 -25.397 LINE"
);
}
);
width = 306;
}
);
leftKerningGroup = G.alt;
unicode = A75B;
},
{
glyphname = rrumrotunda;
layers = (
{
layerId = master01;
paths = (
{
closed = 1;
nodes = (
"17 347.521 LINE",
"23.603 340.011 LINE",
"55.027 360.065 LINE",
"67.328 351.335 OFFCURVE",
"78.767 341.195 OFFCURVE",
"88.924 330.154 CURVE SMOOTH",
"106.936 308.692 OFFCURVE",
"120.865 283.797 OFFCURVE",
"129.49 257.135 CURVE SMOOTH",
"144.936 209.383 OFFCURVE",
"143.171 156.261 OFFCURVE",
"124.588 109.64 CURVE SMOOTH",
"117.793 92.591 OFFCURVE",
"108.107 76.049 OFFCURVE",
"97.293 61.268 CURVE",
"26.688 -0.788 LINE",
"33.289 -8.299 LINE",
"78.408 6.856 OFFCURVE",
"126.313 13.671 OFFCURVE",
"173.866 11.701 CURVE SMOOTH",
"191.929 10.953 OFFCURVE",
"209.938 8.942 OFFCURVE",
"227.722 5.702 CURVE",
"199.58 -52.123 LINE",
"210.021 -61.397 LINE",
"241.545 2.926 LINE",
"256.501 -0.359 OFFCURVE",
"271.265 -4.52 OFFCURVE",
"285.733 -9.538 CURVE",
"307.976 9.07 LINE",
"398.11 88.289 LINE",
"391.509 95.801 LINE",
"369.266 77.193 LINE",
"342.691 86.41 OFFCURVE",
"315.116 92.736 OFFCURVE",
"287.185 96.05 CURVE",
"420.446 367.958 LINE",
"330.871 445.425 LINE",
"240.735 366.206 LINE",
"219.256 347.389 LINE",
"210.189 368.488 OFFCURVE",
"197.75 388.137 OFFCURVE",
"182.614 405.415 CURVE SMOOTH",
"175.732 413.245 LINE SMOOTH",
"164.688 425.812 OFFCURVE",
"152.205 437.111 OFFCURVE",
"138.56 446.797 CURVE",
"138.56 446.797 LINE"
);
},
{
closed = 1;
nodes = (
"247.337 358.694 LINE",
"356.157 269.603 LINE",
"272.408 97.519 LINE",
"267.412 97.92 OFFCURVE",
"262.408 98.224 OFFCURVE",
"257.4 98.432 CURVE SMOOTH",
"221.721 99.909 OFFCURVE",
"185.847 96.443 OFFCURVE",
"151.099 88.219 CURVE",
"153.642 90.454 OFFCURVE",
"158.852 95.103 OFFCURVE",
"162.448 98.264 CURVE SMOOTH",
"188.176 120.88 OFFCURVE",
"208.639 149.518 OFFCURVE",
"221.325 181.348 CURVE SMOOTH",
"239.907 227.97 OFFCURVE",
"241.672 281.091 OFFCURVE",
"226.227 328.844 CURVE SMOOTH",
"225.281 331.767 OFFCURVE",
"224.271 334.67 OFFCURVE",
"223.2 337.548 CURVE",
"223.2 337.548 LINE"
);
}
);
width = 439;
}
);
leftKerningGroup = m.fina;
unicode = A75D;
},
{
glyphname = Dinsular;
layers = (
{
layerId = master01;
paths = (
{
closed = 1;
nodes = (
"177.859 207.53 LINE SMOOTH",
"187.113 192.727 OFFCURVE",
"198.169 179.053 OFFCURVE",
"210.767 166.965 CURVE",
"312.532 230.555 LINE",
"435.533 312.555 LINE",
"403.533 365.555 LINE",
"398.233 374.035 LINE",
"296.468 310.445 LINE",
"328.468 257.445 LINE",
"304.645 241.563 LINE",
"294.271 251.873 OFFCURVE",
"284.979 263.305 OFFCURVE",
"277 275.43 CURVE SMOOTH",
"265.731 294.438 OFFCURVE",
"257.433 315.057 OFFCURVE",
"252.533 336.555 CURVE SMOOTH",
"244.18 373.2 OFFCURVE",
"245.792 412.067 OFFCURVE",
"257.152 447.895 CURVE SMOOTH",
"261.257 460.839 OFFCURVE",
"266.629 473.374 OFFCURVE",
"273.136 485.291 CURVE",
"295.921 483.357 OFFCURVE",
"318.514 480.034 OFFCURVE",
"340.675 474.327 CURVE SMOOTH",
"391.34 461.281 OFFCURVE",
"439.052 435.196 OFFCURVE",
"474.768 396.965 CURVE SMOOTH",
"485.324 385.663 OFFCURVE",
"494.965 373.257 OFFCURVE",
"503.318 360.415 CURVE SMOOTH",
"524.776 324.647 OFFCURVE",
"538.192 283.962 OFFCURVE",
"542.468 242.445 CURVE SMOOTH",
"546.835 200.038 OFFCURVE",
"540.654 155.864 OFFCURVE",
"520.046 118.545 CURVE SMOOTH",
"509.742 99.886 OFFCURVE",
"496.018 83.196 OFFCURVE",
"480.173 68.937 CURVE SMOOTH",
"468.023 58 OFFCURVE",
"454.359 48.363 OFFCURVE",
"441.536 39.906 CURVE",
"393.688 37.779 OFFCURVE",
"345.601 43.992 OFFCURVE",
"300.233 59.036 CURVE SMOOTH",
"267.335 69.943 OFFCURVE",
"235.879 85.623 OFFCURVE",
"208.356 106.689 CURVE SMOOTH",
"186.462 123.447 OFFCURVE",
"167.067 143.84 OFFCURVE",
"152.003 166.791 CURVE SMOOTH",
"150.113 169.971 OFFCURVE",
"148.271 173.258 OFFCURVE",
"146.532 176.555 CURVE SMOOTH",
"119.152 228.505 OFFCURVE",
"114.241 291.434 OFFCURVE",
"131.532 347.555 CURVE SMOOTH",
"136.033 362.162 OFFCURVE",
"141.964 376.309 OFFCURVE",
"149.162 389.786 CURVE",
"138.645 354.796 OFFCURVE",
"137.347 317.071 OFFCURVE",
"145.468 281.445 CURVE SMOOTH",
"150.708 258.455 OFFCURVE",
"159.877 236.387 OFFCURVE",
"172.336 216.369 CURVE SMOOTH",
"172.38 216.299 LINE",
"172.426 216.226 LINE",
"177.815 207.601 LINE"
);
},
{
closed = 1;
nodes = (
"-157.233 487.965 LINE",
"184.767 487.965 LINE SMOOTH",
"194.065 487.965 OFFCURVE",
"203.383 487.946 OFFCURVE",
"212.703 487.842 CURVE",
"210.468 486.445 LINE",
"202.919 479.655 OFFCURVE",
"195.872 472.313 OFFCURVE",
"189.382 464.506 CURVE",
"112.467 416.445 LINE",
"71.088 385.723 OFFCURVE",
"39.643 341.698 OFFCURVE",
"24.468 292.445 CURVE SMOOTH",
"7.177 236.324 OFFCURVE",
"12.087 173.396 OFFCURVE",
"39.468 121.445 CURVE SMOOTH",
"41.923 116.786 OFFCURVE",
"44.547 112.22 OFFCURVE",
"47.327 107.752 CURVE",
"47.327 107.752 OFFCURVE",
"47.328 107.752 OFFCURVE",
"47.372 107.682 CURVE SMOOTH",
"47.417 107.608 LINE SMOOTH",
"47.462 107.537 OFFCURVE",
"47.418 107.606 OFFCURVE",
"47.462 107.536 CURVE SMOOTH",
"47.507 107.466 OFFCURVE",
"47.463 107.535 OFFCURVE",
"47.507 107.464 CURVE SMOOTH",
"47.552 107.394 OFFCURVE",
"47.508 107.463 OFFCURVE",
"47.552 107.393 CURVE SMOOTH",
"52.852 98.912 LINE SMOOTH",
"68.342 74.131 OFFCURVE",
"88.66 52.398 OFFCURVE",
"111.889 34.619 CURVE SMOOTH",
"139.412 13.553 OFFCURVE",
"170.868 -2.127 OFFCURVE",
"203.768 -13.035 CURVE SMOOTH",
"249.984 -28.36 OFFCURVE",
"299.139 -34.523 OFFCURVE",
"347.767 -32.035 CURVE",
"449.532 31.555 LINE",
"468.081 43.418 LINE",
"535.532 86.555 LINE SMOOTH",
"553.49 98.04 OFFCURVE",
"571.396 109.785 OFFCURVE",
"587.238 124.046 CURVE SMOOTH",
"603.082 138.306 OFFCURVE",
"616.807 154.995 OFFCURVE",
"627.11 173.654 CURVE SMOOTH",
"647.719 210.974 OFFCURVE",
"653.9 255.148 OFFCURVE",
"649.532 297.555 CURVE SMOOTH",
"645.103 340.575 OFFCURVE",
"630.857 382.704 OFFCURVE",
"608.02 419.393 CURVE SMOOTH",
"607.976 419.464 LINE",
"607.929 419.538 LINE SMOOTH",
"607.885 419.609 OFFCURVE",
"607.928 419.54 OFFCURVE",
"607.884 419.61 CURVE SMOOTH",
"607.84 419.682 OFFCURVE",
"607.883 419.612 OFFCURVE",
"607.839 419.684 CURVE SMOOTH",
"607.795 419.754 OFFCURVE",
"607.838 419.686 OFFCURVE",
"607.793 419.756 CURVE SMOOTH",
"607.749 419.826 OFFCURVE",
"607.792 419.758 OFFCURVE",
"607.748 419.828 CURVE SMOOTH",
"602.449 428.309 LINE SMOOTH",
"593.368 442.837 OFFCURVE",
"582.938 456.507 OFFCURVE",
"571.233 469.035 CURVE SMOOTH",
"535.519 507.268 OFFCURVE",
"487.807 533.352 OFFCURVE",
"437.142 546.397 CURVE SMOOTH",
"386.476 559.444 OFFCURVE",
"333.552 560.036 OFFCURVE",
"281.233 560.035 CURVE SMOOTH",
"-60.767 560.035 LINE",
"-162.532 496.445 LINE"
);
}
);
width = 662;
}
);
unicode = A779;
},
{
glyphname = dinsular;
lastChange = "2019-12-03 23:03:50 +0000";
layers = (
{
layerId = master01;
paths = (
{
closed = 1;
nodes = (
"8 382 OFFCURVE",
"117 376 OFFCURVE",
"225 349 CURVE SMOOTH",
"308 328 OFFCURVE",
"334 244 OFFCURVE",
"334 176 CURVE SMOOTH",
"334 133 OFFCURVE",
"319 86 OFFCURVE",
"294 48 CURVE",
"260 60 OFFCURVE",
"233 79 OFFCURVE",
"202 100 CURVE SMOOTH",
"154 135 OFFCURVE",
"129 183 OFFCURVE",
"129 241 CURVE SMOOTH",
"129 287 OFFCURVE",
"134 313 OFFCURVE",
"160 366 CURVE",
"50 319 OFFCURVE",
"15 266 OFFCURVE",
"15 194 CURVE SMOOTH",
"15 91 OFFCURVE",
"77 22 OFFCURVE",
"213 -29 CURVE",
"327 38 LINE SMOOTH",
"400 80 OFFCURVE",
"444 160 OFFCURVE",
"444 234 CURVE SMOOTH",
"444 316 OFFCURVE",
"387 407 OFFCURVE",
"306 427 CURVE SMOOTH",
"224 447 OFFCURVE",
"90 466 OFFCURVE",
"-22 466 CURVE",
"-61 382 LINE"
);
}
);
width = 497;
}
);
leftKerningGroup = E;
unicode = A77A;
},
{
glyphname = unie8bf;
layers = (
{
layerId = master01;
paths = (
{
closed = 1;
nodes = (
"114.139 30.01 OFFCURVE",
"134.597 17.539 OFFCURVE",
"157.494 8.763 CURVE",
"249.42 85.897 LINE",
"242.991 93.558 LINE",
"232.399 97.431 OFFCURVE",
"222.205 102.37 OFFCURVE",
"212.528 108.163 CURVE SMOOTH",
"158.687 140.396 OFFCURVE",
"115.346 194.003 OFFCURVE",
"115.346 279.285 CURVE SMOOTH",
"115.346 313.118 OFFCURVE",
"121.218 357.713 OFFCURVE",
"134.892 363.57 CURVE SMOOTH",
"179.847 382.827 OFFCURVE",
"248.968 341.351 OFFCURVE",
"289.066 317.516 CURVE",
"289.066 -111.84 LINE",
"387.42 -111.84 LINE",
"387.42 223.205 LINE",
"415.721 217.898 OFFCURVE",
"443.953 200.728 OFFCURVE",
"459.264 180.813 CURVE SMOOTH",
"486.564 145.3 OFFCURVE",
"478.351 86.774 OFFCURVE",
"453.955 54.874 CURVE",
"398.227 15.842 LINE",
"403.962 7.65 LINE",
"414.92 11.005 OFFCURVE",
"425.295 16.146 OFFCURVE",
"434.678 22.716 CURVE SMOOTH",
"532.976 91.545 LINE SMOOTH",
"549.028 102.785 OFFCURVE",
"562.176 118.207 OFFCURVE",
"570.369 136.019 CURVE SMOOTH",
"587.597 173.472 OFFCURVE",
"579.436 218.559 OFFCURVE",
"560.553 245.563 CURVE SMOOTH",
"554.624 254.031 LINE SMOOTH",
"540.805 273.767 OFFCURVE",
"518.936 290.222 OFFCURVE",
"493.638 297.207 CURVE",
"595.261 388.479 LINE",
"589.524 396.671 LINE",
"497.524 463.671 LINE",
"463.199 440.022 OFFCURVE",
"421.959 410.747 OFFCURVE",
"386.332 385.79 CURVE",
"382.64 389.429 OFFCURVE",
"363.614 407.938 OFFCURVE",
"348.991 417.558 CURVE SMOOTH",
"330.782 429.536 OFFCURVE",
"317.334 436.253 OFFCURVE",
"299.184 442.906 CURVE SMOOTH",
"248.796 461.376 OFFCURVE",
"197.742 446.676 OFFCURVE",
"167.353 421.176 CURVE SMOOTH",
"75.429 344.041 LINE SMOOTH",
"41.664 315.709 OFFCURVE",
"17 270.751 OFFCURVE",
"17 209.937 CURVE SMOOTH",
"17 152.636 OFFCURVE",
"38.334 109.803 OFFCURVE",
"65.152 77.841 CURVE SMOOTH",
"71.746 69.982 LINE SMOOTH",
"74.68 66.487 OFFCURVE",
"78.978 61.828 OFFCURVE",
"83.919 56.865 CURVE SMOOTH",
"88.734 52.027 OFFCURVE",
"93.265 47.801 OFFCURVE",
"96.716 44.859 CURVE",
"96.716 44.859 LINE"
);
},
{
closed = 1;
nodes = (
"404.962 386.649 LINE",
"488.702 325.665 LINE",
"454.973 295.371 OFFCURVE",
"421.255 265.004 OFFCURVE",
"387.42 234.608 CURVE",
"387.42 374.36 LINE"
);
}
);
width = 614;
}
);
leftKerningGroup = c;
unicode = E8BF;
},
{
glyphname = longs_longs;
layers = (
{
layerId = master01;
paths = (
{
closed = 1;
nodes = (
"383.922 581.038 LINE",
"499.922 515.036 LINE",
"568.75 613.334 LINE",
"560.561 619.07 LINE",
"444.561 685.072 LINE",
"375.732 586.773 LINE"
);
},
{
closed = 1;
nodes = (
"51.055 529.052 LINE",
"51.055 404.567 LINE",
"17 377 LINE",
"51.055 352.498 LINE",
"51.055 -0.948 LINE",
"171.055 -0.948 LINE",
"171.055 175.719 OFFCURVE",
"171.053 352.385 OFFCURVE",
"171.055 529.052 CURVE SMOOTH",
"171.055 529.161 OFFCURVE",
"171.053 529.27 OFFCURVE",
"171.053 529.379 CURVE SMOOTH",
"171.053 537.584 LINE",
"171.035 537.584 OFFCURVE",
"171.02 537.581 OFFCURVE",
"171.004 537.581 CURVE",
"170.805 571.552 LINE",
"252.24 547.313 LINE",
"252.24 405.527 LINE",
"217 377 LINE",
"252.24 351.646 LINE",
"252.24 0.052 LINE",
"372.24 0.052 LINE",
"372.24 622.052 LINE",
"183.055 647.052 LINE",
"51.053 529.053 LINE"
);
}
);
width = 587;
}
);
leftKerningGroup = f.alt;
unicode = EBA6;
},
{
glyphname = longs_longs_i;
layers = (
{
layerId = master01;
paths = (
{
closed = 1;
nodes = (
"390.394 560.111 LINE",
"460.893 493.611 LINE",
"569.649 544.325 LINE",
"565.424 553.389 LINE",
"494.924 619.889 LINE",
"386.167 569.175 LINE"
);
},
{
closed = 1;
nodes = (
"452.158 0 LINE",
"572.158 0 LINE",
"572.158 416 LINE",
"452.158 416 LINE"
);
},
{
closed = 1;
nodes = (
"39.018 350.211 OFFCURVE",
"28.244 345.611 OFFCURVE",
"17 343 CURVE",
"24.851 360.383 OFFCURVE",
"32.436 377.886 OFFCURVE",
"39.75 395.5 CURVE SMOOTH",
"42.824 402.9 OFFCURVE",
"45.849 410.321 OFFCURVE",
"48.827 417.76 CURVE",
"49 505 LINE",
"252 622 LINE",
"379 563 LINE",
"379 0 LINE",
"259 0 LINE",
"259 356.099 LINE",
"250.554 351.475 OFFCURVE",
"241.328 348.274 OFFCURVE",
"231.824 346.721 CURVE",
"237.618 369.789 OFFCURVE",
"242.567 393.069 OFFCURVE",
"246.658 416.5 CURVE SMOOTH",
"252.579 450.417 OFFCURVE",
"256.701 484.647 OFFCURVE",
"259 519 CURVE",
"169 549 LINE",
"169 0 LINE",
"48 0 LINE",
"48.706 356.486 LINE"
);
}
);
width = 593;
}
);
leftKerningGroup = G;
unicode = EBA7;
},
{
glyphname = p_p;
layers = (
{
layerId = master01;
paths = (
{
closed = 1;
nodes = (
"167.017 -12.337 LINE",
"200.735 8.489 LINE",
"311 85.283 LINE",
"311 57.082 LINE",
"309 55.682 LINE",
"311 52.825 LINE",
"311 -176 LINE",
"415.034 -176 LINE",
"415.034 -6.585 LINE",
"429.735 -14.511 LINE",
"451.735 -3.51 LINE SMOOTH",
"472.906 7.075 OFFCURVE",
"494.059 18.389 OFFCURVE",
"513.412 31.927 CURVE SMOOTH",
"611.71 100.756 LINE SMOOTH",
"626.833 111.335 OFFCURVE",
"640.858 123.272 OFFCURVE",
"652.936 137.28 CURVE SMOOTH",
"680.467 169.216 OFFCURVE",
"697.088 210.257 OFFCURVE",
"700.033 252.318 CURVE SMOOTH",
"703.319 299.234 OFFCURVE",
"690.299 346.928 OFFCURVE",
"664.841 386.474 CURVE SMOOTH",
"663.338 388.808 OFFCURVE",
"661.792 391.114 OFFCURVE",
"660.204 393.392 CURVE SMOOTH",
"660.156 393.46 OFFCURVE",
"660.202 393.394 OFFCURVE",
"660.154 393.462 CURVE SMOOTH",
"660.104 393.535 LINE SMOOTH",
"660.056 393.604 OFFCURVE",
"660.101 393.539 OFFCURVE",
"660.053 393.607 CURVE SMOOTH",
"660.006 393.676 OFFCURVE",
"660.051 393.61 OFFCURVE",
"660.003 393.679 CURVE SMOOTH",
"659.955 393.747 OFFCURVE",
"660 393.683 OFFCURVE",
"659.953 393.751 CURVE SMOOTH",
"654.217 401.942 LINE SMOOTH",
"628.921 438.062 OFFCURVE",
"593.089 466.729 OFFCURVE",
"552.298 483.51 CURVE",
"454 414.681 LINE",
"415.034 386.327 LINE",
"415.034 430.319 LINE",
"409.298 438.511 LINE",
"319.298 491.511 LINE",
"293.298 475.51 LINE",
"195 406.681 LINE",
"200.735 398.489 LINE",
"226.735 414.489 LINE",
"311 364.867 LINE",
"311 98.343 LINE",
"259.298 64.511 LINE",
"167.017 121.546 LINE",
"167.017 474 LINE",
"47.017 474 LINE",
"47.017 464 LINE",
"47.017 105.7 LINE",
"17 84.682 LINE",
"22.735 76.49 LINE",
"47.017 61.483 LINE",
"47.017 -176 LINE",
"167.017 -176 LINE"
);
},
{
closed = 1;
nodes = (
"461.251 405.859 LINE",
"499.895 389.628 OFFCURVE",
"534.058 362.626 OFFCURVE",
"558.75 328.973 CURVE SMOOTH",
"559.52 327.818 OFFCURVE",
"560.118 326.905 OFFCURVE",
"560.808 325.836 CURVE SMOOTH",
"586.266 286.29 OFFCURVE",
"599.285 238.597 OFFCURVE",
"596 191.681 CURVE SMOOTH",
"593.054 149.619 OFFCURVE",
"576.434 108.578 OFFCURVE",
"548.901 76.643 CURVE SMOOTH",
"548.494 76.17 OFFCURVE",
"547.629 75.183 OFFCURVE",
"547.629 75.183 CURVE",
"546.12 74.423 OFFCURVE",
"545.464 74.094 OFFCURVE",
"544.298 73.511 CURVE SMOOTH",
"522.298 62.511 LINE",
"415.034 120.34 LINE",
"415.034 373.359 LINE"
);
}
);
width = 719;
}
);
leftKerningGroup = at;
unicode = EED6;
},
{
glyphname = b.ss02;
layers = (
{
layerId = master01;
paths = (
{
closed = 1;
nodes = (
"239.962 270.891 OFFCURVE",
"266.495 315.95 OFFCURVE",
"292.219 335.823 CURVE SMOOTH",
"313.487 352.254 OFFCURVE",
"333.84 355.963 OFFCURVE",
"356.421 360.863 CURVE SMOOTH",
"427.636 376.319 OFFCURVE",
"505.851 354.777 OFFCURVE",
"559.108 305.038 CURVE SMOOTH",
"559.745 304.443 OFFCURVE",
"560.301 303.919 OFFCURVE",
"560.979 303.271 CURVE SMOOTH",
"588.202 274.797 OFFCURVE",
"608.062 238.804 OFFCURVE",
"617.462 200.404 CURVE SMOOTH",
"625.878 166.025 OFFCURVE",
"625.996 129.588 OFFCURVE",
"618.04 95.188 CURVE",
"540.891 34.962 LINE",
"189.461 120.889 LINE",
"196.429 127.856 LINE SMOOTH",
"211.812 143.207 OFFCURVE",
"223.458 162.301 OFFCURVE",
"230.375 182.935 CURVE SMOOTH",
"239.053 208.826 OFFCURVE",
"239.962 236.584 OFFCURVE",
"239.962 263.891 CURVE SMOOTH",
"239.962 270.891 LINE"
);
},
{
closed = 1;
nodes = (
"239.962 538.891 LINE SMOOTH",
"239.962 552.649 OFFCURVE",
"240.195 566.478 OFFCURVE",
"242.59 580.026 CURVE SMOOTH",
"244.984 593.575 OFFCURVE",
"249.438 606.777 OFFCURVE",
"255.962 618.891 CURVE",
"248.891 625.962 LINE",
"229.297 606.368 LINE",
"223.002 601.882 OFFCURVE",
"215.599 597.944 OFFCURVE",
"207.991 595.298 CURVE SMOOTH",
"191.64 589.61 OFFCURVE",
"173.518 589.137 OFFCURVE",
"156.892 593.962 CURVE SMOOTH",
"144.889 597.445 OFFCURVE",
"133.83 603.579 OFFCURVE",
"124.412 611.922 CURVE",
"124.266 612.088 OFFCURVE",
"123.793 612.628 OFFCURVE",
"123.522 612.942 CURVE SMOOTH",
"112.94 625.29 OFFCURVE",
"106.053 640.765 OFFCURVE",
"103.962 656.891 CURVE",
"96.891 663.962 LINE",
"12.038 579.109 LINE",
"14.129 562.982 OFFCURVE",
"21.017 547.509 OFFCURVE",
"31.599 535.161 CURVE SMOOTH",
"32.969 533.564 OFFCURVE",
"34.399 532.019 OFFCURVE",
"35.887 530.529 CURVE SMOOTH",
"42.958 523.459 LINE SMOOTH",
"43.017 523.399 OFFCURVE",
"42.96 523.456 OFFCURVE",
"43.02 523.397 CURVE SMOOTH",
"43.083 523.334 LINE",
"43.142 523.275 LINE SMOOTH",
"53.115 513.355 OFFCURVE",
"65.597 505.96 OFFCURVE",
"79.109 502.038 CURVE SMOOTH",
"95.736 497.213 OFFCURVE",
"113.857 497.687 OFFCURVE",
"130.21 503.374 CURVE SMOOTH",
"138.813 506.367 OFFCURVE",
"147.382 511.187 OFFCURVE",
"153.912 516.226 CURVE",
"152.562 511.561 OFFCURVE",
"151.501 506.971 OFFCURVE",
"150.666 502.245 CURVE SMOOTH",
"148.271 488.695 OFFCURVE",
"148.038 474.868 OFFCURVE",
"148.038 461.109 CURVE SMOOTH",
"148.038 212.07 LINE",
"148.038 186.108 LINE SMOOTH",
"148.038 158.803 OFFCURVE",
"147.129 131.044 OFFCURVE",
"138.45 105.153 CURVE SMOOTH",
"133.329 89.872 OFFCURVE",
"125.374 75.186 OFFCURVE",
"115.84 62.91 CURVE",
"92.038 39.109 LINE",
"99.109 32.038 LINE",
"463.109 -56.962 LINE",
"618.109 64.038 LINE",
"702.962 148.891 LINE",
"717.53 190.156 OFFCURVE",
"719.792 235.68 OFFCURVE",
"709.386 278.186 CURVE SMOOTH",
"699.582 318.231 OFFCURVE",
"678.569 355.458 OFFCURVE",
"649.425 384.61 CURVE SMOOTH",
"642.354 391.681 LINE SMOOTH",
"642.295 391.74 OFFCURVE",
"642.351 391.684 OFFCURVE",
"642.292 391.743 CURVE SMOOTH",
"642.23 391.805 LINE SMOOTH",
"642.171 391.863 OFFCURVE",
"642.228 391.808 OFFCURVE",
"642.169 391.866 CURVE SMOOTH",
"642.103 391.931 LINE",
"642.045 391.989 LINE SMOOTH",
"640.353 393.675 OFFCURVE",
"638.636 395.332 OFFCURVE",
"636.891 396.962 CURVE SMOOTH",
"583.632 446.701 OFFCURVE",
"505.418 468.243 OFFCURVE",
"434.202 452.787 CURVE SMOOTH",
"391.769 443.578 OFFCURVE",
"352.521 421.386 OFFCURVE",
"321.836 390.706 CURVE SMOOTH",
"239.962 308.832 LINE"
);
}
);
width = 724;
}
);
unicode = EEE1;
},
